<svg width="3973" height="2886" viewBox="0 0 3973 2886" fill="none" xmlns="http://www.w3.org/2000/svg">
<path d="M2267.21 1895.6H3162.61C3217.93 1895.6 3262.78 1850.75 3262.78 1795.44C3262.78 1730.05 3209.78 1677.05 3144.41 1677.05H1758.79C1675.81 1677.05 1608.54 1609.79 1608.54 1526.81C1608.54 1438.8 1679.89 1367.45 1767.9 1367.45H2358.26" stroke="black" stroke-width="10.6667" stroke-miterlimit="10"/>
<path d="M1870.02 1895.6H1344.63C1277.34 1895.6 1222.79 1950.15 1222.79 2017.43C1222.79 2121.89 1307.47 2206.57 1411.94 2206.57H2475.83" stroke="black" stroke-width="10.6667" stroke-miterlimit="10"/>
<path d="M1631.85 2387.8H3053.17C3137.53 2387.8 3205.91 2319.41 3205.91 2235.05C3205.91 2162.13 3146.79 2103.03 3073.87 2103.03H2817.57" stroke="black" stroke-width="10.6667" stroke-miterlimit="10"/>
<path d="M1139.98 1600.77H624.757C528.951 1600.77 451.296 1678.43 451.296 1774.23V1882.89C451.296 1975.77 526.599 2051.08 619.505 2051.08H756.872C836.899 2051.08 901.765 1986.21 901.765 1906.17V1888.15C901.765 1812.36 963.205 1750.93 1038.99 1750.93H1467.22" stroke="black" stroke-width="10.6667" stroke-miterlimit="10"/>
<path d="M1409.19 1600.77V1191.72C1409.19 1097.35 1332.7 1020.85 1238.33 1020.85H1134.77C1077.58 1020.85 1031.22 1067.21 1031.22 1124.41V1250.8C1031.22 1315.23 978.978 1367.45 914.552 1367.45C844.578 1367.45 787.858 1310.73 787.858 1240.76V873.28C787.858 788.92 856.245 720.533 940.605 720.533H2056.43" stroke="black" stroke-width="10.6667" stroke-miterlimit="10"/>
<path d="M1259.03 855.16H2770.97" stroke="black" stroke-width="10.6667" stroke-miterlimit="10"/>
<path d="M1871.14 1075.72C1880.31 1152.72 1945.87 1212.43 2025.37 1212.43H2646.7C2715.34 1212.43 2770.98 1268.07 2770.98 1336.71V1347.05C2770.98 1447.15 2689.83 1528.27 2589.75 1528.27H2056.42" stroke="black" stroke-width="10.6667" stroke-miterlimit="10"/>
<path d="M1222.79 1160.65V1404.01" stroke="black" stroke-width="10.6667" stroke-miterlimit="10"/>
<path d="M2118.57 2486.19H2429.23C2503.58 2486.19 2563.86 2546.45 2563.86 2620.8V2672.59C2563.86 2786.97 2656.58 2879.69 2770.97 2879.69H3371.61C3463.11 2879.69 3537.29 2805.52 3537.29 2714.01C3537.29 2645.37 3481.66 2589.73 3413.02 2589.73H3099.77C3084.03 2589.73 3071.29 2576.99 3071.29 2561.27C3071.29 2519.8 3104.9 2486.19 3146.37 2486.19H3565.77C3687.3 2486.19 3785.83 2387.65 3785.83 2266.12V2224.71C3785.83 2143.2 3719.75 2077.13 3638.26 2077.13H3356.07C3330.33 2077.13 3309.46 2056.27 3309.46 2030.53C3309.46 1984.77 3346.55 1947.68 3392.31 1947.68H3428.55C3505.77 1947.68 3568.35 1885.09 3568.35 1807.88V1492.04" stroke="black" stroke-width="10.6667" stroke-miterlimit="10"/>
<path d="M3692.63 1963.21H3783.23C3884.75 1963.21 3967.04 1880.92 3967.04 1779.4V1521.81C3967.04 1395.27 3864.47 1292.69 3737.93 1292.69H3182.6C3135.42 1292.69 3097.18 1330.93 3097.18 1378.12C3097.18 1441.04 3046.18 1492.04 2983.26 1492.04H2921.12" stroke="black" stroke-width="10.6667" stroke-miterlimit="10"/>
<path d="M2367.09 386.239V562.599C2367.09 612.653 2407.66 653.226 2457.71 653.226H3136.01C3155.33 653.226 3172.79 661.053 3185.45 673.706C3198.07 686.359 3205.9 703.826 3205.9 723.12C3205.9 776.026 3248.81 818.92 3301.7 818.92H3469.98C3532.89 818.92 3583.9 869.906 3583.9 932.839V943.186C3583.9 1006.08 3532.89 1057.09 3469.98 1057.09H3053.17C2980.25 1057.09 2921.13 1116.21 2921.13 1189.13V1309.51V1316" stroke="black" stroke-width="10.6667" stroke-miterlimit="10"/>
<path d="M2118.57 1057.09H2724.37" stroke="black" stroke-width="10.6667" stroke-miterlimit="10"/>
<path d="M2289.43 2636.33H1473.91C1389.56 2636.33 1321.18 2567.95 1321.18 2483.6V2304.96C1321.18 2288.52 1314.51 2273.63 1303.74 2262.85C1292.96 2252.08 1278.07 2245.41 1261.63 2245.41C1250.9 2245.41 1241.19 2249.77 1234.16 2256.77C1227.14 2263.81 1222.79 2273.52 1222.79 2284.24C1222.79 2330 1185.68 2367.08 1139.95 2367.08H1106.3C1061.96 2367.08 1026.04 2331.17 1026.04 2286.83V1974.55" stroke="black" stroke-width="10.6667" stroke-miterlimit="10"/>
<path d="M2527.61 2051.08H1640.59" stroke="black" stroke-width="10.6667" stroke-miterlimit="10"/>
<path d="M679.12 1460.97H161.335C75.5453 1460.97 6 1391.43 6 1305.64V1305.63C6 1225.56 70.9093 1160.65 150.98 1160.65H528.963C574.716 1160.65 611.808 1123.56 611.808 1077.81C611.808 1014.89 560.807 963.893 497.895 963.893H373.627C339.311 963.893 311.493 936.079 311.493 901.759C311.493 835.986 364.811 782.666 430.583 782.666H575.563C655.633 782.666 720.539 717.759 720.539 637.693V627.333C720.539 561.56 773.859 508.239 839.632 508.239H1719.87" stroke="black" stroke-width="10.6667" stroke-miterlimit="10"/>
<path d="M1870.02 99.1996V451.293C1870.02 522.786 1927.98 580.733 1999.47 580.733C2065.25 580.733 2118.57 527.413 2118.57 461.639V383.973C2118.57 292.466 2192.74 218.28 2284.25 218.28H2553.5" stroke="black" stroke-width="10.6667" stroke-miterlimit="10"/>
<path d="M3014.33 99.1865V339.96C3014.33 461.493 2915.81 560.026 2794.27 560.026H2657.06C2585.58 560.026 2527.61 502.067 2527.61 430.587V386.24" stroke="black" stroke-width="10.6667" stroke-miterlimit="10"/>
<path d="M1231.21 1599.8C1231.21 1625 1210.78 1645.43 1185.58 1645.43C1160.38 1645.43 1139.95 1625 1139.95 1599.8C1139.95 1574.6 1160.38 1554.17 1185.58 1554.17C1210.78 1554.17 1231.21 1574.6 1231.21 1599.8Z" stroke="black" stroke-width="10.6667" stroke-miterlimit="10"/>
<path d="M1558.38 1748.19C1558.38 1773.39 1537.95 1793.81 1512.75 1793.81C1487.55 1793.81 1467.12 1773.39 1467.12 1748.19C1467.12 1722.99 1487.55 1702.56 1512.75 1702.56C1537.95 1702.56 1558.38 1722.99 1558.38 1748.19Z" stroke="black" stroke-width="10.6667" stroke-miterlimit="10"/>
<path d="M1268.42 1446.4C1268.42 1471.6 1247.99 1492.04 1222.79 1492.04C1197.59 1492.04 1177.17 1471.6 1177.17 1446.4C1177.17 1421.2 1197.59 1400.77 1222.79 1400.77C1247.99 1400.77 1268.42 1421.2 1268.42 1446.4Z" stroke="black" stroke-width="10.6667" stroke-miterlimit="10"/>
<path d="M1454.83 1645.43C1454.83 1670.63 1434.39 1691.05 1409.19 1691.05C1383.99 1691.05 1363.57 1670.63 1363.57 1645.43C1363.57 1620.23 1383.99 1599.8 1409.19 1599.8C1434.39 1599.8 1454.83 1620.23 1454.83 1645.43Z" stroke="black" stroke-width="10.6667" stroke-miterlimit="10"/>
<path d="M1071.66 1928.92C1071.66 1954.12 1051.23 1974.55 1026.03 1974.55C1000.83 1974.55 980.405 1954.12 980.405 1928.92C980.405 1903.72 1000.83 1883.29 1026.03 1883.29C1051.23 1883.29 1071.66 1903.72 1071.66 1928.92Z" stroke="black" stroke-width="10.6667" stroke-miterlimit="10"/>
<path d="M1959.02 1895.6C1959.02 1920.8 1938.59 1941.23 1913.39 1941.23C1888.19 1941.23 1867.77 1920.8 1867.77 1895.6C1867.77 1870.4 1888.19 1849.97 1913.39 1849.97C1938.59 1849.97 1959.02 1870.4 1959.02 1895.6Z" stroke="black" stroke-width="10.6667" stroke-miterlimit="10"/>
<path d="M1640.58 2051.09C1640.58 2076.29 1620.15 2096.72 1594.95 2096.72C1569.75 2096.72 1549.33 2076.29 1549.33 2051.09C1549.33 2025.89 1569.75 2005.45 1594.95 2005.45C1620.15 2005.45 1640.58 2025.89 1640.58 2051.09Z" stroke="black" stroke-width="10.6667" stroke-miterlimit="10"/>
<path d="M2606.25 2051.09C2606.25 2076.29 2585.82 2096.72 2560.62 2096.72C2535.42 2096.72 2514.99 2076.29 2514.99 2051.09C2514.99 2025.89 2535.42 2005.45 2560.62 2005.45C2585.82 2005.45 2606.25 2025.89 2606.25 2051.09Z" stroke="black" stroke-width="10.6667" stroke-miterlimit="10"/>
<path d="M2816.6 2103.03C2816.6 2128.23 2796.16 2148.65 2770.96 2148.65C2745.76 2148.65 2725.34 2128.23 2725.34 2103.03C2725.34 2077.83 2745.76 2057.39 2770.96 2057.39C2796.16 2057.39 2816.6 2077.83 2816.6 2103.03Z" stroke="black" stroke-width="10.6667" stroke-miterlimit="10"/>
<path d="M2560.62 2206.57C2560.62 2231.77 2540.19 2252.21 2514.99 2252.21C2489.79 2252.21 2469.37 2231.77 2469.37 2206.57C2469.37 2181.37 2489.79 2160.95 2514.99 2160.95C2540.19 2160.95 2560.62 2181.37 2560.62 2206.57Z" stroke="black" stroke-width="10.6667" stroke-miterlimit="10"/>
<path d="M3611.73 1446.4C3611.73 1471.6 3591.3 1492.04 3566.1 1492.04C3540.89 1492.04 3520.46 1471.6 3520.46 1446.4C3520.46 1421.2 3540.89 1400.77 3566.1 1400.77C3591.3 1400.77 3611.73 1421.2 3611.73 1446.4Z" stroke="black" stroke-width="10.6667" stroke-miterlimit="10"/>
<path d="M3892.92 1160.65C3892.92 1185.85 3872.48 1206.28 3847.28 1206.28C3822.08 1206.28 3801.66 1185.85 3801.66 1160.65C3801.66 1135.45 3822.08 1115.03 3847.28 1115.03C3872.48 1115.03 3892.92 1135.45 3892.92 1160.65Z" stroke="black" stroke-width="10.6667" stroke-miterlimit="10"/>
<path d="M3281.36 1160.65C3281.36 1185.85 3260.94 1206.28 3235.74 1206.28C3210.54 1206.28 3190.11 1185.85 3190.11 1160.65C3190.11 1135.45 3210.54 1115.03 3235.74 1115.03C3260.94 1115.03 3281.36 1135.45 3281.36 1160.65Z" stroke="black" stroke-width="10.6667" stroke-miterlimit="10"/>
<path d="M3691.98 1963.21C3691.98 1988.43 3671.55 2008.85 3646.35 2008.85C3621.15 2008.85 3600.72 1988.43 3600.72 1963.21C3600.72 1938.01 3621.15 1917.59 3646.35 1917.59C3671.55 1917.59 3691.98 1938.01 3691.98 1963.21Z" stroke="black" stroke-width="10.6667" stroke-miterlimit="10"/>
<path d="M2118.57 2496.53C2118.57 2521.73 2098.13 2542.17 2072.93 2542.17C2047.73 2542.17 2027.3 2521.73 2027.3 2496.53C2027.3 2471.33 2047.73 2450.91 2072.93 2450.91C2098.13 2450.91 2118.57 2471.33 2118.57 2496.53Z" stroke="black" stroke-width="10.6667" stroke-miterlimit="10"/>
<path d="M1640.58 2387.8C1640.58 2413 1620.15 2433.43 1594.95 2433.43C1569.75 2433.43 1549.33 2413 1549.33 2387.8C1549.33 2362.6 1569.75 2342.17 1594.95 2342.17C1620.15 2342.17 1640.58 2362.6 1640.58 2387.8Z" stroke="black" stroke-width="10.6667" stroke-miterlimit="10"/>
<path d="M2366.12 2636.33C2366.12 2661.53 2345.7 2681.97 2320.5 2681.97C2295.3 2681.97 2274.87 2661.53 2274.87 2636.33C2274.87 2611.13 2295.3 2590.71 2320.5 2590.71C2345.7 2590.71 2366.12 2611.13 2366.12 2636.33Z" stroke="black" stroke-width="10.6667" stroke-miterlimit="10"/>
<path d="M2921.12 1492.04C2921.12 1517.24 2900.7 1537.67 2875.5 1537.67C2850.3 1537.67 2829.87 1517.24 2829.87 1492.04C2829.87 1466.84 2850.3 1446.4 2875.5 1446.4C2900.7 1446.4 2921.12 1466.84 2921.12 1492.04Z" stroke="black" stroke-width="10.6667" stroke-miterlimit="10"/>
<path d="M2966.75 1355.15C2966.75 1380.35 2946.32 1400.77 2921.12 1400.77C2895.92 1400.77 2875.5 1380.35 2875.5 1355.15C2875.5 1329.95 2895.92 1309.52 2921.12 1309.52C2946.32 1309.52 2966.75 1329.95 2966.75 1355.15Z" stroke="black" stroke-width="10.6667" stroke-miterlimit="10"/>
<path d="M2806.25 1057.09C2806.25 1082.29 2785.82 1102.72 2760.62 1102.72C2735.42 1102.72 2714.98 1082.29 2714.98 1057.09C2714.98 1031.89 2735.42 1011.47 2760.62 1011.47C2785.82 1011.47 2806.25 1031.89 2806.25 1057.09Z" stroke="black" stroke-width="10.6667" stroke-miterlimit="10"/>
<path d="M2118.57 1057.09C2118.57 1082.29 2098.13 1102.72 2072.93 1102.72C2047.73 1102.72 2027.3 1082.29 2027.3 1057.09C2027.3 1031.89 2047.73 1011.47 2072.93 1011.47C2098.13 1011.47 2118.57 1031.89 2118.57 1057.09Z" stroke="black" stroke-width="10.6667" stroke-miterlimit="10"/>
<path d="M1913.39 1030.24C1913.39 1055.44 1892.97 1075.87 1867.77 1075.87C1842.55 1075.87 1822.12 1055.44 1822.12 1030.24C1822.12 1005.04 1842.55 984.613 1867.77 984.613C1892.97 984.613 1913.39 1005.04 1913.39 1030.24Z" stroke="black" stroke-width="10.6667" stroke-miterlimit="10"/>
<path d="M2851.87 855.159C2851.87 880.359 2831.45 900.786 2806.25 900.786C2781.05 900.786 2760.62 880.359 2760.62 855.159C2760.62 829.959 2781.05 809.533 2806.25 809.533C2831.45 809.533 2851.87 829.959 2851.87 855.159Z" stroke="black" stroke-width="10.6667" stroke-miterlimit="10"/>
<path d="M2269.69 1895.6C2269.69 1920.8 2249.26 1941.23 2224.06 1941.23C2198.86 1941.23 2178.43 1920.8 2178.43 1895.6C2178.43 1870.4 2198.86 1849.97 2224.06 1849.97C2249.26 1849.97 2269.69 1870.4 2269.69 1895.6Z" stroke="black" stroke-width="10.6667" stroke-miterlimit="10"/>
<path d="M2055.46 1528.28C2055.46 1553.48 2035.03 1573.91 2009.83 1573.91C1984.63 1573.91 1964.19 1553.48 1964.19 1528.28C1964.19 1503.08 1984.63 1482.65 2009.83 1482.65C2035.03 1482.65 2055.46 1503.08 2055.46 1528.28Z" stroke="black" stroke-width="10.6667" stroke-miterlimit="10"/>
<path d="M2458.35 1369.71C2458.35 1394.91 2437.93 1415.33 2412.73 1415.33C2387.53 1415.33 2367.1 1394.91 2367.1 1369.71C2367.1 1344.51 2387.53 1324.08 2412.73 1324.08C2437.93 1324.08 2458.35 1344.51 2458.35 1369.71Z" stroke="black" stroke-width="10.6667" stroke-miterlimit="10"/>
<path d="M775.232 1460.97C775.232 1486.17 754.806 1506.6 729.606 1506.6C704.406 1506.6 683.974 1486.17 683.974 1460.97C683.974 1435.77 704.406 1415.33 729.606 1415.33C754.806 1415.33 775.232 1435.77 775.232 1460.97Z" stroke="black" stroke-width="10.6667" stroke-miterlimit="10"/>
<path d="M1268.42 1115.03C1268.42 1140.23 1247.99 1160.65 1222.79 1160.65C1197.59 1160.65 1177.17 1140.23 1177.17 1115.03C1177.17 1089.83 1197.59 1069.4 1222.79 1069.4C1247.99 1069.4 1268.42 1089.83 1268.42 1115.03Z" stroke="black" stroke-width="10.6667" stroke-miterlimit="10"/>
<path d="M1811.13 514.4C1811.13 539.6 1790.7 560.026 1765.5 560.026C1740.3 560.026 1719.87 539.6 1719.87 514.4C1719.87 489.186 1740.3 468.76 1765.5 468.76C1790.7 468.76 1811.13 489.186 1811.13 514.4Z" stroke="black" stroke-width="10.6667" stroke-miterlimit="10"/>
<path d="M2152.86 720.533C2152.86 745.733 2132.43 766.16 2107.23 766.16C2082.03 766.16 2061.61 745.733 2061.61 720.533C2061.61 695.333 2082.03 674.906 2107.23 674.906C2132.43 674.906 2152.86 695.333 2152.86 720.533Z" stroke="black" stroke-width="10.6667" stroke-miterlimit="10"/>
<path d="M1259.03 855.159C1259.03 880.359 1238.61 900.786 1213.41 900.786C1188.21 900.786 1167.78 880.359 1167.78 855.159C1167.78 829.959 1188.21 809.533 1213.41 809.533C1238.61 809.533 1259.03 829.959 1259.03 855.159Z" stroke="black" stroke-width="10.6667" stroke-miterlimit="10"/>
<path d="M582.436 611.293C582.436 636.493 562.006 656.92 536.806 656.92C511.605 656.92 491.176 636.493 491.176 611.293C491.176 586.093 511.605 565.667 536.806 565.667C562.006 565.667 582.436 586.093 582.436 611.293Z" stroke="black" stroke-width="10.6667" stroke-miterlimit="10"/>
<path d="M312.334 1057.09C312.334 1082.29 291.905 1102.72 266.704 1102.72C241.504 1102.72 221.074 1082.29 221.074 1057.09C221.074 1031.89 241.504 1011.47 266.704 1011.47C291.905 1011.47 312.334 1031.89 312.334 1057.09Z" stroke="black" stroke-width="10.6667" stroke-miterlimit="10"/>
<path d="M2412.73 340.613C2412.73 365.813 2392.3 386.24 2367.1 386.24C2341.9 386.24 2321.47 365.813 2321.47 340.613C2321.47 315.413 2341.9 294.987 2367.1 294.987C2392.3 294.987 2412.73 315.413 2412.73 340.613Z" stroke="black" stroke-width="10.6667" stroke-miterlimit="10"/>
<path d="M2573.25 340.613C2573.25 365.813 2552.81 386.24 2527.61 386.24C2502.41 386.24 2481.98 365.813 2481.98 340.613C2481.98 315.413 2502.41 294.987 2527.61 294.987C2552.81 294.987 2573.25 315.413 2573.25 340.613Z" stroke="black" stroke-width="10.6667" stroke-miterlimit="10"/>
<path d="M3066.75 53.5596C3066.75 78.7596 3046.32 99.1997 3021.12 99.1997C2995.92 99.1997 2975.5 78.7596 2975.5 53.5596C2975.5 28.3596 2995.92 7.93305 3021.12 7.93305C3046.32 7.93305 3066.75 28.3596 3066.75 53.5596Z" stroke="black" stroke-width="10.6667" stroke-miterlimit="10"/>
<path d="M2639.58 218.6C2639.58 243.8 2619.15 264.226 2593.95 264.226C2568.75 264.226 2548.33 243.8 2548.33 218.6C2548.33 193.4 2568.75 172.959 2593.95 172.959C2619.15 172.959 2639.58 193.4 2639.58 218.6Z" stroke="black" stroke-width="10.6667" stroke-miterlimit="10"/>
<path d="M1913.39 51.6266C1913.39 76.8266 1892.97 97.2534 1867.77 97.2534C1842.55 97.2534 1822.12 76.8266 1822.12 51.6266C1822.12 26.4266 1842.55 6.00003 1867.77 6.00003C1892.97 6.00003 1913.39 26.4266 1913.39 51.6266Z" stroke="black" stroke-width="10.6667" stroke-miterlimit="10"/>
<path d="M3129.97 468.76C3129.97 493.96 3109.54 514.4 3084.34 514.4C3059.14 514.4 3038.71 493.96 3038.71 468.76C3038.71 443.56 3059.14 423.133 3084.34 423.133C3109.54 423.133 3129.97 443.56 3129.97 468.76Z" stroke="black" stroke-width="10.6667" stroke-miterlimit="10"/>
<path d="M3478.41 734.8C3478.41 760 3457.97 780.439 3432.77 780.439C3407.57 780.439 3387.14 760 3387.14 734.8C3387.14 709.6 3407.57 689.173 3432.77 689.173C3457.97 689.173 3478.41 709.6 3478.41 734.8Z" stroke="black" stroke-width="10.6667" stroke-miterlimit="10"/>
<path d="M3129.96 468.76H3269.88C3359.84 468.76 3432.78 541.693 3432.78 631.653V689.187" stroke="black" stroke-width="10.6667" stroke-miterlimit="10"/>
<path d="M3801.66 1160.65H3281.38" stroke="black" stroke-width="10.6667" stroke-miterlimit="10"/>
<path d="M224.409 1039.95C148.333 1036.03 87.8652 973.093 87.8652 896.053V438.053C87.8652 359.053 151.917 294.986 230.943 294.986H393.72C472.745 294.986 536.813 359.053 536.813 438.053V565.653" stroke="black" stroke-width="10.6667" stroke-miterlimit="10"/>
<path d="M2480.11 2165.8H1757.01C1593.3 2165.8 1459.37 2031.85 1459.37 1868.15V1145.04C1459.37 981.346 1593.3 847.4 1757.01 847.4H2480.11C2643.82 847.4 2777.75 981.346 2777.75 1145.04V1868.15C2777.75 2031.85 2643.82 2165.8 2480.11 2165.8Z" fill="url(#paint0_linear_107_106)"/>
<path d="M2098.14 1432.76L2061.1 1323.91C2052.69 1299.23 2047.07 1276.79 2041.47 1254.89H2040.34C2034.74 1277.35 2028.57 1300.35 2021.27 1323.35L1984.25 1432.76H2098.14ZM1974.14 1470.91L1934.87 1589.85H1884.37L2012.86 1211.69H2071.77L2200.81 1589.85H2148.63L2108.23 1470.91H1974.14Z" fill="white"/>
<path d="M2305.18 1211.69V1589.85H2256.37V1211.69H2305.18Z" fill="white"/>
<path d="M1740.89 1836.11C1733.09 1838.91 1717.69 1843.51 1699.49 1843.51C1679.09 1843.51 1662.3 1838.31 1649.1 1825.71C1637.5 1814.51 1630.3 1796.51 1630.3 1775.51C1630.5 1735.31 1658.1 1705.91 1703.29 1705.91C1718.89 1705.91 1731.09 1709.31 1736.89 1712.11L1732.69 1726.31C1725.49 1723.11 1716.49 1720.51 1702.89 1720.51C1670.1 1720.51 1648.7 1740.91 1648.7 1774.71C1648.7 1808.91 1669.29 1829.11 1700.69 1829.11C1712.09 1829.11 1719.89 1827.51 1723.89 1825.51V1785.31H1696.49V1771.31H1740.89V1836.11Z" fill="white"/>
<path d="M1837.29 1778.91H1784.9V1827.51H1843.29V1842.11H1767.5V1707.31H1840.29V1721.91H1784.9V1764.51H1837.29V1778.91Z" fill="white"/>
<path d="M1865.89 1842.11V1707.31H1884.89L1928.09 1775.51C1938.09 1791.31 1945.89 1805.51 1952.29 1819.31L1952.69 1819.11C1951.09 1801.11 1950.69 1784.71 1950.69 1763.71V1707.31H1967.09V1842.11H1949.49L1906.69 1773.71C1897.29 1758.71 1888.29 1743.31 1881.49 1728.71L1880.89 1728.91C1881.89 1745.91 1882.29 1762.11 1882.29 1784.51V1842.11H1865.89Z" fill="white"/>
<path d="M2067.29 1778.91H2014.89V1827.51H2073.29V1842.11H1997.49V1707.31H2070.29V1721.91H2014.89V1764.51H2067.29V1778.91Z" fill="white"/>
<path d="M2113.28 1770.51H2131.08C2149.68 1770.51 2161.48 1760.31 2161.48 1744.91C2161.48 1727.51 2148.88 1719.91 2130.48 1719.71C2122.08 1719.71 2116.08 1720.51 2113.28 1721.31V1770.51ZM2095.88 1709.11C2104.68 1707.31 2117.28 1706.31 2129.28 1706.31C2147.88 1706.31 2159.88 1709.71 2168.28 1717.31C2175.08 1723.31 2178.88 1732.51 2178.88 1742.91C2178.88 1760.71 2167.68 1772.51 2153.48 1777.31V1777.91C2163.88 1781.51 2170.08 1791.11 2173.28 1805.11C2177.68 1823.91 2180.88 1836.91 2183.68 1842.11H2165.68C2163.48 1838.31 2160.48 1826.71 2156.68 1809.91C2152.68 1791.31 2145.48 1784.31 2129.68 1783.71H2113.28V1842.11H2095.88V1709.11Z" fill="white"/>
<path d="M2270.49 1786.11L2257.29 1747.31C2254.29 1738.51 2252.29 1730.51 2250.29 1722.71H2249.89C2247.89 1730.71 2245.69 1738.91 2243.09 1747.11L2229.89 1786.11H2270.49ZM2226.29 1799.71L2212.29 1842.11H2194.29L2240.09 1707.31H2261.09L2307.07 1842.11H2288.49L2274.09 1799.71H2226.29Z" fill="white"/>
<path d="M2337.09 1722.11H2296.09V1707.31H2395.89V1722.11H2354.69V1842.11H2337.09V1722.11Z" fill="white"/>
<path d="M2480.67 1778.91H2428.28V1827.51H2486.67V1842.11H2410.88V1707.31H2483.67V1721.91H2428.28V1764.51H2480.67V1778.91Z" fill="white"/>
<path d="M2526.69 1828.31C2531.09 1829.11 2537.49 1829.31 2544.29 1829.31C2581.47 1829.31 2601.67 1808.51 2601.67 1772.11C2601.87 1740.31 2583.87 1720.11 2547.07 1720.11C2538.08 1720.11 2531.29 1720.91 2526.69 1721.91V1828.31ZM2509.29 1709.11C2519.89 1707.51 2532.49 1706.31 2546.29 1706.31C2571.27 1706.31 2589.07 1712.11 2600.87 1723.11C2612.87 1734.11 2619.87 1749.71 2619.87 1771.51C2619.87 1793.51 2613.07 1811.51 2600.47 1823.91C2587.87 1836.51 2567.07 1843.31 2540.89 1843.31C2528.49 1843.31 2518.09 1842.71 2509.29 1841.71V1709.11Z" fill="white"/>
<defs>
<linearGradient id="paint0_linear_107_106" x1="2579.99" y1="1897.24" x2="2926.68" y2="1833.72" gradientUnits="userSpaceOnUse">
<stop stop-color="#5C4EC9"/>
<stop offset="1" stop-color="#A055CD"/>
</linearGradient>
</defs>
</svg>
