<svg width="410" height="231" viewBox="0 0 410 231" fill="none" xmlns="http://www.w3.org/2000/svg">
<g clip-path="url(#clip0_308_570)">
<mask id="mask0_308_570" style="mask-type:luminance" maskUnits="userSpaceOnUse" x="0" y="0" width="410" height="231">
<path d="M410 0.5H0V230.5H410V0.5Z" fill="white"/>
</mask>
<g mask="url(#mask0_308_570)">
<path d="M345.356 29.5H104.644C103.184 29.5 102 30.6849 102 32.1465V146.854C102 148.315 103.184 149.5 104.644 149.5H345.356C346.816 149.5 348 148.315 348 146.854V32.1465C348 30.6849 346.816 29.5 345.356 29.5Z" fill="white"/>
<path d="M344.7 149.5H104.3C102.48 149.5 101 148.02 101 146.201V31.7993C101 29.98 102.48 28.5 104.3 28.5H344.7C346.52 28.5 348 29.98 348 31.7993V146.201C348 148.02 346.52 149.5 344.7 149.5ZM104.3 29.8197C103.208 29.8197 102.32 30.7077 102.32 31.7993V146.201C102.32 147.292 103.208 148.18 104.3 148.18H344.7C345.792 148.18 346.68 147.292 346.68 146.201V31.7993C346.68 30.7077 345.792 29.8197 344.7 29.8197H104.3Z" fill="#854CEA"/>
<path d="M341 47.0499V130.774C341 130.941 340.862 131.074 340.699 131.061C340.481 131.044 340.26 131.035 340.037 131.035C335.296 131.035 331.45 134.991 331.45 139.871C331.45 140.313 331.482 140.747 331.544 141.171C331.569 141.345 331.437 141.5 331.267 141.5H119.475C119.305 141.5 119.173 141.345 119.198 141.171C119.273 140.657 119.304 140.128 119.287 139.588C119.145 134.929 115.437 131.145 110.908 131.037C110.367 131.025 109.837 131.063 109.323 131.148C109.153 131.176 109 131.04 109 130.863V46.9606C109 46.7838 109.153 46.6478 109.323 46.6761C109.741 46.7455 110.17 46.7837 110.607 46.7885C115.267 46.8405 119.163 42.9922 119.288 38.1998C119.31 37.3905 119.226 36.6042 119.048 35.8555C119.005 35.6742 119.139 35.5 119.32 35.5H331.422C331.603 35.5 331.737 35.6741 331.694 35.8554C331.535 36.5284 331.45 37.2318 331.45 37.9551C331.45 42.8347 335.296 46.7892 340.038 46.7892C340.26 46.7892 340.481 46.7804 340.7 46.7628C340.862 46.7498 341 46.8825 341 47.0499Z" fill="white"/>
<path d="M330.619 141.5H119.122C118.851 141.5 118.592 141.382 118.413 141.177C118.233 140.969 118.151 140.694 118.191 140.421C118.261 139.941 118.288 139.448 118.273 138.956C118.141 134.632 114.749 131.167 110.551 131.068C110.059 131.056 109.568 131.091 109.092 131.17C108.822 131.215 108.547 131.139 108.337 130.962C108.123 130.782 108 130.518 108 130.237V46.5841C108 46.3038 108.123 46.0396 108.336 45.8596C108.547 45.6828 108.822 45.6071 109.093 45.6519C109.479 45.716 109.876 45.7505 110.274 45.7551C110.302 45.7554 110.331 45.7555 110.359 45.7555C114.617 45.7555 118.159 42.2194 118.274 37.832C118.293 37.0961 118.219 36.3661 118.052 35.6626C117.984 35.3777 118.05 35.0832 118.232 34.8546C118.412 34.6292 118.68 34.5 118.967 34.5H330.774C331.061 34.5 331.329 34.6291 331.509 34.8544C331.691 35.0829 331.757 35.3774 331.689 35.6622C331.54 36.2929 331.464 36.9464 331.464 37.6051C331.464 42.0994 335.014 45.7557 339.378 45.7557C339.582 45.7557 339.786 45.7475 339.985 45.7315C340.244 45.7108 340.502 45.7996 340.694 45.9751C340.888 46.1536 341 46.408 341 46.6731V130.148C341 130.414 340.888 130.668 340.693 130.847C340.502 131.022 340.244 131.111 339.985 131.09C339.786 131.074 339.582 131.066 339.378 131.066C335.014 131.066 331.464 134.723 331.464 139.218C331.464 139.621 331.493 140.026 331.55 140.421C331.59 140.694 331.509 140.97 331.328 141.177C331.149 141.382 330.891 141.5 330.619 141.5ZM119.552 140.185H330.189C330.157 139.865 330.141 139.541 330.141 139.218C330.141 133.998 334.285 129.751 339.378 129.751C339.478 129.751 339.578 129.753 339.677 129.756V47.0654C339.578 47.0687 339.478 47.0704 339.378 47.0704C334.285 47.0704 330.141 42.8243 330.141 37.6051C330.141 37.0017 330.196 36.4014 330.306 35.8147H119.435C119.56 36.4862 119.615 37.1743 119.597 37.8662C119.463 42.9624 115.329 47.07 110.359 47.0703C110.326 47.0703 110.293 47.0701 110.259 47.0697C109.946 47.0663 109.632 47.0467 109.323 47.0114V129.81C109.738 129.763 110.16 129.743 110.583 129.754C112.944 129.81 115.176 130.789 116.867 132.513C118.553 134.23 119.522 136.504 119.595 138.916C119.608 139.34 119.594 139.765 119.552 140.185Z" fill="#854CEA"/>
<path d="M326.356 49.5H85.6436C84.1836 49.5 83 50.6849 83 52.1465V166.854C83 168.315 84.1836 169.5 85.6436 169.5H326.356C327.816 169.5 329 168.315 329 166.854V52.1465C329 50.6849 327.816 49.5 326.356 49.5Z" fill="white"/>
<path d="M325.7 169.5H85.3002C83.4805 169.5 82 168.02 82 166.201V51.7993C82 49.98 83.4805 48.5 85.3002 48.5H325.7C327.52 48.5 329 49.98 329 51.7993V166.201C329 168.02 327.52 169.5 325.7 169.5ZM85.3002 49.8197C84.2083 49.8197 83.3201 50.7077 83.3201 51.7993V166.201C83.3201 167.292 84.2083 168.18 85.3002 168.18H325.7C326.792 168.18 327.68 167.292 327.68 166.201V51.7993C327.68 50.7077 326.792 49.8197 325.7 49.8197H85.3002Z" fill="#854CEA"/>
<path d="M322 67.0499V150.774C322 150.941 321.862 151.074 321.7 151.061C321.481 151.044 321.26 151.035 321.038 151.035C316.296 151.035 312.45 154.991 312.45 159.871C312.45 160.313 312.482 160.747 312.544 161.171C312.569 161.345 312.437 161.5 312.267 161.5H100.475C100.305 161.5 100.173 161.345 100.198 161.171C100.273 160.657 100.304 160.128 100.287 159.588C100.145 154.929 96.4373 151.145 91.9081 151.037C91.3668 151.025 90.8367 151.063 90.3225 151.148C90.153 151.176 90 151.04 90 150.863V66.9606C90 66.7838 90.1531 66.6478 90.3228 66.6761C90.7412 66.7455 91.1701 66.7837 91.607 66.7885C96.2669 66.8405 100.163 62.9921 100.288 58.1998C100.31 57.3905 100.226 56.6042 100.048 55.8555C100.005 55.6742 100.139 55.5 100.32 55.5H312.422C312.603 55.5 312.737 55.6741 312.694 55.8554C312.535 56.5284 312.45 57.2318 312.45 57.9551C312.45 62.8347 316.296 66.7892 321.038 66.7892C321.26 66.7892 321.481 66.7804 321.7 66.7628C321.862 66.7498 322 66.8825 322 67.0499Z" fill="white"/>
<path d="M311.619 161.5H100.122C99.8502 161.5 99.5919 161.382 99.4131 161.177C99.2321 160.969 99.1511 160.694 99.1907 160.421C99.2604 159.941 99.2882 159.448 99.2733 158.956C99.141 154.632 95.749 151.167 91.5512 151.068C91.0588 151.057 90.5683 151.091 90.0924 151.17C89.8214 151.214 89.5463 151.138 89.3364 150.962C89.1226 150.782 89 150.518 89 150.237V66.5841C89 66.3038 89.1226 66.0396 89.3365 65.8597C89.5465 65.6828 89.8222 65.6071 90.0925 65.6519C90.4786 65.716 90.876 65.7505 91.2736 65.7551C91.3019 65.7554 91.331 65.7555 91.3591 65.7555C95.6174 65.7555 99.1594 62.2194 99.2742 57.832C99.2935 57.0958 99.2186 56.3659 99.0519 55.6626C98.9843 55.3777 99.05 55.0832 99.2321 54.8546C99.4116 54.6292 99.6795 54.5 99.9671 54.5H311.774C312.062 54.5 312.329 54.6292 312.509 54.8547C312.691 55.0833 312.757 55.3778 312.689 55.6626C312.54 56.2929 312.464 56.9466 312.464 57.605C312.464 62.0993 316.014 65.7557 320.377 65.7557C320.581 65.7557 320.786 65.7475 320.985 65.7315C321.243 65.711 321.502 65.7994 321.694 65.9751C321.888 66.1538 322 66.4082 322 66.6732V150.149C322 150.414 321.888 150.668 321.694 150.847C321.502 151.022 321.244 151.111 320.986 151.09C320.786 151.074 320.582 151.066 320.377 151.066C316.014 151.066 312.464 154.723 312.464 159.218C312.464 159.621 312.493 160.026 312.55 160.421C312.59 160.694 312.509 160.97 312.328 161.177C312.149 161.382 311.89 161.5 311.619 161.5ZM100.552 160.185H311.189C311.157 159.865 311.141 159.541 311.141 159.218C311.141 153.998 315.284 149.751 320.377 149.751C320.477 149.751 320.578 149.753 320.677 149.756V67.0653C320.577 67.0685 320.477 67.0703 320.377 67.0703C315.284 67.0703 311.141 62.8242 311.141 57.6049C311.141 57.0015 311.196 56.4012 311.306 55.8146H100.435C100.56 56.4858 100.614 57.1739 100.596 57.8661C100.463 62.9623 96.3288 67.0699 91.359 67.0701C91.3254 67.0701 91.2923 67.07 91.2586 67.0696C90.9454 67.0662 90.6321 67.0466 90.3226 67.0112V149.81C90.7379 149.763 91.1599 149.743 91.5825 149.754C93.9435 149.81 96.1754 150.789 97.8666 152.513C99.5524 154.23 100.521 156.504 100.595 158.916C100.608 159.34 100.593 159.765 100.552 160.185Z" fill="#854CEA"/>
<path d="M210.5 136.5C225.688 136.5 238 124.188 238 109C238 93.8122 225.688 81.5 210.5 81.5C195.312 81.5 183 93.8122 183 109C183 124.188 195.312 136.5 210.5 136.5Z" fill="white"/>
<path d="M210 136.5C194.561 136.5 182 123.939 182 108.5C182 93.0607 194.561 80.5 210 80.5C225.439 80.5 238 93.0607 238 108.5C238 123.939 225.439 136.5 210 136.5ZM210 81.8151C195.286 81.8151 183.315 93.7859 183.315 108.5C183.315 123.214 195.286 135.185 210 135.185C224.714 135.185 236.685 123.214 236.685 108.5C236.685 93.7857 224.714 81.8151 210 81.8151Z" fill="#854CEA"/>
<path d="M242 204.5C261.33 204.5 277 203.605 277 202.5C277 201.395 261.33 200.5 242 200.5C222.67 200.5 207 201.395 207 202.5C207 203.605 222.67 204.5 242 204.5Z" fill="#854CEA"/>
<path d="M242 228.5C232.81 228.5 224.167 228.214 217.663 227.695C214.485 227.442 211.984 227.145 210.231 226.814C207.876 226.37 207 225.914 207 225.131V219.5H208.321V224.971C208.667 225.182 210.421 225.902 218.732 226.516C225.078 226.985 233.341 227.243 242 227.243C250.659 227.243 258.922 226.985 265.269 226.516C273.579 225.902 275.333 225.182 275.679 224.971V219.5H277V225.131C277 225.914 276.124 226.37 273.769 226.814C272.016 227.145 269.515 227.442 266.337 227.695C259.833 228.214 251.19 228.5 242 228.5Z" fill="#854CEA"/>
<path d="M242 222.5C232.81 222.5 224.167 222.214 217.663 221.695C214.485 221.442 211.984 221.145 210.231 220.814C207.876 220.37 207 219.914 207 219.131V213.5H208.321V218.971C208.667 219.182 210.421 219.902 218.732 220.516C225.078 220.985 233.341 221.243 242 221.243C250.659 221.243 258.922 220.985 265.269 220.516C273.579 219.902 275.333 219.182 275.679 218.971V213.5H277V219.131C277 219.914 276.124 220.37 273.769 220.814C272.016 221.145 269.515 221.442 266.337 221.695C259.833 222.214 251.19 222.5 242 222.5Z" fill="#854CEA"/>
<path d="M242 216.5C232.81 216.5 224.167 216.214 217.663 215.695C214.485 215.442 211.984 215.145 210.231 214.814C207.876 214.37 207 213.914 207 213.131V207.5H208.321V212.971C208.667 213.182 210.421 213.902 218.732 214.516C225.078 214.985 233.341 215.243 242 215.243C250.659 215.243 258.922 214.985 265.269 214.516C273.579 213.902 275.333 213.182 275.679 212.971V207.5H277V213.131C277 213.914 276.124 214.37 273.769 214.814C272.016 215.145 269.515 215.442 266.337 215.695C259.833 216.214 251.19 216.5 242 216.5Z" fill="#854CEA"/>
<path d="M242 211.5C232.81 211.5 224.167 211.214 217.663 210.695C214.485 210.442 211.984 210.145 210.231 209.814C207.876 209.37 207 208.914 207 208.131V202.5H208.321V207.971C208.667 208.182 210.421 208.902 218.732 209.516C225.078 209.985 233.341 210.243 242 210.243C250.659 210.243 258.922 209.985 265.269 209.516C273.579 208.902 275.333 208.182 275.679 207.971V202.5H277V208.131C277 208.914 276.124 209.37 273.769 209.814C272.016 210.145 269.515 210.442 266.337 210.695C259.833 211.214 251.19 211.5 242 211.5Z" fill="#854CEA"/>
<path d="M181.346 124.691C185.415 118.118 198.002 118.377 205.45 122.191C208.177 123.588 210.562 125.717 213.777 128.367C217.977 131.829 219.436 133.577 222.834 136.601C230.56 143.475 231.48 141.761 234.667 145.57C239.858 151.774 240.768 159.774 240.949 162.48C241.34 168.327 239.746 170.72 241.387 176.889C242.374 180.598 243.393 181.397 242.848 183.065C241.033 188.62 226.153 190.692 222.25 185.564C221.591 184.7 221.18 183.544 220.643 182.036C219.409 178.572 219.279 175.793 219.182 174.684C218.588 167.872 213.751 162.081 213.338 161.597C209.761 157.406 207.296 158.837 199.168 154.54C194.501 152.072 186.947 148.078 182.953 140.13C181.928 138.092 177.95 130.177 181.346 124.691Z" fill="#6E39CB"/>
<path d="M231.209 189.5C227.691 189.5 224.22 188.622 222.548 186.425C221.855 185.515 221.426 184.313 220.884 182.79C219.736 179.567 219.525 176.915 219.423 175.641C219.414 175.521 219.405 175.414 219.397 175.318C218.814 168.632 214.132 162.976 213.6 162.353C211.591 160.001 209.997 159.482 207.355 158.621C205.39 157.982 202.946 157.185 199.45 155.338C194.819 152.89 187.07 148.794 183.006 140.713C182.47 139.648 181.216 137.153 180.505 134.182C179.606 130.421 179.908 127.289 181.405 124.873C183.334 121.758 187.277 119.866 192.507 119.547C197.15 119.264 202.218 120.271 206.067 122.241C208.45 123.461 210.529 125.19 213.162 127.378C213.592 127.737 214.037 128.106 214.498 128.486C217.085 130.618 218.617 132.082 220.239 133.632C221.246 134.594 222.287 135.59 223.614 136.769C227.685 140.39 229.876 141.632 231.476 142.538C232.937 143.366 233.992 143.964 235.544 145.818C240.688 151.962 241.728 159.882 241.937 163.003C242.092 165.323 241.941 167.081 241.796 168.782C241.571 171.42 241.376 173.698 242.367 177.421C242.736 178.807 243.107 179.777 243.405 180.556C243.906 181.868 244.208 182.659 243.83 183.816C242.849 186.82 238.574 188.56 234.901 189.187C233.717 189.389 232.46 189.5 231.209 189.5ZM181.962 125.222C180.449 127.665 179.504 132.284 183.592 140.414C187.561 148.307 195.194 152.342 199.755 154.752C203.201 156.574 205.617 157.36 207.557 157.992C210.214 158.857 211.969 159.429 214.098 161.922C214.644 162.562 219.45 168.368 220.051 175.261C220.06 175.357 220.069 175.467 220.078 175.588C220.177 176.834 220.384 179.427 221.502 182.567C222.026 184.035 222.439 185.195 223.069 186.023C225.17 188.782 230.47 189.273 234.791 188.535C239.169 187.788 242.473 185.854 243.206 183.609C243.511 182.676 243.271 182.047 242.791 180.793C242.488 179.999 242.11 179.011 241.732 177.591C240.711 173.757 240.92 171.313 241.141 168.725C241.285 167.049 241.433 165.316 241.281 163.047C241.077 159.992 240.06 152.238 235.042 146.244C233.566 144.481 232.606 143.937 231.154 143.114C229.528 142.193 227.302 140.932 223.179 137.264C221.843 136.077 220.798 135.077 219.787 134.111C218.174 132.569 216.65 131.113 214.082 128.997C213.62 128.616 213.175 128.246 212.743 127.887C210.142 125.725 208.087 124.016 205.769 122.83C202.02 120.91 197.077 119.929 192.547 120.206C187.535 120.512 183.775 122.293 181.962 125.222Z" fill="white"/>
<path d="M221.409 186.045C220.941 186.801 220.477 187.69 220.083 188.717C218.636 192.487 218.945 195.985 219.281 197.925C219.281 197.925 222.253 203.97 230.169 203.471C230.169 203.471 239.832 203.648 244.445 203.072C249.058 202.496 258.797 196.12 251.186 190.616C243.575 185.112 243.435 183.544 239.428 185.031C235.42 186.518 229.984 188.516 223.676 185.373L221.409 186.045Z" fill="white"/>
<path d="M229.665 204.5C225.944 204.5 223.4 203.039 221.885 201.756C220.107 200.252 219.341 198.701 219.309 198.636L219.293 198.602L219.287 198.566C218.715 195.231 219.001 191.919 220.113 188.988C220.479 188.022 220.939 187.086 221.479 186.204L221.531 186.119L224.027 185.37L224.121 185.417C230.435 188.6 235.891 186.551 239.875 185.055C243.105 183.843 244.068 184.606 247.652 187.448C248.787 188.347 250.2 189.467 252.044 190.817C255.069 193.03 255.238 195.266 254.847 196.752C253.853 200.529 248.315 203.651 245.088 204.059C240.516 204.636 230.969 204.477 230.589 204.471C230.273 204.49 229.965 204.5 229.665 204.5ZM219.8 198.44C219.916 198.664 220.678 200.055 222.245 201.374C223.808 202.692 226.52 204.207 230.566 203.949H230.577H230.588C230.686 203.951 240.417 204.123 245.021 203.541C248.143 203.147 253.431 200.067 254.337 196.621C254.846 194.685 253.969 192.874 251.731 191.236C249.878 189.88 248.462 188.757 247.323 187.855C243.753 185.024 243.01 184.436 240.062 185.543C236.006 187.066 230.457 189.149 223.977 185.93L221.877 186.56C221.377 187.389 220.949 188.267 220.606 189.171C219.531 192.005 219.253 195.209 219.8 198.44Z" fill="#6E39CB"/>
<path d="M151.083 124.33C146.644 130.739 146.07 138.794 146.07 138.794C145.949 140.495 146.01 141.819 146.07 142.78C146.884 155.78 150.493 166.985 150.493 166.985C159.262 194.214 156.04 203.431 164.352 207.722C169.302 210.277 176.627 210.201 180.423 206.689C181.271 205.904 182.239 204.673 183.814 197.981C185.735 189.817 186.345 182.93 186.615 178.498C186.972 172.639 187.2 168.887 186.91 163.59C186.641 158.675 186.097 155.556 187.058 150.749C187.829 146.89 189.142 144.088 189.564 143.222C193.514 135.116 199.039 133.204 199 127.282C198.996 126.731 198.989 125.622 198.558 124.477C194.682 114.194 160.322 110.988 151.083 124.33Z" fill="#6E39CB"/>
<path d="M172.518 210.5C169.751 210.5 166.924 209.851 164.648 208.679C159.511 206.034 158.627 201.562 156.866 192.653C155.693 186.72 154.087 178.595 150.537 167.603C150.501 167.49 146.884 156.168 146.071 143.229C146.004 142.165 145.952 140.853 146.071 139.185C146.077 139.103 146.707 130.935 151.174 124.503C156.638 116.635 170.426 114.51 181.666 115.894C191.066 117.051 197.913 120.434 199.533 124.723C199.988 125.927 199.996 127.092 200 127.652C200.023 131.146 198.202 133.272 195.896 135.965C194.151 138.003 192.173 140.313 190.47 143.797C189.839 145.09 188.675 147.779 187.975 151.272C187.209 155.094 187.405 157.84 187.652 161.317C187.714 162.19 187.779 163.093 187.833 164.076C188.126 169.411 187.891 173.255 187.536 179.074C187.113 185.996 186.188 192.41 184.708 198.684C183.13 205.374 182.147 206.715 181.198 207.591C179.344 209.302 176.552 210.329 173.338 210.481C173.065 210.494 172.792 210.5 172.518 210.5ZM151.719 124.88C147.359 131.16 146.739 139.152 146.733 139.232C146.617 140.861 146.668 142.146 146.733 143.187C147.541 156.04 151.133 167.287 151.169 167.399C154.731 178.429 156.341 186.576 157.517 192.524C159.291 201.497 160.1 205.592 164.952 208.09C169.499 210.431 176.831 210.72 180.748 207.105C181.584 206.333 182.528 205.036 184.063 198.532C185.534 192.296 186.453 185.918 186.874 179.035C187.227 173.238 187.461 169.409 187.17 164.112C187.117 163.135 187.052 162.235 186.991 161.364C186.739 157.838 186.541 155.052 187.325 151.142C188.039 147.577 189.229 144.828 189.874 143.507C191.614 139.947 193.621 137.603 195.392 135.534C197.608 132.947 199.358 130.903 199.336 127.657C199.333 127.135 199.326 126.05 198.913 124.957C198.146 122.928 196.056 121.063 192.869 119.563C189.816 118.126 185.914 117.085 181.585 116.551C170.543 115.191 157.026 117.24 151.72 124.881L151.719 124.88Z" fill="white"/>
<path d="M161.717 208.739C161.316 209.529 160.931 210.452 160.627 211.507C159.512 215.377 160.123 218.831 160.627 220.734C160.627 220.734 164.115 226.501 171.961 225.347C171.961 225.347 181.609 224.722 186.157 223.766C190.706 222.81 199.86 215.659 191.795 210.815C183.731 205.97 183.455 204.422 179.59 206.234C175.724 208.047 170.479 210.485 163.918 207.882L161.717 208.739Z" fill="white"/>
<path d="M170.345 226.5C167.231 226.5 164.953 225.402 163.505 224.377C161.604 223.031 160.707 221.554 160.67 221.492L160.651 221.46L160.642 221.425C159.786 218.158 159.786 214.843 160.643 211.837C160.925 210.847 161.303 209.878 161.765 208.956L161.81 208.867L164.234 207.913L164.332 207.953C170.898 210.586 176.161 208.092 180.004 206.271C183.119 204.795 184.145 205.474 187.961 207.997C189.17 208.796 190.674 209.79 192.628 210.977C195.833 212.922 196.193 215.13 195.931 216.64C195.265 220.477 190.012 224.044 186.83 224.72C182.323 225.677 172.794 226.319 172.414 226.344C171.688 226.452 170.998 226.5 170.345 226.5ZM161.142 221.256C161.277 221.469 162.156 222.787 163.831 223.968C165.502 225.145 168.336 226.424 172.346 225.828L172.368 225.826C172.465 225.82 182.181 225.175 186.719 224.211C189.798 223.557 194.804 220.053 195.411 216.552C195.753 214.586 194.723 212.859 192.352 211.42C190.389 210.228 188.88 209.231 187.668 208.429C183.867 205.916 183.075 205.393 180.232 206.741C176.32 208.594 170.968 211.129 164.232 208.474L162.193 209.276C161.765 210.142 161.415 211.051 161.151 211.978C160.322 214.884 160.319 218.091 161.142 221.256Z" fill="#6E39CB"/>
<path d="M262 51.4093C253.903 60.5039 253.988 68.3118 239.871 79.5648C230.106 87.3482 217.287 93.7801 213.761 93.8377C213.545 93.8421 212.601 93.8261 212.139 94.4271C211.29 95.5294 213.231 97.5436 214.205 100.46C214.439 101.162 216.09 106.148 217.745 112.821C218.603 116.282 218.792 117.496 218.334 119.001C217.797 120.767 216.563 122.283 214.499 123.709C208.469 127.878 199.735 128.259 193.995 128.418C185.866 128.643 187.161 128.324 174.671 128.418C174.671 128.418 165.575 128.487 150.923 126.504C150.108 126.395 148.316 126.136 146.35 125.033C145.68 124.657 142.105 122.655 141.039 119.001C139.94 115.23 142.006 111.396 143.695 108.259C145.045 105.753 145.725 104.088 147.088 100.754C147.358 100.091 147.88 98.7927 147.53 98.5462C147.207 98.3201 146.342 99.1657 145.908 99.4294C142.049 101.772 140.075 104.817 138.975 106.345C138.026 107.664 136.53 109.742 134.598 111.628C134.485 111.659 134.371 111.688 134.254 111.717C131.28 112.442 127.821 112.231 125.183 111.275C122.71 110.378 121.37 109.008 118.103 108.626C116.412 108.429 116.178 108.693 113.455 108.626C113.3 108.622 113.149 108.619 113 108.615C115.847 102.736 118.766 99.2824 118.766 99.2824C123.313 93.9022 123.892 93.8159 126.141 90.8952C129.593 86.4127 130.094 84.8451 134.254 79.1221C137.294 74.9422 139.438 71.4581 143.252 68.6745C147.364 65.6761 151.361 64.7497 154.905 63.9659C189.354 56.3525 196.536 56.864 199.453 60.7282C200.216 61.7397 200.956 63.3348 202.994 64.5551C206.412 66.6026 210.458 65.7827 212.728 65.29C217.099 64.3433 217.675 62.963 224.234 59.9934C230.927 56.9634 230.742 58.2125 234.413 56.0196C239.768 52.8209 239.432 50.5963 245.18 47.6324C245.937 47.242 245.203 47.6511 252.557 44.6902C253.778 44.1975 254.745 43.8055 255.552 43.5L262 51.4093Z" fill="#854CEA"/>
<path d="M188.525 129.5C187.348 129.5 186.367 129.483 185.237 129.462C182.997 129.422 180.21 129.373 174.212 129.418C174.122 129.418 164.921 129.465 150.41 127.495C149.691 127.398 147.783 127.141 145.718 125.98C144.086 125.061 141.21 123.03 140.25 119.732C139.113 115.819 141.231 111.875 142.933 108.707C144.271 106.215 144.95 104.55 146.302 101.234L146.312 101.209C146.778 100.062 146.862 99.608 146.851 99.4288C146.653 99.5042 146.273 99.7974 146.077 99.9485C145.906 100.08 145.745 100.204 145.61 100.287C142.105 102.42 140.188 105.132 139.043 106.753C138.946 106.889 138.856 107.017 138.771 107.136C137.851 108.418 136.311 110.564 134.354 112.479L134.294 112.537L134.213 112.56C134.097 112.593 133.979 112.623 133.858 112.653C130.9 113.376 127.35 113.202 124.593 112.199C123.713 111.879 122.973 111.5 122.256 111.133C120.92 110.449 119.657 109.802 117.585 109.559C116.705 109.456 116.227 109.483 115.567 109.519C114.976 109.552 114.241 109.593 112.966 109.561L112 109.535L112.222 109.076C115.055 103.209 118.005 99.6792 118.034 99.6442C120.326 96.9243 121.594 95.5699 122.612 94.4816C123.588 93.439 124.293 92.6858 125.402 91.2415C127.199 88.9017 128.185 87.3698 129.326 85.5959C130.355 83.9973 131.521 82.1853 133.512 79.4374C133.986 78.7844 134.439 78.1458 134.878 77.5282C137.263 74.1712 139.322 71.2718 142.586 68.883C146.839 65.7726 151.012 64.8469 154.366 64.1032C189.013 56.4237 196.218 56.9328 199.264 60.9788C199.43 61.2001 199.593 61.4448 199.766 61.7041C200.389 62.6402 201.165 63.8052 202.711 64.7336C206.09 66.7631 210.223 65.8636 212.209 65.4313C214.741 64.8812 215.999 64.1692 217.903 63.0915C219.261 62.3229 220.951 61.3663 223.653 60.1396C227.033 58.6045 228.712 58.1457 229.937 57.8106C231.185 57.4695 232.009 57.2439 233.801 56.1703C236.278 54.6867 237.525 53.4091 238.732 52.1737C240.15 50.7209 241.49 49.3486 244.59 47.7457C244.941 47.5644 245.001 47.5416 245.577 47.3217C246.327 47.0357 247.887 46.4407 251.997 44.7811L252.337 44.6435C253.415 44.2076 254.266 43.8633 255 43.5845L255.223 43.5L262 51.8372L261.814 52.0471C258.769 55.4769 256.917 58.6746 254.957 62.06C251.763 67.5756 248.46 73.2792 239.637 80.3328C235.132 83.9342 229.645 87.521 224.186 90.4325C219.204 93.0902 215.141 94.6946 213.318 94.7245L213.283 94.725C212.628 94.7339 212.18 94.8892 211.952 95.1866C211.557 95.7013 212.067 96.6797 212.713 97.9184C213.17 98.794 213.688 99.7864 214.069 100.934C214.379 101.865 216.005 106.838 217.618 113.36C218.494 116.905 218.677 118.172 218.203 119.735C217.639 121.594 216.38 123.151 214.239 124.635C207.914 129.02 198.57 129.278 193.55 129.417C191.338 129.479 189.814 129.5 188.525 129.5ZM178.573 128.74C181.741 128.74 183.636 128.773 185.248 128.802C187.608 128.844 189.313 128.875 193.531 128.758C198.483 128.621 207.699 128.366 213.863 124.092C215.875 122.698 217.053 121.253 217.571 119.544C218.003 118.121 217.833 116.981 216.977 113.519C215.37 107.021 213.751 102.069 213.443 101.143C213.078 100.046 212.573 99.078 212.128 98.2244C211.373 96.777 210.776 95.6337 211.428 94.785C211.786 94.3193 212.407 94.0771 213.274 94.0653L213.306 94.0648C216.558 94.0116 229.152 87.8695 239.225 79.8175C247.951 72.8412 251.222 67.1924 254.386 61.7295C256.323 58.3834 258.156 55.2191 261.134 51.8195L255.012 44.2874C254.334 44.5483 253.551 44.8652 252.585 45.256L252.244 45.3938C248.129 47.0559 246.564 47.6525 245.812 47.9391C245.245 48.1556 245.211 48.1685 244.893 48.3327C241.888 49.8866 240.584 51.2219 239.204 52.6356C237.968 53.9011 236.69 55.2096 234.14 56.7371C232.271 57.8573 231.365 58.1051 230.111 58.448C228.84 58.7955 227.258 59.228 223.926 60.7413C221.251 61.9558 219.575 62.9044 218.228 63.6667C216.272 64.7741 214.979 65.5058 212.35 66.077C210.281 66.5275 205.975 67.4647 202.372 65.3003C200.699 64.2955 199.877 63.0619 199.217 62.0707C199.05 61.8197 198.892 61.5825 198.737 61.3763C195.926 57.6422 188.591 57.1939 154.509 64.7484C151.216 65.4787 147.117 66.3878 142.975 69.4165C139.798 71.7419 137.767 74.6009 135.416 77.9111C134.976 78.53 134.522 79.1699 134.046 79.8254C132.066 82.5584 130.905 84.3622 129.881 85.9537C128.731 87.74 127.739 89.2826 125.925 91.644C124.797 93.114 124.083 93.8771 123.094 94.9333C122.081 96.0159 120.82 97.3633 118.539 100.07C118.511 100.103 115.764 103.393 113.041 108.903C114.253 108.931 114.96 108.892 115.53 108.86C116.224 108.822 116.725 108.794 117.662 108.904C119.852 109.16 121.227 109.864 122.557 110.545C123.255 110.903 123.977 111.272 124.819 111.578C127.46 112.539 130.863 112.705 133.701 112.012C133.786 111.991 133.87 111.97 133.953 111.947C135.839 110.089 137.278 108.083 138.235 106.751C138.319 106.633 138.409 106.506 138.504 106.371C139.679 104.709 141.645 101.927 145.266 99.7228C145.37 99.6593 145.518 99.5457 145.674 99.4254C146.236 98.9924 146.817 98.545 147.25 98.8483C147.727 99.1858 147.492 100.061 146.924 101.458L146.914 101.483C145.553 104.821 144.869 106.497 143.515 109.019C141.87 112.082 139.822 115.894 140.884 119.547C141.778 122.62 144.498 124.535 146.039 125.403C147.996 126.503 149.814 126.748 150.498 126.841C164.959 128.803 174.117 128.758 174.208 128.757C175.897 128.745 177.333 128.739 178.573 128.739V128.74Z" fill="white"/>
<path d="M200.636 26.3401C203.021 29.5033 203.677 32.1935 203.854 34.0161C204.202 37.6163 202.787 38.9611 202.83 43.6109C202.869 47.763 204.015 48.576 204 51.1392C203.965 57.194 197.544 61.8075 194.933 63.6865C181.402 73.4224 159.886 65.5383 157.347 64.5722C157.347 64.5722 136.434 52.3203 146.964 36.8207C157.493 21.3212 152.521 23.0926 159.687 17.6309C166.853 12.1692 178.699 19.1071 186.304 17.6309C193.909 16.1548 200.636 26.3401 200.636 26.3401Z" fill="white"/>
<path d="M178.431 69.5C176.529 69.5 174.541 69.3775 172.468 69.1318C165.267 68.2788 159.295 66.1519 157.636 65.5204L157.587 65.4969C157.559 65.4807 154.78 63.84 151.783 61.0607C149.007 58.486 145.465 54.3752 144.356 49.4137C143.423 45.2371 144.325 41.094 147.038 37.0998C151.981 29.8205 153.487 26.4037 154.484 24.1428C155.593 21.6286 156.008 20.6878 159.907 17.7148C164.367 14.3145 170.463 15.5412 176.358 16.7273C180.203 17.501 183.835 18.2318 186.812 17.6537C190.043 17.0259 193.624 18.3754 197.168 21.5561C199.765 23.8873 201.426 26.3547 201.556 26.5496C203.484 29.1112 204.593 31.7637 204.851 34.4335C205.034 36.3268 204.741 37.6426 204.43 39.0357C204.136 40.3563 203.802 41.8534 203.823 44.1167C203.844 46.3837 204.199 47.6384 204.512 48.7454C204.766 49.6461 205.007 50.497 205 51.6962C204.964 57.9509 198.509 62.598 195.752 64.5823C191.206 67.8549 185.398 69.5 178.431 69.5ZM157.894 64.9088C160.37 65.8491 169.02 68.8548 178.348 68.8553C184.205 68.8556 190.327 67.6713 195.361 64.0479C198.045 62.116 204.308 57.6072 204.342 51.6922C204.348 50.5879 204.131 49.8184 203.879 48.9275C203.555 47.7801 203.187 46.4794 203.165 44.1227C203.144 41.7823 203.486 40.2455 203.788 38.8896C204.1 37.4919 204.369 36.2848 204.196 34.4979C203.95 31.9499 202.883 29.4083 201.026 26.9437L201.014 26.927C200.948 26.8264 194.281 16.8804 186.936 18.3061C183.833 18.9089 180.14 18.1656 176.23 17.3789C170.477 16.2212 164.527 15.0241 160.303 18.245C156.54 21.1147 156.173 21.9459 155.085 24.4131C154.079 26.6961 152.557 30.1462 147.58 37.4756C144.976 41.3111 144.107 45.2787 144.998 49.2676C147.007 58.2592 157.337 64.5747 157.894 64.9088Z" fill="#6E39CB"/>
<path d="M188.935 23.9485C192.938 23.8171 194.05 28.3188 197.905 28.9648C201.566 29.5785 204.889 26.242 205.992 25.1343C206.714 24.4094 210.412 20.6959 209.962 15.7967C209.54 11.1986 205.707 8.21235 202.316 5.56998C200.418 4.09153 199.491 3.31558 197.905 2.7539C193.887 1.33128 191.537 3.18895 185.406 3.93958C184.184 4.08928 179.486 4.60203 174.084 3.64322C167.237 2.42811 166.946 0.21389 162.614 0.530662C156.571 0.972605 152.469 5.62341 151.88 6.31106C150.151 8.32864 150.832 8.79657 148.792 11.6467C145.672 16.0064 143.984 15.3214 141.44 18.9093C140.975 19.5658 140.707 20.0463 137.323 28.965C136.154 32.0445 135.544 33.5842 135.411 34.0272C134.842 35.9244 133.285 41.1179 134.382 46.4772C135.986 54.3134 142.509 58.8027 145.704 61.0022C146.392 61.4757 149.643 62.8494 156.144 65.5968C157.503 66.1708 159.369 66.9377 160.115 66.1896C160.379 65.9239 160.583 65.3863 159.967 62.6325C159.526 60.6554 159.126 59.6152 158.791 58.4825C158.141 56.2869 157.341 53.5836 157.909 50.6271C158.353 48.311 159.171 48.2696 159.085 46.6253C158.973 44.4635 157.54 44.1365 156.291 41.1414C155.762 39.8721 154.512 36.8733 155.85 34.6199C155.99 34.3846 156.947 32.8294 158.644 32.6932C159.496 32.6248 160.625 32.9069 161.291 33.7307C162.256 34.9248 161.357 36.1535 162.467 38.029C162.642 38.3252 163.216 39.2935 163.791 39.2147C164.353 39.1375 164.618 38.0983 164.82 37.4361C165.793 34.2477 167.719 31.9508 169.084 30.3218C170.176 29.0188 170.89 28.1678 172.172 27.5058C174.319 26.3971 175.106 27.3442 178.789 26.7647C180.075 26.5623 179.721 26.4873 186.141 24.6897C187.892 24.1993 188.771 23.9538 188.935 23.9485Z" fill="#6E39CB"/>
<path d="M188 60.3876C187.356 60.5119 186.691 60.5302 186.034 60.4568C185.704 60.4239 185.378 60.3582 185.055 60.2797C184.733 60.1966 184.418 60.0858 184.107 59.9635C183.492 59.7043 182.907 59.3676 182.381 58.9518C181.853 58.5391 181.381 58.0518 181 57.5C181.497 57.9412 182.007 58.3476 182.549 58.7008C182.821 58.8747 183.095 59.0437 183.38 59.1907C183.663 59.3424 183.952 59.4811 184.248 59.6004C184.836 59.8477 185.45 60.0282 186.077 60.1557C186.706 60.2827 187.347 60.3502 188 60.3876Z" fill="#6E39CB"/>
<path d="M97.2552 129.612C94.0714 132.524 94.9837 133.587 91.7297 137.711C84.3965 147.006 76.0635 147.236 73.6061 154.583C73.2735 155.577 73.4014 156.074 72.9431 157.732C72.0119 161.102 70.6087 163.532 68.3017 167.18C65.7973 171.141 64.6382 172.726 63.8813 173.929C60.8444 178.756 62.1944 180.802 59.903 191.251C58.019 199.842 56.7905 200.694 57.0297 205.423C57.163 208.056 57.4655 212.767 60.7871 216.221C62.5326 218.037 64.5761 218.948 66.5336 219.82C69.5545 221.167 71.2068 221.212 74.2693 222.07C78.817 223.344 81.5929 225.045 83.3311 225.894C91.7269 229.999 104.311 228.138 132.176 227.694C140.364 227.563 142.756 227.668 146.985 226.569C158.004 223.704 164.888 216.977 167.097 214.646C169.798 211.799 173.454 207.855 175.496 201.374C176.175 199.221 177.729 194.087 176.601 187.877C175.938 184.223 173.286 179.667 167.981 170.555C166.566 168.123 165.511 166.419 163.561 162.906C162.145 160.356 160.707 157.766 159.141 154.583C154.843 145.851 155.836 145.374 153.615 142.885C151.32 140.313 150.604 141.208 144.111 136.586C140.056 133.7 140.38 133.382 136.597 130.738C132.006 127.528 128.376 125.792 125.988 124.664C119.151 121.433 116.642 121.455 115.6 121.514C113.991 121.606 112.59 122.101 109.853 123.089C105.141 124.79 100.827 126.346 97.2552 129.613V129.612Z" fill="white"/>
<path d="M100.756 229.5C93.0875 229.5 87.8286 228.925 83.591 226.853C83.2625 226.692 82.9076 226.507 82.4964 226.292C80.6992 225.354 78.2376 224.069 74.5594 223.038C73.5465 222.754 72.699 222.562 71.8793 222.376C70.2316 222.002 68.8086 221.68 66.7567 220.765C64.7553 219.872 62.6859 218.949 60.8903 217.081C57.4054 213.456 57.1519 208.444 57.03 206.035C56.8782 203.035 57.313 201.531 58.1022 198.801C58.5931 197.102 59.2043 194.988 59.9186 191.73C60.8199 187.618 61.153 184.845 61.4206 182.616C61.8227 179.267 62.0654 177.246 63.9516 174.247C64.2303 173.804 64.5658 173.306 64.9905 172.674C65.7496 171.546 66.789 170.001 68.3848 167.477C70.5536 164.045 72.0467 161.538 72.9998 158.088C73.2322 157.247 73.3097 156.718 73.378 156.251C73.4433 155.806 73.4995 155.421 73.6699 154.912C75.0105 150.903 78.0826 148.925 81.6398 146.634C84.8409 144.572 88.4688 142.235 91.8989 137.886C93.3594 136.035 93.9648 134.819 94.4989 133.747C95.1369 132.466 95.6879 131.359 97.4765 129.723C101.108 126.402 105.534 124.804 110.221 123.112C112.904 122.143 114.382 121.61 116.077 121.513C117.542 121.429 120.234 121.669 126.653 124.703C128.884 125.758 132.619 127.523 137.34 130.824C139.258 132.165 140.124 132.909 141.042 133.696C141.938 134.465 142.865 135.259 144.878 136.693C148.009 138.923 149.771 139.854 151.057 140.533C152.415 141.251 153.235 141.684 154.464 143.061C155.676 144.42 155.968 145.206 156.607 146.927C157.169 148.442 158.018 150.731 160.055 154.87C161.622 158.055 163.074 160.672 164.479 163.203C165.874 165.717 166.828 167.334 167.75 168.897C168.126 169.535 168.503 170.174 168.91 170.872C174.241 180.035 176.918 184.634 177.593 188.357C178.763 194.795 177.101 200.071 176.475 202.057C174.362 208.764 170.52 212.818 167.977 215.5C164.798 218.854 157.929 224.88 147.651 227.553C143.868 228.536 141.556 228.568 135.377 228.653C134.564 228.664 133.684 228.676 132.724 228.692C125.799 228.802 119.85 228.999 114.602 229.172C109.232 229.349 104.678 229.5 100.756 229.5ZM97.9212 130.215C96.2238 131.768 95.7233 132.772 95.0899 134.044C94.5414 135.146 93.9197 136.394 92.4167 138.3C88.918 142.736 85.2406 145.104 81.9961 147.194C78.4017 149.508 75.5626 151.337 74.2964 155.124C74.1449 155.577 74.0952 155.917 74.032 156.348C73.9643 156.81 73.8801 157.385 73.6366 158.266C72.6589 161.805 71.1433 164.352 68.9425 167.834C67.3417 170.366 66.2991 171.916 65.5378 173.047C65.1162 173.674 64.7832 174.168 64.51 174.603C62.7036 177.475 62.4809 179.329 62.0766 182.696C61.8072 184.939 61.4721 187.73 60.564 191.873C59.845 195.153 59.2304 197.279 58.7367 198.986C57.9425 201.734 57.5439 203.113 57.69 206.001C57.8078 208.329 58.0529 213.173 61.3654 216.619C63.0714 218.394 65.0811 219.29 67.0245 220.157C69.0172 221.046 70.4109 221.362 72.0245 221.727C72.8522 221.915 73.708 222.109 74.7368 222.397C78.4811 223.447 81.0808 224.804 82.8009 225.702C83.2078 225.915 83.5591 226.098 83.8798 226.255C90.1385 229.315 98.82 229.028 114.58 228.507C119.831 228.334 125.782 228.137 132.713 228.027C133.674 228.011 134.555 227.999 135.368 227.988C141.489 227.904 143.78 227.873 147.486 226.909C157.605 224.277 164.368 218.344 167.499 215.041C169.999 212.403 173.779 208.416 175.845 201.856C176.457 199.913 178.083 194.752 176.943 188.476C176.288 184.869 173.632 180.304 168.339 171.208C167.934 170.511 167.558 169.873 167.182 169.236C166.257 167.67 165.302 166.049 163.903 163.53C162.494 160.99 161.037 158.365 159.463 155.165C157.411 150.996 156.555 148.688 155.988 147.16C155.361 145.471 155.101 144.771 153.972 143.506C152.823 142.218 152.087 141.829 150.75 141.122C149.447 140.434 147.663 139.491 144.496 137.236C142.459 135.785 141.521 134.98 140.613 134.202C139.709 133.426 138.854 132.693 136.963 131.371C132.287 128.101 128.584 126.351 126.372 125.306C119.363 121.992 116.918 122.132 116.114 122.177C114.58 122.265 113.267 122.719 110.444 123.738C105.821 125.407 101.455 126.983 97.9212 130.215Z" fill="#6E39CB"/>
<path d="M118.897 163.496C122.254 164.287 125.289 165.557 128 167.307L126.566 173.505L123.712 172.851C123.597 170.991 123.101 169.502 122.227 168.385C121.352 167.268 120.047 166.48 118.312 166.021L115.118 179.824C117.511 181.723 119.263 183.334 120.374 184.656C121.484 185.979 122.25 187.343 122.674 188.75C123.097 190.156 123.114 191.701 122.724 193.385C122.003 196.503 120.572 198.708 118.432 200C116.291 201.292 113.48 201.68 109.998 201.163L108.763 206.5L105.766 205.812L106.988 200.532C105.287 200.102 103.513 199.484 101.666 198.677C99.8192 197.871 98.2638 197.05 97 196.216L98.4609 189.903L101.343 190.565C101.348 192.641 101.836 194.269 102.808 195.449C103.779 196.629 105.36 197.51 107.552 198.093L110.992 183.229L110.351 182.719C108.113 180.937 106.494 179.452 105.494 178.266C104.494 177.08 103.797 175.847 103.406 174.568C103.014 173.29 102.993 171.895 103.342 170.383C103.679 168.93 104.249 167.69 105.052 166.666C105.856 165.642 106.819 164.825 107.941 164.216C109.063 163.608 110.305 163.202 111.667 163.001C113.029 162.8 114.426 162.793 115.86 162.981L117.128 157.5L120.126 158.188L118.897 163.496ZM112.387 177.989L115.295 165.42C113.594 165.251 112.119 165.573 110.869 166.384C109.619 167.195 108.815 168.375 108.456 169.925C108.097 171.474 108.227 172.859 108.845 174.079C109.463 175.298 110.644 176.602 112.387 177.989ZM113.73 185.035L110.569 198.695C112.4 198.914 113.923 198.583 115.139 197.703C116.354 196.824 117.176 195.456 117.606 193.6C117.986 191.955 117.865 190.467 117.243 189.135C116.62 187.804 115.449 186.437 113.73 185.035Z" fill="#854CEA"/>
<path d="M116.771 125.5C114.146 125.5 111.592 124.793 109.798 123.828C108.214 122.977 107.258 121.972 107.108 120.998C107.026 120.466 107.206 120.063 107.366 119.707C107.544 119.308 107.697 118.963 107.556 118.41C107.304 117.425 106.133 116.644 103.722 115.111C102.382 114.259 101.836 113.972 101.51 113.801C101.23 113.655 101.102 113.588 100.813 113.335C98.819 111.597 97.7365 108.829 98.0551 106.284C98.0731 106.138 98.5161 102.705 100.106 102.509C100.926 102.409 101.347 103.17 101.878 104.135C102.436 105.146 103.129 106.404 104.531 107.368C106.349 108.617 108.474 108.722 112.727 108.826L113.182 108.837C114.427 108.867 115.145 108.828 115.723 108.796C116.415 108.759 116.915 108.731 117.849 108.839C120.034 109.092 121.406 109.786 122.732 110.457C123.429 110.81 124.149 111.174 124.988 111.476C127.623 112.423 131.018 112.587 133.848 111.903C133.961 111.875 134.071 111.848 134.18 111.817C134.494 111.734 134.785 111.648 135.066 111.565C136.309 111.197 137.289 110.906 138.102 111.524C139.04 112.239 139.293 113.933 138.623 115.009C138.112 115.83 137.232 116.029 136.015 116.305C135.8 116.354 135.572 116.405 135.331 116.464C134.274 116.72 133.229 117.117 132.219 117.501C131.587 117.741 130.933 117.989 130.277 118.203C127.872 118.988 126.758 120.201 125.578 121.485C124.578 122.573 123.545 123.697 121.699 124.52C120.147 125.212 118.444 125.5 116.771 125.5ZM100.232 103.152C100.217 103.152 100.202 103.153 100.187 103.155C99.509 103.238 98.8913 104.886 98.7083 106.364C98.4157 108.702 99.4127 111.246 101.248 112.847C101.48 113.049 101.552 113.086 101.818 113.226C102.154 113.402 102.715 113.696 104.078 114.564C106.521 116.117 107.867 116.973 108.194 118.25C108.392 119.021 108.157 119.547 107.968 119.97C107.822 120.297 107.706 120.556 107.759 120.9C107.874 121.645 108.754 122.526 110.113 123.257C112.912 124.761 117.647 125.613 121.428 123.927C123.149 123.159 124.092 122.133 125.09 121.047C126.275 119.757 127.501 118.423 130.07 117.585C130.712 117.376 131.358 117.13 131.983 116.893C133.012 116.501 134.077 116.097 135.174 115.831C135.419 115.772 135.65 115.72 135.867 115.67C137.007 115.412 137.695 115.256 138.062 114.667C138.554 113.877 138.371 112.551 137.7 112.039C137.155 111.625 136.358 111.861 135.255 112.188C134.969 112.273 134.673 112.36 134.355 112.445C134.243 112.476 134.126 112.505 134.005 112.535C131.054 113.248 127.513 113.076 124.763 112.087C123.885 111.772 123.147 111.398 122.432 111.037C121.099 110.362 119.839 109.725 117.772 109.486C116.895 109.384 116.418 109.41 115.759 109.446C115.17 109.478 114.437 109.519 113.165 109.488L112.709 109.476C108.324 109.369 106.128 109.258 104.155 107.902C102.625 106.851 101.859 105.461 101.3 104.446C100.849 103.628 100.57 103.152 100.232 103.152Z" fill="#6E39CB"/>
<path d="M279.743 27.6519C282.354 28.2247 283.667 28.9463 282.662 29.2554L280.557 32.9646C279.644 34.5724 278.679 36.7706 277.79 39.7712C277.669 40.1781 277.549 40.5993 277.431 41.0375L277.017 42.5713C276.604 44.5809 275.46 45.8584 274.474 45.4105C273.489 44.9625 271.474 44.0466 269.997 43.3752C268.521 42.7038 266.954 41.9915 266.517 41.7924C266.079 41.5932 265.88 41.018 266.075 40.514L266.512 38.9546C266.825 37.8391 267.18 36.3922 267.477 34.7162C267.608 33.9848 267.727 33.2094 267.826 32.3985L268.1 30.1718C268.067 27.3735 268.932 25.2795 270.021 25.5186C271.111 25.7577 272.676 26.1011 273.499 26.2819C274.323 26.4627 277.132 27.0791 279.743 27.6519Z" fill="white"/>
<path d="M275.388 46.5C275.203 46.5 275.02 46.4603 274.844 46.3806L270.273 44.3109C268.765 43.6279 267.166 42.9036 266.719 42.7011C266.119 42.4293 265.841 41.6655 266.093 40.9921L266.536 39.4209C266.926 38.0318 267.255 36.5924 267.514 35.1432C267.652 34.3752 267.77 33.5886 267.866 32.8044L268.143 30.5624C268.122 28.3714 268.639 26.5086 269.464 25.8124C269.778 25.5468 270.135 25.4476 270.494 25.5262L280.42 27.6957C282.772 28.2098 283.977 28.7684 284 29.3561C284.007 29.5339 283.93 29.7685 283.55 29.9221L281.461 33.5887C280.411 35.4311 279.471 37.7362 278.666 40.4402C278.541 40.8589 278.418 41.2893 278.301 41.72L277.882 43.2697C277.58 44.7232 276.889 45.891 276.078 46.3188C275.849 46.4393 275.616 46.5 275.388 46.5ZM270.256 26.1612C270.127 26.1612 270 26.2149 269.871 26.3235C269.312 26.7956 268.759 28.2942 268.786 30.5774V30.6004L268.504 32.8875C268.406 33.6839 268.285 34.4831 268.145 35.2629C267.883 36.7335 267.549 38.1945 267.153 39.605L266.695 41.2213C266.562 41.5658 266.691 41.9665 266.978 42.0965C267.425 42.299 269.024 43.0234 270.532 43.7061L275.103 45.7758C275.316 45.8725 275.546 45.8573 275.785 45.7309C276.421 45.3956 276.998 44.3718 277.257 43.1224L277.261 43.1026L277.683 41.5428C277.801 41.1065 277.926 40.6705 278.052 40.2465C278.871 37.4937 279.832 35.1412 280.907 33.2546L283.121 29.3702L283.242 29.3331C283.245 29.3324 283.247 29.3316 283.249 29.3308C282.959 29.1311 282.129 28.7452 280.287 28.3426L270.36 26.173C270.326 26.1653 270.291 26.1612 270.256 26.1612Z" fill="#6E39CB"/>
<path d="M282.641 34.2826C283.639 34.8885 282.484 36.1713 280.076 37.1334L277.569 39.142L277.271 39.3819C276.941 39.6581 275.905 39.3198 274.969 38.63L273.727 38.41C270.933 37.9163 268.174 39.6753 266.802 41.5047C266.151 42.3708 265.812 43.2524 265.925 43.9196C266.006 44.3908 266.306 44.6531 266.467 45.649C266.668 46.8875 266.361 47.3544 266.576 48.1344L266.709 48.614C267.03 49.005 266.473 50.2999 265.472 51.4915C264.47 52.6831 262.984 52.8419 262.171 51.8441C261.357 50.8465 259.27 48.288 257.533 46.1589C255.797 44.0297 254.219 42.0959 254.028 41.8616C253.837 41.6273 254.631 41.0599 255.792 40.6005C256.953 40.1412 261.225 38.6689 263.08 38.7133L265.98 38.3324C267.565 38.1237 271.208 37.6455 271.343 36.4649C271.391 36.0417 270.974 35.6496 270.693 35.3844C269.869 34.61 268.934 34.6283 267.876 34.3942C267.527 34.3166 267.229 34.2277 266.972 34.1304L266.48 33.9428C266.128 33.7139 266.301 33.0176 266.864 32.3953L267.33 31.8325C269.286 29.4628 270.7 27.1538 271.622 25.4427L272.537 23.7458C272.775 23.1352 273.432 23.7021 273.997 25.0054L274.699 26.0944C276.332 28.6292 278.521 30.7944 280.413 32.3939L282.641 34.2826Z" fill="white"/>
<path d="M263.984 53.4997C263.978 53.4997 263.973 53.4997 263.967 53.4997C263.327 53.495 262.75 53.2166 262.341 52.7158L254.102 42.6133C254.009 42.4992 253.978 42.3488 254.016 42.2006C254.173 41.6004 255.589 40.9985 256.019 40.8284C257.343 40.3047 261.509 38.8945 263.435 38.8945C263.456 38.8945 263.477 38.8947 263.497 38.8951L266.407 38.5129C267.201 38.4083 268.518 38.2348 269.636 37.9432C271.308 37.5068 271.533 37.0746 271.552 36.909C271.582 36.6439 271.215 36.2981 270.996 36.0915C270.417 35.5471 269.763 35.434 269.006 35.3032C268.778 35.2638 268.542 35.223 268.297 35.1689C267.942 35.0901 267.628 34.9984 267.338 34.8886L266.806 34.6859L266.777 34.6669C266.598 34.5501 266.482 34.3592 266.452 34.129C266.395 33.6915 266.636 33.126 267.097 32.615L267.563 32.051C269.589 29.5977 271.024 27.2091 271.871 25.6375L272.789 23.9364C272.948 23.5498 273.237 23.5023 273.356 23.5C273.359 23.5 273.363 23.5 273.367 23.5C274.011 23.5 274.569 24.549 274.852 25.1955L275.548 26.2753C276.924 28.4123 278.848 30.5328 281.267 32.578L283.503 34.4741C283.852 34.6948 284.027 35.0137 283.997 35.3745C283.927 36.2026 282.764 37.1478 280.881 37.9075L278.081 40.1523C277.545 40.6005 276.337 40.1075 275.415 39.4454L274.232 39.236C271.544 38.7611 268.88 40.461 267.544 42.2421C266.922 43.0696 266.621 43.8694 266.717 44.4364C266.743 44.5891 266.802 44.7248 266.877 44.8969C267.004 45.1865 267.162 45.5469 267.266 46.1887C267.375 46.8614 267.343 47.3324 267.318 47.7109C267.294 48.059 267.276 48.3339 267.368 48.6696L267.487 49.1C267.912 49.7725 267.126 51.2449 266.186 52.3628C265.578 53.0862 264.776 53.4997 263.984 53.4997ZM254.696 42.309L262.849 52.3043C263.136 52.6564 263.524 52.8444 263.972 52.8476C264.571 52.8523 265.198 52.5226 265.685 51.9437C266.763 50.6613 267.049 49.6125 266.934 49.4472L266.89 49.3939L266.738 48.8426C266.616 48.4002 266.64 48.044 266.665 47.6669C266.689 47.3036 266.717 46.8918 266.62 46.2924C266.529 45.7317 266.395 45.4264 266.278 45.1571C266.192 44.9614 266.111 44.7766 266.072 44.5451C265.944 43.7914 266.281 42.8348 267.02 41.851C268.472 39.9152 271.384 38.0701 274.347 38.5935L275.679 38.8296L275.741 38.8751C276.712 39.5911 277.531 39.7412 277.666 39.6477L280.548 37.3382L280.593 37.3201C282.349 36.6186 283.306 35.783 283.345 35.32C283.349 35.269 283.359 35.1496 283.14 35.0163L283.098 34.9863L280.844 33.0749C278.376 30.9881 276.409 28.8188 274.998 26.6276L274.263 25.4788C273.864 24.5596 273.528 24.242 273.401 24.1688C273.398 24.1756 273.394 24.1834 273.391 24.1924L273.374 24.2291L272.448 25.9464C271.587 27.5436 270.128 29.9713 268.069 32.4657L267.588 33.0466C267.218 33.4557 267.076 33.8511 267.101 34.0453C267.106 34.0789 267.114 34.0974 267.121 34.108L267.571 34.2794C267.831 34.3776 268.116 34.4605 268.44 34.5325C268.669 34.5834 268.898 34.6228 269.118 34.661C269.944 34.8037 270.723 34.9384 271.444 35.6158C271.774 35.927 272.27 36.3941 272.203 36.9832C272.056 38.2543 269.376 38.7799 266.5 39.1586L263.533 39.5483L263.508 39.5478C261.751 39.5039 257.519 40.9368 256.261 41.4349C255.381 41.783 254.861 42.1361 254.697 42.3094L254.696 42.309Z" fill="#6E39CB"/>
<path d="M270.996 36.1691C270.865 37.3443 267.358 37.8203 265.832 38.0281C263.039 38.4072 260.882 38.7008 259.79 38.3272C259.457 38.2135 259.222 38.0379 259.101 37.7823C258.383 36.2813 261.631 32.2472 264.214 32.5125C264.866 32.5798 265.203 32.8944 265.697 33.244C265.979 33.4462 266.313 33.6583 266.787 33.8449C267.035 33.9418 267.321 34.0303 267.657 34.1075C268.676 34.3406 269.577 34.3223 270.37 35.0932C270.641 35.3572 271.043 35.7478 270.996 36.1691Z" fill="white"/>
<path d="M261.575 39.4997C260.952 39.4997 260.437 39.4407 260.033 39.2992C259.597 39.1472 259.295 38.8961 259.136 38.5529C258.814 37.8637 259.07 36.7962 259.84 35.6251C260.913 33.9928 262.898 32.3236 264.721 32.515C265.381 32.5848 265.775 32.879 266.192 33.1904C266.258 33.2403 266.327 33.2916 266.399 33.3436C266.655 33.5318 266.98 33.7486 267.454 33.9399C267.709 34.0417 267.988 34.1277 268.306 34.2025C268.531 34.2552 268.755 34.296 268.971 34.3356C269.78 34.4835 270.544 34.6232 271.25 35.3254C271.574 35.6476 272.06 36.1319 271.994 36.7427C271.851 38.0597 269.224 38.6049 266.406 38.9976L266.389 38.9999C264.407 39.2752 262.789 39.4997 261.575 39.4997ZM264.432 33.1758C262.985 33.1758 261.317 34.5642 260.367 36.01C259.762 36.9307 259.504 37.8119 259.711 38.2548C259.793 38.4319 259.964 38.5633 260.234 38.6575C261.288 39.0264 263.502 38.7187 266.306 38.3294L266.364 38.6621L266.322 38.327C267.093 38.2195 268.384 38.0396 269.479 37.7374C271.118 37.2849 271.338 36.837 271.357 36.6655C271.386 36.3902 271.026 36.032 270.812 35.818C270.245 35.2538 269.604 35.1366 268.862 35.001C268.638 34.9602 268.407 34.9179 268.167 34.8618C267.818 34.7799 267.511 34.6848 267.226 34.5711C266.687 34.3536 266.321 34.1095 266.035 33.8992C265.962 33.8465 265.89 33.7933 265.821 33.7415C265.431 33.4499 265.149 33.2391 264.658 33.1872C264.583 33.1794 264.508 33.1758 264.432 33.1758Z" fill="#6E39CB"/>
<path d="M278 41.4402C277.954 42.2307 277.608 46.8362 274.007 49.1673C273.335 49.6012 271.001 51.1129 268.828 50.2258C268.698 50.1733 267.974 49.8665 267.384 49.2751C267.074 48.9655 266.802 48.5787 266.67 48.1088C266.455 47.3446 266.761 46.8873 266.561 45.6741C266.4 44.6985 266.102 44.4415 266.021 43.9799C265.909 43.3263 266.247 42.4626 266.895 41.6142C268.262 39.822 271.009 38.0989 273.792 38.5826C275.029 38.7981 276.006 39.4033 276.724 40.0266C276.918 40.1938 277.094 40.3651 277.25 40.5296C277.594 40.8889 277.844 41.2192 278 41.4402Z" fill="white"/>
<path d="M270.71 51.5C270.147 51.5 269.613 51.3972 269.11 51.1916C268.896 51.1049 268.146 50.7716 267.517 50.1406C267.111 49.7351 266.836 49.2838 266.7 48.7996C266.577 48.3589 266.601 48.0042 266.627 47.6286C266.651 47.2666 266.679 46.8563 266.581 46.2592C266.489 45.7006 266.354 45.3965 266.235 45.1282C266.149 44.9333 266.067 44.7492 266.027 44.5186C265.898 43.7678 266.238 42.8148 266.986 41.8347C268.454 39.9064 271.4 38.0686 274.396 38.5896C275.541 38.7893 276.609 39.3151 277.571 40.1524C277.76 40.3151 277.95 40.4968 278.135 40.6916C278.421 40.9911 278.69 41.3189 278.935 41.6651L279 41.7571L278.993 41.869C278.915 43.1977 278.378 47.7164 274.742 50.0733C273.272 51.0234 271.923 51.5 270.71 51.5ZM273.339 39.1488C270.955 39.1488 268.71 40.6551 267.515 42.2241C266.886 43.0486 266.582 43.8451 266.679 44.4099C266.705 44.5621 266.765 44.6975 266.841 44.8688C266.969 45.1573 267.129 45.5164 267.234 46.1557C267.344 46.8259 267.312 47.2952 267.287 47.6721C267.263 48.0189 267.244 48.2928 267.338 48.6271C267.444 49.0033 267.663 49.3596 267.989 49.6857C268.544 50.2428 269.231 50.5379 269.363 50.5914C270.735 51.1524 272.421 50.7964 274.374 49.5336C277.662 47.4023 278.229 43.321 278.325 41.9438C278.117 41.6574 277.891 41.3859 277.651 41.1354C277.481 40.9558 277.307 40.7893 277.133 40.6397C276.262 39.8819 275.303 39.4077 274.28 39.2293C273.965 39.1746 273.651 39.1488 273.339 39.1488Z" fill="#6E39CB"/>
<path d="M99.0468 118.641C100.774 116.921 102.225 116.536 103.229 116.503C105.786 116.416 106.742 118.556 110.272 118.855C112.081 119.008 112.29 118.485 113.794 118.855C115.818 119.352 118.268 120.994 117.976 122.491C117.804 123.371 116.487 123.339 114.075 124.651C111.991 125.785 111.796 126.437 110.052 127.623C108.168 128.905 104.548 131.368 101.248 130.189C98.9268 129.36 97.3903 126.955 97.0658 124.629C96.6008 121.296 98.7417 118.963 99.0468 118.641Z" fill="white"/>
<path d="M103.535 131.5C102.869 131.5 102.197 131.397 101.533 131.158C98.8873 130.205 97.3847 127.479 97.0693 125.199C96.5906 121.738 98.7328 119.26 99.167 118.799L99.1734 118.792C100.634 117.325 102.14 116.554 103.649 116.503C105.01 116.456 105.956 116.992 106.958 117.56C108.001 118.152 109.08 118.763 110.845 118.914C111.644 118.982 112.124 118.912 112.547 118.851C113.078 118.774 113.58 118.701 114.475 118.923C116.537 119.434 119.324 121.189 118.969 123.025C118.831 123.74 118.189 123.993 117.217 124.376C116.59 124.624 115.809 124.932 114.842 125.462C113.629 126.127 113.081 126.61 112.447 127.169C111.996 127.567 111.53 127.978 110.783 128.49C109.158 129.605 106.396 131.5 103.535 131.5ZM99.6542 119.245C99.2484 119.677 97.2926 121.948 97.7301 125.111C98.0187 127.197 99.3776 129.686 101.763 130.545C104.952 131.694 108.496 129.262 110.4 127.955C111.114 127.466 111.565 127.068 112.001 126.684C112.637 126.123 113.238 125.593 114.516 124.892C115.52 124.341 116.357 124.011 116.968 123.77C117.875 123.412 118.246 123.253 118.314 122.903C118.555 121.658 116.321 120.054 114.312 119.556C113.546 119.367 113.148 119.424 112.644 119.498C112.185 119.564 111.665 119.64 110.787 119.565C108.874 119.402 107.679 118.724 106.624 118.126C105.668 117.584 104.844 117.118 103.672 117.156C102.342 117.201 100.99 117.904 99.6542 119.245Z" fill="#6E39CB"/>
<path d="M126.754 122.978C127.323 120.005 126.789 119.078 126.323 118.744C124.444 117.397 118.502 121.989 119.033 123.617C119.244 124.263 120.452 124.375 121.471 124.469C124.032 124.706 125.988 123.51 126.754 122.978Z" fill="white"/>
<path d="M122.607 125.5C122.368 125.5 122.123 125.489 121.874 125.466C120.686 125.355 119.34 125.229 119.053 124.341C118.636 123.05 120.79 121.188 121.46 120.649C123.398 119.087 125.91 117.914 127.152 118.812C128.036 119.452 128.227 121.026 127.734 123.624L127.708 123.761L127.598 123.838C126.482 124.621 124.752 125.5 122.607 125.5ZM126.068 119.172C125.037 119.172 123.406 119.924 121.843 121.182C120.224 122.486 119.506 123.671 119.652 124.124C119.806 124.6 121.084 124.719 121.929 124.798C124.159 125.006 125.976 124.147 127.138 123.355C127.527 121.222 127.406 119.808 126.795 119.365C126.613 119.234 126.365 119.172 126.068 119.172Z" fill="#6E39CB"/>
<path d="M274 191.5C272.897 191.5 272 190.603 272 189.5C272 188.397 272.897 187.5 274 187.5C275.103 187.5 276 188.397 276 189.5C276 190.603 275.103 191.5 274 191.5ZM274 187.98C273.162 187.98 272.48 188.662 272.48 189.5C272.48 190.338 273.162 191.02 274 191.02C274.838 191.02 275.52 190.338 275.52 189.5C275.52 188.662 274.838 187.98 274 187.98Z" fill="#6E39CB"/>
<path d="M342 19.5C340.897 19.5 340 18.6028 340 17.5C340 16.3972 340.897 15.5 342 15.5C343.103 15.5 344 16.3972 344 17.5C344 18.6028 343.103 19.5 342 19.5ZM342 15.9799C341.162 15.9799 340.48 16.6618 340.48 17.5C340.48 18.3382 341.162 19.0201 342 19.0201C342.838 19.0201 343.52 18.3382 343.52 17.5C343.52 16.6618 342.838 15.9799 342 15.9799Z" fill="#6E39CB"/>
<path d="M89 38.5C87.8972 38.5 87 37.6028 87 36.5C87 35.3972 87.8972 34.5 89 34.5C90.1028 34.5 91 35.3972 91 36.5C91 37.6028 90.1028 38.5 89 38.5ZM89 34.9799C88.1618 34.9799 87.4799 35.6618 87.4799 36.5C87.4799 37.3382 88.1618 38.0201 89 38.0201C89.8382 38.0201 90.5201 37.3382 90.5201 36.5C90.5201 35.6618 89.8382 34.9799 89 34.9799Z" fill="#6E39CB"/>
<path d="M62.4978 136.959C62.774 135.014 63.226 135.014 63.5022 136.959C63.7784 138.904 65.5959 140.722 67.5411 140.998C69.4863 141.274 69.4863 141.726 67.5411 142.002C65.5959 142.278 63.7784 144.096 63.5022 146.041C63.226 147.986 62.774 147.986 62.4978 146.041C62.2216 144.096 60.4041 142.278 58.4589 142.002C56.5137 141.726 56.5137 141.274 58.4589 140.998C60.4041 140.722 62.2216 138.904 62.4978 136.959Z" fill="#6E39CB"/>
<path d="M366.498 25.9589C366.774 24.0137 367.226 24.0137 367.502 25.9589C367.778 27.9041 369.596 29.7216 371.541 29.9978C373.486 30.274 373.486 30.726 371.541 31.0022C369.596 31.2784 367.778 33.0959 367.502 35.0411C367.226 36.9863 366.774 36.9863 366.498 35.0411C366.222 33.0959 364.404 31.2784 362.459 31.0022C360.514 30.726 360.514 30.274 362.459 29.9978C364.404 29.7216 366.222 27.9041 366.498 25.9589Z" fill="#6E39CB"/>
<path d="M410 228.5H0V230.5H410V228.5Z" fill="#6E39CB"/>
</g>
</g>
<defs>
<clipPath id="clip0_308_570">
<rect width="410" height="230" fill="white" transform="translate(0 0.5)"/>
</clipPath>
</defs>
</svg>
