<svg width="410" height="271" viewBox="0 0 410 271" fill="none" xmlns="http://www.w3.org/2000/svg">
<g clip-path="url(#clip0_308_626)">
<mask id="mask0_308_626" style="mask-type:luminance" maskUnits="userSpaceOnUse" x="0" y="0" width="410" height="271">
<path d="M410 0.5H0V270.5H410V0.5Z" fill="white"/>
</mask>
<g mask="url(#mask0_308_626)">
<path d="M410 268.5H0V270.5H410V268.5Z" fill="#6E39CB"/>
<path d="M299.287 28.5H73.7124C64.5206 28.5 57 36.0479 57 45.2732V222.727C57 231.952 64.5206 239.5 73.7124 239.5H299.288C308.479 239.5 316 231.952 316 222.727V45.2734C316 36.0481 308.479 28.5001 299.288 28.5001L299.287 28.5ZM308.007 215.521C308.007 224.746 300.487 232.294 291.295 232.294H80.4848C71.293 232.294 63.7725 224.746 63.7725 215.521V52.2742C63.7725 43.049 71.293 35.501 80.4848 35.501H291.295C300.487 35.501 308.007 43.049 308.007 52.2742V215.521Z" fill="white"/>
<path d="M298.607 239.5H73.3934C63.8027 239.5 56 231.672 56 222.05V44.9498C56 35.328 63.8026 27.5 73.3934 27.5H298.607C308.197 27.5 316 35.328 316 44.9498V222.05C316 231.672 308.197 239.5 298.607 239.5ZM73.3934 28.92C64.583 28.92 57.4154 36.111 57.4154 44.9498V222.05C57.4154 230.889 64.583 238.08 73.3934 238.08H298.607C307.417 238.08 314.585 230.889 314.585 222.05V44.9498C314.585 36.1108 307.417 28.92 298.607 28.92H73.3934ZM290.627 232.309H80.155C70.5643 232.309 62.7617 224.481 62.7617 214.859V51.9366C62.7617 42.3148 70.5643 34.4868 80.155 34.4868H290.627C300.217 34.4868 308.02 42.3148 308.02 51.9366V214.859C308.02 224.481 300.217 232.309 290.627 232.309ZM80.155 35.9068C71.3448 35.9068 64.1771 43.0978 64.1771 51.9366V214.859C64.1771 223.698 71.3448 230.889 80.155 230.889H290.627C299.437 230.889 306.605 223.698 306.605 214.859V51.9366C306.605 43.0976 299.437 35.9068 290.627 35.9068H80.155Z" fill="#854CEA"/>
<path d="M291.304 35.5H80.6963C71.4752 35.5 64 42.9794 64 52.2056V214.794C64 224.021 71.4752 231.5 80.6963 231.5H291.304C300.525 231.5 308 224.021 308 214.794V52.2056C308 42.9794 300.525 35.5 291.304 35.5Z" fill="white"/>
<path d="M290.625 231.5H80.3749C70.7944 231.5 63 223.704 63 214.122V51.8773C63 42.2955 70.7944 34.5 80.3749 34.5H290.625C300.206 34.5 308 42.2955 308 51.8773V214.123C308 223.705 300.206 231.5 290.625 231.5ZM80.3749 35.9141C71.574 35.9141 64.4139 43.0752 64.4139 51.8773V214.123C64.4139 222.925 71.574 230.086 80.3749 230.086H290.625C299.426 230.086 306.586 222.925 306.586 214.123V51.8773C306.586 43.075 299.426 35.9141 290.625 35.9141H80.3749Z" fill="#854CEA"/>
<path d="M291.304 35.5H80.6963C71.4752 35.5 64 42.9794 64 52.2056V214.794C64 224.021 71.4752 231.5 80.6963 231.5H291.304C300.525 231.5 308 224.021 308 214.794V52.2056C308 42.9794 300.525 35.5 291.304 35.5Z" fill="white"/>
<path d="M290.625 231.5H80.3749C70.7944 231.5 63 223.704 63 214.122V51.8773C63 42.2955 70.7944 34.5 80.3749 34.5H290.625C300.206 34.5 308 42.2955 308 51.8773V214.123C308 223.705 300.206 231.5 290.625 231.5ZM80.3749 35.9141C71.574 35.9141 64.4139 43.0752 64.4139 51.8773V214.123C64.4139 222.925 71.574 230.086 80.3749 230.086H290.625C299.426 230.086 306.586 222.925 306.586 214.123V51.8773C306.586 43.075 299.426 35.9141 290.625 35.9141H80.3749Z" fill="#854CEA"/>
<path d="M197.863 53.5H83.1372C81.4046 53.5 80 54.9126 80 56.6551V87.3449C80 89.0874 81.4046 90.5 83.1372 90.5H197.863C199.595 90.5 201 89.0874 201 87.3449V56.6551C201 54.9126 199.595 53.5 197.863 53.5Z" fill="white"/>
<path d="M197.163 90.5H82.8368C80.7212 90.5 79 88.7826 79 86.6716V56.3284C79 54.2174 80.7212 52.5 82.8368 52.5H197.163C199.279 52.5 201 54.2174 201 56.3284V86.6716C201 88.7826 199.279 90.5 197.163 90.5ZM82.8368 53.9179C81.5047 53.9179 80.4211 54.9993 80.4211 56.3284V86.6716C80.4211 88.0007 81.5047 89.0821 82.8368 89.0821H197.163C198.495 89.0821 199.579 88.0007 199.579 86.6716V56.3284C199.579 54.9993 198.495 53.9179 197.163 53.9179H82.8368Z" fill="#854CEA"/>
<path d="M198.302 101.5H138.698C137.76 101.5 137 102.303 137 103.294V115.706C137 116.697 137.76 117.5 138.698 117.5H198.302C199.24 117.5 200 116.697 200 115.706V103.294C200 102.303 199.24 101.5 198.302 101.5Z" fill="white"/>
<path d="M197.61 117.5H138.39C137.072 117.5 136 116.392 136 115.03V102.97C136 101.608 137.072 100.5 138.39 100.5H197.61C198.928 100.5 200 101.608 200 102.97V115.03C200 116.392 198.928 117.5 197.61 117.5ZM138.39 101.953C137.847 101.953 137.406 102.409 137.406 102.97V115.03C137.406 115.591 137.847 116.047 138.39 116.047H197.61C198.153 116.047 198.594 115.591 198.594 115.03V102.97C198.594 102.409 198.153 101.953 197.61 101.953H138.39Z" fill="#854CEA"/>
<path d="M222 238.5V256.095C222 257.418 220.426 258.5 218.502 258.5H143.498C141.574 258.5 140 257.418 140 256.095V238.5H222Z" fill="white"/>
<path d="M217.815 258.5H143.185C140.839 258.5 139 257.15 139 255.427V237.5H222V255.427C222 257.15 220.162 258.5 217.815 258.5ZM140.409 238.941V255.427C140.409 256.199 141.549 257.058 143.185 257.058H217.815C219.451 257.058 220.591 256.199 220.591 255.427V238.941H140.409Z" fill="#854CEA"/>
<path d="M123.298 101.5H81.7022C80.7621 101.5 80 102.303 80 103.294V115.706C80 116.697 80.7621 117.5 81.7022 117.5H123.298C124.238 117.5 125 116.697 125 115.706V103.294C125 102.303 124.238 101.5 123.298 101.5Z" fill="white"/>
<path d="M122.61 117.5H81.3897C80.072 117.5 79 116.392 79 115.03V102.97C79 101.608 80.072 100.5 81.3897 100.5H122.61C123.928 100.5 125 101.608 125 102.97V115.03C125 116.392 123.928 117.5 122.61 117.5ZM81.3897 101.953C80.8471 101.953 80.4057 102.409 80.4057 102.97V115.03C80.4057 115.591 80.8471 116.047 81.3897 116.047H122.61C123.153 116.047 123.594 115.591 123.594 115.03V102.97C123.594 102.409 123.153 101.953 122.61 101.953H81.3897Z" fill="#854CEA"/>
<path d="M109.616 76.829C109.616 76.022 109.338 75.3422 108.784 74.7895C108.23 74.2369 107.295 73.7368 105.981 73.2895C104.15 72.7194 102.816 71.9759 101.979 71.0593C101.141 70.1427 100.722 68.9782 100.722 67.5658C100.722 66.1273 101.132 64.9473 101.953 64.0263C102.773 63.1052 103.901 62.5571 105.336 62.3816V59.5H107.257V62.3948C108.7 62.5967 109.824 63.2151 110.627 64.2501C111.431 65.2852 111.832 66.7019 111.832 68.5001H109.461C109.461 67.2594 109.173 66.2738 108.597 65.5432C108.021 64.8128 107.244 64.4475 106.264 64.4475C105.241 64.4475 104.46 64.7178 103.918 65.2581C103.377 65.7986 103.106 66.552 103.106 67.5187C103.106 68.4152 103.392 69.1292 103.964 69.6608C104.535 70.1925 105.476 70.6758 106.786 71.1108C108.097 71.5459 109.119 72.0243 109.854 72.546C110.589 73.068 111.13 73.6756 111.478 74.3684C111.826 75.0614 112 75.873 112 76.8025C112 78.2851 111.564 79.4782 110.692 80.3816C109.82 81.285 108.597 81.82 107.025 81.9868V84.5H105.117V81.9868C103.519 81.8375 102.266 81.2565 101.36 80.2435C100.453 79.2302 100 77.8554 100 76.1184H102.384C102.384 77.3377 102.698 78.2763 103.325 78.9341C103.953 79.592 104.842 79.921 105.994 79.921C107.119 79.921 108.004 79.6448 108.649 79.0921C109.293 78.5396 109.616 77.7851 109.616 76.829Z" fill="#854CEA"/>
<path d="M178.044 196.5C177.692 196.5 177.338 196.399 177.028 196.19L120.75 158.322L106.497 168.783L105 166.719L119.651 155.965C120.271 155.511 121.115 155.493 121.753 155.922L177.894 193.699L249.995 100.5L252 102.069L179.496 195.79C179.137 196.254 178.594 196.5 178.044 196.5Z" fill="#6E39CB"/>
<path d="M265.882 113.5C265.477 113.5 265.072 113.382 264.717 113.147L233.953 92.7159C233.236 92.2392 232.876 91.381 233.038 90.5298C233.2 89.6786 233.849 89.0157 234.691 88.8408L260.203 83.5445C260.757 83.4295 261.322 83.539 261.795 83.8528C262.267 84.1666 262.59 84.647 262.704 85.2057L267.956 110.933C268.129 111.782 267.782 112.644 267.07 113.131C266.71 113.377 266.296 113.5 265.882 113.5ZM236.212 91.1442L265.257 110.434L260.299 86.1439L236.212 91.1442Z" fill="#6E39CB"/>
<path d="M350 166.358C350 166.986 349.49 167.5 348.866 167.5H283.134C282.51 167.5 282 166.986 282 166.358V112.071C282 111.756 282.254 111.5 282.567 111.5H348.866C349.49 111.5 350 112.014 350 112.642V166.358Z" fill="white"/>
<path d="M348.302 167.5H282.698C281.762 167.5 281 166.733 281 165.791V111.64C281 111.011 281.508 110.5 282.132 110.5H348.302C349.238 110.5 350 111.267 350 112.209V165.791C350 166.733 349.238 167.5 348.302 167.5ZM282.132 111.64V165.791C282.132 166.105 282.386 166.36 282.698 166.36H348.302C348.614 166.36 348.868 166.105 348.868 165.791V112.209C348.868 111.895 348.614 111.64 348.302 111.64H282.132Z" fill="#6E39CB"/>
<path d="M343.859 162.5H288.142C287.512 162.5 287 161.989 287 161.362V125.858C287 125.545 287.131 125.251 287.36 125.05C287.589 124.849 287.899 124.758 288.211 124.798C288.211 124.798 288.428 124.825 288.798 124.825C292.393 124.825 295.318 121.909 295.318 118.326C295.318 117.947 295.287 117.71 295.287 117.708C295.245 117.399 295.336 117.089 295.537 116.86C295.737 116.631 296.033 116.5 296.347 116.5H335.517C335.831 116.5 336.126 116.631 336.327 116.86C336.528 117.089 336.619 117.399 336.577 117.709C336.577 117.709 336.546 117.947 336.546 118.326C336.546 121.909 339.471 124.825 343.066 124.825C343.475 124.825 343.772 124.783 343.782 124.782C344.093 124.737 344.405 124.824 344.636 125.023C344.867 125.222 345 125.517 345 125.831V161.362C345 161.989 344.488 162.5 343.858 162.5H343.859ZM288.142 125.935V161.362H343.859V125.92C343.719 125.936 343.428 125.963 343.066 125.963C338.842 125.963 335.405 122.537 335.405 118.326C335.405 118 335.424 117.757 335.436 117.638H296.428C296.44 117.757 296.459 118 296.459 118.326C296.459 122.537 293.023 125.963 288.798 125.963C288.479 125.963 288.254 125.946 288.142 125.935Z" fill="#6E39CB"/>
<path d="M366.866 127.5H301.134C300.508 127.5 300 128.011 300 128.642V182.358C300 182.989 300.508 183.5 301.134 183.5H366.866C367.492 183.5 368 182.989 368 182.358V128.642C368 128.011 367.492 127.5 366.866 127.5Z" fill="white"/>
<path d="M366.302 183.5H300.698C299.762 183.5 299 182.733 299 181.791V128.209C299 127.267 299.762 126.5 300.698 126.5H366.302C367.238 126.5 368 127.267 368 128.209V181.791C368 182.733 367.238 183.5 366.302 183.5ZM300.698 127.64C300.386 127.64 300.132 127.895 300.132 128.209V181.791C300.132 182.105 300.386 182.36 300.698 182.36H366.302C366.614 182.36 366.868 182.105 366.868 181.791V128.209C366.868 127.895 366.614 127.64 366.302 127.64H300.698Z" fill="#6E39CB"/>
<path d="M361.859 178.5H306.142C305.512 178.5 305 177.989 305 177.362V141.858C305 141.545 305.131 141.25 305.36 141.05C305.589 140.849 305.899 140.757 306.211 140.798C306.211 140.798 306.428 140.825 306.798 140.825C310.393 140.825 313.318 137.909 313.318 134.325C313.318 133.947 313.287 133.71 313.287 133.708C313.245 133.398 313.336 133.089 313.537 132.86C313.737 132.631 314.033 132.5 314.347 132.5H353.517C353.831 132.5 354.126 132.631 354.327 132.86C354.528 133.089 354.619 133.398 354.577 133.709C354.577 133.709 354.546 133.947 354.546 134.325C354.546 137.909 357.471 140.825 361.066 140.825C361.475 140.825 361.773 140.783 361.782 140.782C362.093 140.736 362.405 140.824 362.636 141.023C362.867 141.222 363 141.516 363 141.831V177.362C363 177.989 362.488 178.5 361.858 178.5H361.859ZM306.142 141.935V177.362H361.859V141.919C361.719 141.935 361.428 141.963 361.066 141.963C356.842 141.963 353.405 138.537 353.405 134.325C353.405 134 353.424 133.757 353.436 133.638H314.428C314.44 133.757 314.46 134 314.46 134.325C314.46 138.537 311.023 141.963 306.798 141.963C306.479 141.963 306.254 141.946 306.142 141.935Z" fill="#6E39CB"/>
<path d="M326.263 238.245H383V168.916C383 160.987 376.525 154.5 368.611 154.5H239.389C231.475 154.5 225 160.987 225 168.916V253.084C225 261.013 231.475 267.5 239.389 267.5H368.611C372.913 267.5 376.791 265.584 379.433 262.559H326.263C319.802 262.559 314.515 257.262 314.515 250.788V250.017C314.515 243.543 319.802 238.246 326.263 238.246V238.245ZM244.951 177.159C244.951 176.286 245.664 175.571 246.535 175.571H360.925C361.796 175.571 362.509 176.286 362.509 177.159V178.037C362.509 178.91 361.796 179.624 360.925 179.624H246.535C245.664 179.624 244.951 178.91 244.951 178.037V177.159ZM246.535 200.965C245.664 200.965 244.951 200.251 244.951 199.378V198.5C244.951 197.627 245.664 196.913 246.535 196.913H360.925C361.796 196.913 362.509 197.627 362.509 198.5V199.378C362.509 200.251 361.796 200.965 360.925 200.965H246.535Z" fill="white"/>
<path d="M369.174 268.5H239.826C231.651 268.5 225 261.834 225 253.64V169.36C225 161.166 231.651 154.5 239.826 154.5H369.174C377.349 154.5 384 161.166 384 169.36V239.206H326.784C320.534 239.206 315.448 244.303 315.448 250.568V251.341C315.448 257.606 320.534 262.703 326.784 262.703H380.94L380.325 263.407C377.498 266.644 373.434 268.5 369.174 268.5ZM239.826 155.349C232.118 155.349 225.847 161.634 225.847 169.36V253.64C225.847 261.365 232.118 267.651 239.826 267.651H369.174C372.869 267.651 376.41 266.168 379.028 263.552H326.785C320.067 263.552 314.601 258.074 314.601 251.34V250.568C314.601 243.835 320.067 238.357 326.785 238.357H383.152V169.36C383.152 161.634 376.882 155.349 369.174 155.349H239.826ZM361.48 201.877H246.98C245.872 201.877 244.97 200.973 244.97 199.863V198.983C244.97 197.873 245.872 196.969 246.98 196.969H361.48C362.587 196.969 363.489 197.873 363.489 198.983V199.863C363.489 200.973 362.587 201.877 361.48 201.877ZM246.98 197.819C246.339 197.819 245.818 198.341 245.818 198.983V199.863C245.818 200.505 246.339 201.027 246.98 201.027H361.48C362.12 201.027 362.642 200.505 362.642 199.863V198.983C362.642 198.341 362.12 197.819 361.48 197.819H246.98ZM361.48 180.507H246.98C245.872 180.507 244.97 179.603 244.97 178.493V177.613C244.97 176.503 245.872 175.599 246.98 175.599H361.48C362.587 175.599 363.489 176.503 363.489 177.613V178.493C363.489 179.603 362.587 180.507 361.48 180.507ZM246.98 176.449C246.339 176.449 245.818 176.971 245.818 177.613V178.493C245.818 179.135 246.339 179.658 246.98 179.658H361.48C362.12 179.658 362.642 179.135 362.642 178.493V177.613C362.642 176.971 362.12 176.449 361.48 176.449H246.98Z" fill="#6E39CB"/>
<path d="M361.41 175.5H246.59C245.712 175.5 245 176.201 245 177.067V177.933C245 178.799 245.712 179.5 246.59 179.5H361.41C362.288 179.5 363 178.799 363 177.933V177.067C363 176.201 362.288 175.5 361.41 175.5Z" fill="white"/>
<path d="M361.983 180.5H247.017C245.905 180.5 245 179.579 245 178.448V177.552C245 176.421 245.905 175.5 247.017 175.5H361.983C363.095 175.5 364 176.421 364 177.552V178.448C364 179.579 363.095 180.5 361.983 180.5ZM247.017 176.365C246.374 176.365 245.851 176.898 245.851 177.552V178.448C245.851 179.102 246.374 179.635 247.017 179.635H361.983C362.626 179.635 363.149 179.103 363.149 178.448V177.552C363.149 176.898 362.626 176.365 361.983 176.365H247.017Z" fill="#6E39CB"/>
<path d="M361.41 196.5H246.59C245.712 196.5 245 197.201 245 198.067V198.933C245 199.799 245.712 200.5 246.59 200.5H361.41C362.288 200.5 363 199.799 363 198.933V198.067C363 197.201 362.288 196.5 361.41 196.5Z" fill="white"/>
<path d="M361.983 201.5H247.017C245.905 201.5 245 200.579 245 199.448V198.552C245 197.421 245.905 196.5 247.017 196.5H361.983C363.095 196.5 364 197.421 364 198.552V199.448C364 200.579 363.095 201.5 361.983 201.5ZM247.017 197.365C246.374 197.365 245.851 197.898 245.851 198.552V199.448C245.851 200.102 246.374 200.635 247.017 200.635H361.983C362.626 200.635 363.149 200.103 363.149 199.448V198.552C363.149 197.898 362.626 197.365 361.983 197.365H247.017Z" fill="#6E39CB"/>
<path d="M383 238.5V253.147C383 256.72 381.662 259.995 379.458 262.5H326.665C320.249 262.5 315 257.271 315 250.881V250.119C315 243.729 320.249 238.5 326.665 238.5H383Z" fill="white"/>
<path d="M380.22 263.5H327.113C320.434 263.5 315 258.064 315 251.383V250.617C315 243.936 320.434 238.5 327.113 238.5H384V253.664C384 257.224 382.702 260.666 380.346 263.356L380.22 263.5ZM327.113 239.343C320.899 239.343 315.842 244.4 315.842 250.617V251.383C315.842 257.6 320.899 262.657 327.113 262.657H379.836C381.979 260.142 383.157 256.956 383.157 253.664V239.343H327.113Z" fill="#6E39CB"/>
<path d="M361.41 175.5H246.59C245.712 175.5 245 176.201 245 177.067V177.933C245 178.799 245.712 179.5 246.59 179.5H361.41C362.288 179.5 363 178.799 363 177.933V177.067C363 176.201 362.288 175.5 361.41 175.5Z" fill="white"/>
<path d="M361.983 180.5H247.017C245.905 180.5 245 179.579 245 178.448V177.552C245 176.421 245.905 175.5 247.017 175.5H361.983C363.095 175.5 364 176.421 364 177.552V178.448C364 179.579 363.095 180.5 361.983 180.5ZM247.017 176.365C246.374 176.365 245.851 176.898 245.851 177.552V178.448C245.851 179.102 246.374 179.635 247.017 179.635H361.983C362.626 179.635 363.149 179.103 363.149 178.448V177.552C363.149 176.898 362.626 176.365 361.983 176.365H247.017Z" fill="#6E39CB"/>
<path d="M361.41 196.5H246.59C245.712 196.5 245 197.201 245 198.067V198.933C245 199.799 245.712 200.5 246.59 200.5H361.41C362.288 200.5 363 199.799 363 198.933V198.067C363 197.201 362.288 196.5 361.41 196.5Z" fill="white"/>
<path d="M361.983 201.5H247.017C245.905 201.5 245 200.579 245 199.448V198.552C245 197.421 245.905 196.5 247.017 196.5H361.983C363.095 196.5 364 197.421 364 198.552V199.448C364 200.579 363.095 201.5 361.983 201.5ZM247.017 197.365C246.374 197.365 245.851 197.898 245.851 198.552V199.448C245.851 200.102 246.374 200.635 247.017 200.635H361.983C362.626 200.635 363.149 200.103 363.149 199.448V198.552C363.149 197.898 362.626 197.365 361.983 197.365H247.017Z" fill="#6E39CB"/>
<path d="M383 238.5V253.147C383 256.72 381.662 259.995 379.458 262.5H326.665C320.249 262.5 315 257.271 315 250.881V250.119C315 243.729 320.249 238.5 326.665 238.5H383Z" fill="white"/>
<path d="M380.22 263.5H327.113C320.434 263.5 315 258.064 315 251.383V250.617C315 243.936 320.434 238.5 327.113 238.5H384V253.664C384 257.224 382.702 260.666 380.346 263.356L380.22 263.5ZM327.113 239.343C320.899 239.343 315.842 244.4 315.842 250.617V251.383C315.842 257.6 320.899 262.657 327.113 262.657H379.836C381.979 260.142 383.157 256.956 383.157 253.664V239.343H327.113Z" fill="#6E39CB"/>
<path d="M329 256.5C332.314 256.5 335 253.814 335 250.5C335 247.186 332.314 244.5 329 244.5C325.686 244.5 323 247.186 323 250.5C323 253.814 325.686 256.5 329 256.5Z" fill="white"/>
<path d="M329.5 257.5C325.916 257.5 323 254.584 323 251C323 247.416 325.916 244.5 329.5 244.5C333.084 244.5 336 247.416 336 251C336 254.584 333.084 257.5 329.5 257.5ZM329.5 245.331C326.374 245.331 323.831 247.874 323.831 251C323.831 254.126 326.374 256.669 329.5 256.669C332.626 256.669 335.169 254.126 335.169 251C335.169 247.874 332.626 245.331 329.5 245.331Z" fill="#6E39CB"/>
<path d="M43 238.5C32.4409 238.5 22.5097 237.931 15.0357 236.897C11.3797 236.391 8.50239 235.8 6.48327 235.14C4.10682 234.363 3 233.524 3 232.5C3 231.476 4.10682 230.637 6.48327 229.86C8.50239 229.2 11.3797 228.609 15.0357 228.103C22.5097 227.069 32.4407 226.5 43 226.5C53.5592 226.5 63.4903 227.069 70.9643 228.103C74.6201 228.609 77.4976 229.2 79.5167 229.86C81.8932 230.637 83 231.476 83 232.5C83 233.524 81.8932 234.363 79.5167 235.14C77.4976 235.8 74.6203 236.391 70.9643 236.897C63.4903 237.931 53.5592 238.5 43 238.5ZM43 227.592C32.4928 227.592 22.6188 228.158 15.1965 229.184C4.2583 230.697 4.13259 232.427 4.13259 232.5C4.13259 232.573 4.2583 234.303 15.1965 235.816C22.6188 236.842 32.4928 237.408 43 237.408C53.5071 237.408 63.3812 236.842 70.8035 235.816C81.7417 234.303 81.8674 232.573 81.8674 232.5C81.8674 232.427 81.7417 230.697 70.8035 229.184C63.3812 228.158 53.507 227.592 43 227.592Z" fill="#854CEA"/>
<path d="M43.0001 245.5C32.4408 245.5 22.5096 244.927 15.0358 243.887C11.3799 243.379 8.50252 242.784 6.48341 242.12C4.10682 241.338 3 240.494 3 239.463V232.5H4.13259V239.463C4.13259 239.537 4.2583 241.277 15.1965 242.799C22.6188 243.832 32.4929 244.401 43.0001 244.401C53.5072 244.401 63.3812 243.832 70.8035 242.799C81.7417 241.277 81.8674 239.537 81.8674 239.463V232.5H83V239.463C83 240.494 81.8932 241.338 79.5167 242.12C77.4976 242.784 74.6203 243.379 70.9643 243.887C63.4905 244.927 53.5593 245.5 43.0001 245.5Z" fill="#854CEA"/>
<path d="M43 253.5C32.4409 253.5 22.5097 252.927 15.0357 251.887C11.3797 251.379 8.50239 250.784 6.48327 250.12C4.10682 249.338 3 248.494 3 247.463V240.5H4.13259V247.463C4.13259 247.537 4.2583 249.277 15.1965 250.799C22.6188 251.832 32.4928 252.401 43 252.401C53.5071 252.401 63.3812 251.832 70.8035 250.799C81.7417 249.277 81.8674 247.537 81.8674 247.463V240.5H83V247.463C83 248.494 81.8932 249.338 79.5167 250.12C77.4976 250.784 74.6203 251.379 70.9643 251.887C63.4903 252.927 53.5592 253.5 43 253.5Z" fill="#854CEA"/>
<path d="M43 261.5C32.4409 261.5 22.5097 260.927 15.0357 259.887C11.3797 259.379 8.50239 258.784 6.48327 258.12C4.10682 257.338 3 256.494 3 255.463V248.5H4.13259V255.463C4.13259 255.537 4.2583 257.277 15.1965 258.799C22.6188 259.832 32.4928 260.401 43 260.401C53.5071 260.401 63.3812 259.832 70.8035 258.799C81.7417 257.277 81.8674 255.537 81.8674 255.463V248.5H83V255.463C83 256.494 81.8932 257.338 79.5167 258.12C77.4976 258.784 74.6203 259.379 70.9643 259.887C63.4903 260.927 53.5592 261.5 43 261.5Z" fill="#854CEA"/>
<path d="M43 268.5C32.4409 268.5 22.5097 267.927 15.0357 266.887C11.3797 266.379 8.50239 265.784 6.48327 265.12C4.10682 264.338 3 263.494 3 262.463V255.5H4.13259V262.463C4.13259 262.537 4.2583 264.277 15.1965 265.799C22.6188 266.832 32.4928 267.401 43 267.401C53.5071 267.401 63.3812 266.832 70.8035 265.799C81.7417 264.277 81.8674 262.537 81.8674 262.463V255.5H83V262.463C83 263.494 81.8932 264.338 79.5167 265.12C77.4976 265.784 74.6203 266.379 70.9643 266.887C63.4903 267.927 53.5592 268.5 43 268.5Z" fill="#854CEA"/>
<path d="M100.939 160.512C100.518 162.082 100.695 163.371 100.521 164.407C99.7814 168.811 101.828 170.547 89.9433 178.806C88.2569 179.978 83.0835 182.134 82.6842 182.684C82.0693 183.53 83.9117 182.151 87.8079 188.543C90.9738 193.735 95.2795 196.671 94.825 200.299C94.5098 202.825 93.9747 202.867 91.9662 205.296C91.7481 205.559 91.8765 207.915 91.64 208.197C89.9429 210.227 83.2955 213.599 78.3076 216.627C76.5092 217.719 74.4534 218.709 72.1111 219.474C66.3588 221.352 66.0117 222.563 59.7483 225.414C55.6892 227.26 51.5187 226.744 48.4882 226.573C48.0546 226.549 47.6133 226.476 47.1587 226.347C45.3169 225.825 43.9008 224.562 42.7305 223.516C41.4878 222.408 41.6023 220.857 40.8784 218.058C40.1258 215.153 41.5752 207.743 39.9029 207.743C39.6992 207.743 38.4398 213.44 38.2308 215.363C37.6211 220.97 32.5085 234.812 30.851 234.495C28.184 233.984 25.5265 232.511 23.322 232.041C21.1403 231.575 19.1635 224.53 20.3629 218.066C20.6506 216.515 20.7808 211.175 21.8939 207.333C22.5488 205.072 23.1201 202.585 23.7967 200.299C24.7728 197.008 27.9471 192.094 28.8246 190.075C31.1103 184.816 35.2284 180.654 37.1858 179.006C48.7812 169.251 68.7523 170.892 78.0238 164.872C79.1431 164.145 79.9037 163.493 80.3621 163.072C81.2199 162.284 81.697 163.048 83.7988 156.128C85.3936 150.876 88.6419 147.121 88.6485 142.736C88.6512 141.575 89.9732 138.773 91.045 138.34C92.0052 137.954 91.6698 137.022 94.0462 137.802C96.7812 138.7 97.6503 138.938 99.414 139.189C102.823 139.676 101.993 144.472 101.68 147.778C101.596 148.664 101.764 150.768 101.88 153.186C102.014 155.961 101.048 160.107 100.939 160.512Z" fill="#854CEA"/>
<path d="M31.301 235.5C31.2591 235.5 31.2178 235.496 31.1768 235.488C29.7035 235.206 28.2617 234.649 26.8674 234.111C25.7045 233.662 24.606 233.237 23.6128 233.025C22.3943 232.765 21.2628 230.89 20.5857 228.008C19.8887 225.042 19.8101 221.612 20.3698 218.598C20.455 218.138 20.5273 217.321 20.6188 216.286C20.8223 213.984 21.1296 210.505 21.9144 207.798C22.2251 206.726 22.5233 205.579 22.8116 204.47C23.1336 203.232 23.4664 201.951 23.8246 200.742C24.4745 198.552 26.0604 195.691 27.3349 193.393C28.0065 192.182 28.5863 191.135 28.8859 190.447C30.9566 185.686 34.7526 181.42 37.3742 179.214C44.0974 173.562 53.6933 171.666 62.1596 169.993C68.4898 168.742 74.469 167.561 78.3975 165.012C79.254 164.456 80.0065 163.877 80.6978 163.243C80.8592 163.094 81.0097 162.994 81.1424 162.905C81.7221 162.517 82.3216 162.115 84.0478 156.436C84.6987 154.293 85.605 152.429 86.4813 150.626C87.7772 147.959 88.8962 145.657 88.9002 143.106C88.9031 141.827 90.2952 138.866 91.5264 138.37C91.7475 138.281 91.8784 138.158 92.03 138.015C92.5521 137.525 93.0253 137.246 94.7795 137.822C97.6151 138.752 98.4117 138.958 100.107 139.199C103.566 139.693 103.108 144.09 102.773 147.302C102.741 147.609 102.71 147.909 102.683 148.198C102.624 148.815 102.698 150.132 102.783 151.658C102.816 152.259 102.852 152.903 102.884 153.571C103.03 156.587 101.939 160.987 101.928 161.028C101.676 161.966 101.646 162.813 101.619 163.561C101.602 164.036 101.586 164.484 101.516 164.901C101.399 165.598 101.353 166.229 101.308 166.838C101.067 170.144 100.893 172.533 90.7524 179.576C89.8852 180.178 88.133 181.028 86.587 181.777C85.409 182.349 83.9627 183.05 83.6079 183.331C83.6099 183.332 83.6117 183.333 83.6137 183.334C84.2812 183.657 86.0542 184.514 88.7089 188.867C89.8364 190.714 91.1292 192.298 92.2697 193.695C94.4166 196.325 96.1125 198.403 95.8011 200.887C95.5366 203.004 95.0961 203.504 93.9189 204.84C93.6183 205.182 93.2781 205.568 92.8733 206.056C92.8186 206.225 92.7949 206.854 92.7792 207.275C92.7389 208.348 92.7064 208.774 92.5247 208.991C91.2722 210.488 87.5638 212.608 83.6378 214.852C82.0933 215.735 80.4965 216.648 79.0559 217.522C77.0811 218.721 74.9639 219.693 72.7635 220.412C69.4387 221.496 67.9315 222.357 66.0232 223.446C64.6228 224.246 63.0355 225.152 60.3915 226.355C56.6548 228.053 52.9052 227.807 49.8921 227.609C49.5585 227.587 49.2357 227.565 48.9248 227.548C48.4573 227.522 47.9824 227.442 47.5144 227.309C45.5857 226.762 44.1142 225.449 42.9318 224.394C41.9588 223.526 41.7395 222.415 41.436 220.875C41.3135 220.254 41.1747 219.55 40.966 218.744C40.6384 217.48 40.7078 215.463 40.7752 213.512C40.842 211.575 40.9174 209.39 40.5011 208.785C40.143 209.939 39.1888 214.253 38.9998 215.99C38.444 221.098 34.0063 233.689 31.8518 235.289C31.6631 235.429 31.4786 235.5 31.301 235.5ZM93.2418 138.208C92.8564 138.208 92.6988 138.356 92.5113 138.532C92.3425 138.69 92.1322 138.888 91.7889 139.026C90.9136 139.379 89.6073 142.004 89.6047 143.107C89.6006 145.821 88.3931 148.305 87.1146 150.936C86.2502 152.714 85.3565 154.553 84.7218 156.642C82.9222 162.563 82.2786 162.994 81.5335 163.493C81.4109 163.575 81.295 163.653 81.1734 163.764C80.4528 164.426 79.67 165.028 78.7801 165.606C74.7379 168.229 68.6943 169.423 62.2958 170.687C53.9128 172.343 44.4113 174.221 37.8268 179.756C35.2638 181.913 31.5535 186.081 29.5318 190.729C29.2186 191.45 28.631 192.509 27.9505 193.737C26.693 196.005 25.1278 198.828 24.5 200.943C24.1451 202.142 23.8138 203.416 23.4933 204.649C23.2038 205.763 22.9043 206.915 22.5909 207.996C21.8255 210.636 21.5216 214.074 21.3205 216.348C21.2274 217.402 21.1538 218.234 21.0622 218.727C20.5199 221.648 20.596 224.972 21.2712 227.846C21.8659 230.376 22.8424 232.138 23.7591 232.333C24.8068 232.557 25.9306 232.991 27.1204 233.451C28.4856 233.978 29.8974 234.523 31.3086 234.793C31.7082 234.76 33.0984 232.738 35.0871 227.447C36.7605 222.995 38.0213 218.468 38.2992 215.913C38.416 214.84 38.8286 212.774 39.1466 211.33C39.8902 207.955 40.0183 207.955 40.3278 207.955C40.5666 207.955 40.7835 208.049 40.9549 208.227C41.6377 208.937 41.5643 211.068 41.4792 213.536C41.4137 215.436 41.3459 217.401 41.6478 218.566C41.8617 219.392 42.0026 220.107 42.1269 220.738C42.4241 222.245 42.6036 223.155 43.3995 223.865C44.5281 224.872 45.9326 226.125 47.7059 226.628C48.1301 226.749 48.5414 226.818 48.9636 226.841C49.2773 226.859 49.6022 226.88 49.9379 226.903C52.8725 227.095 56.5247 227.335 60.1006 225.71C62.715 224.521 64.2874 223.623 65.6747 222.831C67.6178 221.722 69.1525 220.845 72.5455 219.739C74.6946 219.037 76.7625 218.087 78.6912 216.916C80.1397 216.038 81.7406 215.122 83.2889 214.237C86.9707 212.133 90.7774 209.957 91.9682 208.556C92.0323 208.382 92.0578 207.702 92.0749 207.248C92.1137 206.212 92.1424 205.831 92.3115 205.628C92.7318 205.12 93.082 204.722 93.391 204.372C94.5229 203.087 94.8644 202.699 95.1019 200.798C95.3755 198.616 93.7645 196.642 91.7247 194.143C90.5699 192.728 89.2609 191.125 88.1081 189.236C85.5616 185.061 83.9242 184.269 83.3079 183.971C83.073 183.857 82.8702 183.759 82.8109 183.522C82.751 183.282 82.9009 183.076 82.9814 182.965C83.2111 182.649 84.1156 182.19 86.2805 181.14C87.8034 180.402 89.5293 179.565 90.3514 178.994C100.215 172.144 100.379 169.896 100.606 166.786C100.651 166.16 100.699 165.513 100.821 164.783C100.884 164.412 100.899 163.986 100.915 163.535C100.943 162.75 100.975 161.859 101.248 160.843C101.417 160.216 102.307 156.218 102.18 153.605C102.148 152.939 102.113 152.297 102.079 151.697C101.989 150.079 101.918 148.801 101.981 148.13C102.009 147.84 102.04 147.537 102.072 147.228C102.394 144.14 102.795 140.297 100.008 139.899C98.1953 139.641 97.2713 139.383 94.5605 138.494C93.9302 138.287 93.5246 138.208 93.2418 138.208Z" fill="white"/>
<path d="M124 221.336L122.381 222.357L119.235 226.786L113.77 231.5C113.084 230.995 112.125 230.496 110.776 229.795C107.179 227.926 105.678 228.182 102.867 226.896C99.1716 225.202 99.9918 223.944 95.8376 221.386C94.187 220.369 91.2976 219.388 85.5859 217.47C83.749 216.852 82.219 216.34 81 215.929C86.445 212.673 89.7373 208.562 91.5902 206.379C91.8482 206.075 92.095 205.782 92.333 205.5C96.3797 206.786 99.457 208.208 101.587 209.315C103.042 210.072 103.415 210.349 108.616 213.229C111.569 214.865 113.044 215.682 114.766 216.601C118.668 218.68 122.433 220.561 124 221.336Z" fill="#6E39CB"/>
<path d="M113.965 232.5L113.738 232.333C113.069 231.842 112.103 231.342 110.767 230.651C108.73 229.598 107.373 229.225 106.059 228.865C105.019 228.58 104.037 228.31 102.781 227.738C100.77 226.821 100.038 226.025 99.1904 225.103C98.4486 224.296 97.6078 223.382 95.6386 222.175C94.034 221.191 91.3249 220.267 85.3503 218.27L82.9204 217.458C82.0988 217.183 81.3635 216.938 80.7153 216.721L80 216.481L80.6466 216.096C85.766 213.048 88.983 209.251 90.9051 206.983C91.0296 206.836 91.1486 206.696 91.2623 206.562C91.5229 206.257 91.7719 205.963 92.0122 205.679L92.1639 205.5L92.3897 205.572C95.7181 206.624 98.8835 207.923 101.798 209.432C102.548 209.821 103.026 210.09 103.978 210.626C104.909 211.151 106.317 211.944 108.911 213.374L109.013 213.43C111.936 215.042 113.404 215.851 115.122 216.763C119.138 218.892 122.979 220.8 124.444 221.521L125 221.795L122.899 223.113L119.734 227.547L113.965 232.5ZM81.6469 216.3C82.1097 216.455 82.6095 216.622 83.1462 216.801L85.5763 217.614C91.6042 219.629 94.3395 220.562 96.0101 221.586C98.0628 222.845 98.9388 223.797 99.7116 224.638C100.541 225.539 101.195 226.251 103.077 227.109C104.281 227.657 105.236 227.92 106.248 228.198C107.596 228.568 108.991 228.95 111.085 230.033C112.315 230.669 113.235 231.145 113.926 231.614L119.208 227.08L122.403 222.602L123.575 221.867C121.83 221.003 118.38 219.277 114.788 217.373C113.065 216.458 111.596 215.648 108.669 214.035L108.567 213.978C105.971 212.547 104.561 211.753 103.628 211.227C102.684 210.695 102.21 210.428 101.471 210.045C98.658 208.589 95.6072 207.331 92.4001 206.303C92.2067 206.531 92.0072 206.766 91.8006 207.008C91.6875 207.141 91.5691 207.281 91.445 207.427C89.5752 209.634 86.4974 213.266 81.6469 216.3Z" fill="white"/>
<path d="M135.475 223.53C134.8 226.081 133.893 228.243 132.869 230.068C128.562 237.753 122.177 239.5 122.177 239.5C116.653 237.788 115.239 235.488 115.03 233.855C114.877 232.667 115.36 231.832 115.36 231.832L122.778 221.202L122.792 221.192L123.805 220.542L129.787 216.698L131.553 215.564C133.031 215.362 134.042 215.655 134.721 216.231C137.061 218.211 135.475 223.53 135.475 223.53Z" fill="white"/>
<path d="M122.621 240.5L122.524 240.47C116.739 238.68 115.258 236.219 115.033 234.469C114.865 233.167 115.389 232.246 115.411 232.207L115.427 232.183L122.99 221.366L123.061 221.32L132.016 215.578L132.092 215.567C133.575 215.365 134.748 215.619 135.578 216.322C138.078 218.433 136.54 223.771 136.452 224.066C135.807 226.498 134.907 228.75 133.778 230.759C129.388 238.576 122.99 240.399 122.719 240.473L122.621 240.5ZM116.008 232.559C115.96 232.65 115.593 233.384 115.722 234.382C115.919 235.923 117.28 238.105 122.629 239.782C123.432 239.526 129.213 237.474 133.171 230.425C134.273 228.465 135.151 226.264 135.782 223.886L135.785 223.876C135.8 223.824 137.302 218.681 135.128 216.845C134.467 216.286 133.504 216.083 132.263 216.238L123.484 221.867L116.008 232.559Z" fill="#6E39CB"/>
<path d="M114 231.911L113.066 232.7L113.052 232.712L107.066 244.327C107.066 244.327 106.696 245.225 107.027 246.384C104.24 246.881 100.425 245.743 93.8097 243.713C89.0023 242.237 87.2736 241.299 84.0442 240.268C72.8746 236.703 67.6369 240.232 55.1493 237.183C51.7501 236.354 48 233.719 48 227.091C51.3426 227.273 54.2636 224.942 58.7406 222.976C65.649 219.941 67.7108 221.532 74.0555 219.532C76.6388 218.717 78.9063 217.663 80.8899 216.5C82.1215 216.906 83.6674 217.413 85.5235 218.025C91.2944 219.923 94.2139 220.894 95.8816 221.9C100.079 224.432 99.2502 225.677 102.984 227.354C105.824 228.627 107.341 228.374 110.975 230.223C112.338 230.917 113.307 231.41 114 231.911Z" fill="#6E39CB"/>
<path d="M106.058 247.5C103.407 247.5 99.8657 246.449 94.1162 244.671C91.3548 243.816 89.5762 243.129 88.007 242.523C86.8261 242.067 85.7107 241.636 84.334 241.193C78.5963 239.347 74.4281 239.404 70.0148 239.464C65.8273 239.521 61.4965 239.581 55.4249 238.087C52.6519 237.404 48 235.13 48 227.566V227.202L48.3719 227.223C50.6161 227.347 52.6719 226.274 55.2743 224.917C56.421 224.319 57.6066 223.7 58.9618 223.101C62.9363 221.341 65.3103 221.103 67.8237 220.852C69.6891 220.666 71.6181 220.473 74.3333 219.611C76.7012 218.858 78.9791 217.839 81.1034 216.583L81.2438 216.5L81.399 216.552C82.0519 216.769 82.793 217.014 83.622 217.289L86.0385 218.09C92.0721 220.091 94.8101 221.018 96.4832 222.035C98.5381 223.285 99.4149 224.23 100.189 225.065C101.019 225.96 101.674 226.667 103.557 227.519C104.762 228.064 105.719 228.324 106.732 228.6C108.082 228.968 109.478 229.348 111.574 230.423C112.949 231.128 113.936 231.635 114.65 232.155L115 232.41L113.775 233.453L107.819 245.099C107.784 245.196 107.521 245.975 107.796 246.946L107.898 247.309L107.52 247.377C107.06 247.459 106.576 247.5 106.058 247.5ZM72.3526 238.755C76.0155 238.755 79.7331 238.988 84.5542 240.54C85.9505 240.989 87.0752 241.423 88.2658 241.883C89.8243 242.485 91.5907 243.168 94.3287 244.014C100.789 246.013 104.412 247.079 107.031 246.755C106.835 245.673 107.154 244.872 107.169 244.835L107.181 244.808L113.206 233.026L113.868 232.461C113.226 232.048 112.369 231.609 111.255 231.037C109.217 229.991 107.857 229.621 106.543 229.263C105.502 228.98 104.518 228.712 103.261 228.144C101.248 227.233 100.515 226.443 99.6667 225.528C98.924 224.727 98.0824 223.819 96.1111 222.62C94.5042 221.643 91.7925 220.725 85.8121 218.742L83.3957 217.941C82.6314 217.688 81.9417 217.459 81.3269 217.255C79.1968 218.5 76.9178 219.513 74.5509 220.265C71.7641 221.151 69.7972 221.347 67.8951 221.537C65.4404 221.782 63.1221 222.014 59.2522 223.728C57.9179 224.318 56.7425 224.931 55.6057 225.524C53.15 226.805 51.0113 227.921 48.7176 227.921H48.7076C48.849 234.734 53.0658 236.796 55.5965 237.419C61.5786 238.891 65.8622 238.833 70.0047 238.776C70.7914 238.765 71.5712 238.755 72.3526 238.755Z" fill="white"/>
<path d="M125.88 233.298C125.576 235.996 124.987 238.33 124.235 240.339C121.071 248.796 115.005 251.5 115.005 251.5C109.299 250.553 107.573 248.414 107.134 246.779C106.812 245.59 107.172 244.669 107.172 244.669L112.992 232.76L113.005 232.749L113.914 231.939L119.282 227.156L120.867 225.744C122.3 225.324 123.341 225.477 124.094 225.966C126.69 227.645 125.88 233.298 125.88 233.298Z" fill="white"/>
<path d="M115.525 252.5L115.424 252.483C109.44 251.496 107.62 249.204 107.148 247.456C106.795 246.155 107.182 245.141 107.199 245.099L107.211 245.072L113.154 232.972L113.218 232.915L121.265 225.781L121.339 225.759C122.778 225.34 123.976 225.43 124.899 226.025C127.676 227.813 126.917 233.468 126.872 233.78C126.581 236.349 126.012 238.771 125.181 240.979C121.951 249.567 115.876 252.345 115.618 252.459L115.525 252.5ZM107.84 245.371C107.806 245.47 107.547 246.27 107.818 247.268C108.233 248.807 109.893 250.832 115.43 251.768C116.189 251.392 121.62 248.47 124.532 240.726C125.343 238.572 125.898 236.206 126.183 233.694L126.184 233.684C126.192 233.629 126.943 228.177 124.528 226.622C123.794 226.149 122.81 226.08 121.604 226.418L113.715 233.412L107.84 245.371Z" fill="#6E39CB"/>
<path d="M70.593 142.782C71.5499 144.038 73.6344 147.737 75.0189 150.403C76.3998 153.062 77.0903 154.392 77.4339 155.618C78.807 160.52 77.3402 164.919 76.6289 167.052C76.0897 168.67 74.8735 172.196 71.7992 175.477C65.372 182.336 56.1296 182.459 53.2852 182.497C51.3088 182.524 46.1017 182.395 40.2047 179.689C37.0889 178.259 26.3335 173.324 25.1117 164.244C23.6605 153.458 36.7912 145.239 38.796 143.984C50.2754 136.799 66.161 136.966 70.593 142.782Z" fill="white"/>
<path d="M53.4218 183.5C50.2782 183.5 45.596 182.982 40.4951 180.638C38.9715 179.938 35.4034 178.299 32.1214 175.708C28.0083 172.461 25.6515 168.797 25.1165 164.816C23.7724 154.813 34.4048 146.979 39.0386 144.075C44.4574 140.679 51.3184 138.65 57.8626 138.508C64.1688 138.37 69.2589 140.032 71.4804 142.95C72.4175 144.181 74.4954 147.844 75.9631 150.673C77.3609 153.368 78.0626 154.721 78.4178 155.991C79.8274 161.029 78.3254 165.539 77.6034 167.707C77.1311 169.125 75.8767 172.892 72.67 176.318C69.8717 179.308 66.2284 181.397 61.8411 182.527C58.3114 183.437 55.2646 183.478 53.8003 183.497C53.6769 183.499 53.5504 183.5 53.4218 183.5ZM58.5895 139.204C58.354 139.204 58.1171 139.207 57.8778 139.212C51.4576 139.352 44.7278 141.341 39.414 144.672C34.8958 147.503 24.5264 155.125 25.8162 164.722C26.6143 170.661 31.6523 175.8 40.7903 179.998C45.9803 182.383 50.7257 182.835 53.7909 182.793C56.7597 182.754 65.794 182.633 72.1541 175.837C75.2555 172.523 76.4314 168.993 76.9336 167.485C77.6335 165.384 79.0895 161.011 77.738 156.181C77.4023 154.981 76.7118 153.649 75.3363 150.997C73.8824 148.194 71.8325 144.577 70.9184 143.376C68.9153 140.745 64.337 139.205 58.5897 139.205L58.5895 139.204Z" fill="#6E39CB"/>
<path d="M53.9489 145.911C57.6882 146.511 63.4225 146.845 68.7751 144.479C70.5437 143.697 71.566 142.932 72.2278 141.819C73.8267 139.131 72.6004 135.625 71.6185 132.818C70.5398 129.734 70.0007 128.193 68.5719 126.885C64.2972 122.972 56.1044 124.532 51.3084 126.885C48.8596 128.087 48.2993 129.003 45.4185 129.954C41.4567 131.261 40.0803 130.332 37.0914 131.181C32.5864 132.461 29.9615 136.207 27.7488 139.364C25.0814 143.17 24.0151 146.736 22.6713 151.23C22.2229 152.729 21.5677 155.136 21.0465 158.185C20.0746 163.871 19.5886 166.714 20.4372 169.233C21.7594 173.157 25.1353 175.191 30.186 178.234C32.0128 179.335 35.1453 181.003 39.3256 181.916C42.7424 182.663 45.6985 182.651 45.8248 182.121C45.9313 181.674 43.9154 181.317 42.5752 179.257C42.3014 178.836 42.0505 178.084 41.5596 176.597C40.4728 173.305 40.4434 172.63 39.7317 171.483C39.1218 170.5 38.4628 169.919 37.7007 169.233C35.3653 167.13 34.0783 167.283 33.6387 165.959C33.093 164.316 34.5758 162.572 34.6543 162.482C34.903 162.197 36.0047 160.916 37.2946 161.05C39.3822 161.266 39.7504 164.954 41.1535 164.937C42.2972 164.923 42.5226 162.467 45.2155 158.186C45.6904 157.43 46.5374 156.094 47.8558 154.503C49.647 152.342 50.4645 151.936 51.7147 150.207C52.3614 149.313 53.2366 147.909 53.9489 145.911Z" fill="#6E39CB"/>
<path d="M56 175.56C56.8438 175.788 57.6922 175.95 58.5458 176.032C58.9728 176.068 59.3997 176.096 59.827 176.088C60.2535 176.084 60.6805 176.07 61.1039 176.017C61.9526 175.932 62.7903 175.75 63.6084 175.495C64.4263 175.236 65.2219 174.899 66 174.5C65.3187 175.051 64.5415 175.487 63.7207 175.813C63.3112 175.98 62.8866 176.107 62.4578 176.219C62.0275 176.324 61.5891 176.395 61.149 176.447C60.2673 176.535 59.3731 176.517 58.5022 176.365C57.632 176.218 56.781 175.956 56 175.56Z" fill="#6E39CB"/>
<path d="M32.8136 233.268C33.5153 233.058 34.5506 232.75 34.8915 231.857C35.2632 230.884 34.6216 229.684 33.8525 229.036C33.2381 228.518 32.5532 228.477 30.7357 228.507C28.1488 228.55 26.8553 228.571 25.0213 228.86C23.6341 229.079 22.2665 229.301 20.5191 229.918C19.2234 230.375 18.1083 230.586 17.0559 231.505C16.5006 231.989 15.8898 232.523 16.017 232.915C16.2383 233.598 18.4756 233.174 23.8092 233.091C25.837 233.06 26.8508 233.044 27.4456 233.091C29.9469 233.29 31.05 233.794 32.8136 233.268Z" fill="white"/>
<path d="M31.8257 234.5C31.2112 234.5 30.6077 234.41 29.9284 234.308C29.3597 234.224 28.7154 234.128 27.9423 234.063C27.3579 234.014 26.3329 234.031 24.291 234.064C22.5674 234.093 21.1667 234.158 20.0411 234.21C17.3682 234.334 16.2617 234.386 16.0312 233.636C15.8455 233.032 16.5219 232.41 17.1761 231.809C18.081 230.976 19.029 230.654 20.0329 230.312C20.2849 230.226 20.5457 230.138 20.8106 230.039C22.6552 229.354 24.1403 229.107 25.4506 228.89C27.3395 228.576 28.6649 228.553 31.305 228.508C33.2141 228.475 34.0028 228.523 34.7268 229.166C35.6146 229.954 36.293 231.359 35.8719 232.52C35.4699 233.629 34.2611 234.008 33.539 234.235C32.9194 234.43 32.3682 234.5 31.8257 234.5ZM26.8392 233.375C27.3536 233.375 27.7236 233.385 28.0075 233.408C28.8058 233.475 29.4636 233.573 30.0438 233.66C31.3152 233.849 32.1553 233.975 33.3056 233.613C33.9785 233.402 34.9001 233.112 35.19 232.313C35.5144 231.418 34.9357 230.267 34.2265 229.637C33.7207 229.188 33.1519 229.133 31.3204 229.164C28.7167 229.209 27.4109 229.232 25.5787 229.536C24.2405 229.758 22.8565 229.988 21.0809 230.648C20.8059 230.75 20.5402 230.84 20.2832 230.928C19.3151 231.257 18.479 231.542 17.6859 232.271C17.3236 232.604 16.6505 233.223 16.7226 233.458C16.7979 233.702 18.4281 233.626 20.0046 233.553C21.1354 233.501 22.5427 233.435 24.2781 233.407C25.4039 233.388 26.2245 233.375 26.8392 233.375Z" fill="#6E39CB"/>
<path d="M88.2549 138.459C87.8874 137.699 84.3467 132.859 86.9465 128.41C87.3047 127.797 89.2828 126.355 90.7867 125.501C94.5007 123.394 101.455 124.558 103.446 129.516C104.924 133.2 103.339 138.265 99.951 140.375C96.4468 142.557 91.44 141.375 88.2549 138.459Z" fill="white"/>
<path d="M96.2988 142.5C95.6783 142.5 95.0433 142.441 94.4015 142.322C92.2042 141.913 90.0739 140.844 88.4027 139.311L88.3535 139.266L88.3246 139.206C88.2891 139.133 88.2073 138.995 88.1036 138.82C87.2275 137.343 84.5616 132.848 87.0074 128.655C87.4551 127.887 89.6761 126.34 91.0401 125.564C93.1921 124.341 96.3648 124.156 99.1234 125.093C101.658 125.954 103.538 127.635 104.415 129.826C105.163 131.693 105.195 134.011 104.503 136.185C103.796 138.406 102.454 140.223 100.724 141.302C99.4578 142.092 97.9303 142.5 96.2988 142.5ZM88.9354 138.849C92.2845 141.888 97.1774 142.693 100.341 140.719C103.612 138.678 105.207 133.706 103.754 130.078C102.953 128.079 101.225 126.541 98.8897 125.747C96.319 124.874 93.3782 125.037 91.3979 126.163C89.797 127.073 87.9283 128.477 87.6249 128.997C85.3804 132.845 87.8929 137.082 88.7185 138.473C88.8124 138.632 88.8854 138.755 88.9354 138.849Z" fill="#6E39CB"/>
<path d="M92.0215 124.944C92.1443 124.85 92.4693 124.671 92.736 124.657C93.9622 124.591 96.092 124.289 97.7932 124.755C99.9158 125.337 102.123 126.277 103.262 128.15C104.943 130.915 103.657 134.376 100.373 135.175C96.4703 136.126 91.519 135.035 90.3599 131.302C89.6627 129.057 89.8586 126.594 92.0215 124.944Z" fill="white"/>
<path d="M98.1301 136.5C94.6798 136.5 91.3403 135.032 90.386 131.933C89.5028 129.063 90.1468 126.613 92.1994 125.034C92.3245 124.938 92.7367 124.684 93.1376 124.662C93.3621 124.65 93.6238 124.629 93.9006 124.607C95.1807 124.506 96.9343 124.367 98.4155 124.776C100.264 125.287 102.875 126.221 104.204 128.425C105.117 129.94 105.253 131.758 104.568 133.289C103.931 134.713 102.643 135.756 101.034 136.151C100.092 136.382 99.1062 136.5 98.1301 136.5ZM92.6616 125.569C90.2183 127.449 90.6271 130.242 91.0883 131.74C92.1883 135.313 96.9151 136.449 100.85 135.483C102.257 135.138 103.339 134.263 103.895 133.02C104.492 131.686 104.369 130.096 103.568 128.767C102.656 127.255 100.953 126.197 98.2099 125.439C96.8597 125.065 95.1847 125.198 93.9619 125.295C93.6801 125.317 93.4137 125.338 93.1797 125.351C93.0257 125.359 92.77 125.486 92.6616 125.569Z" fill="#6E39CB"/>
<path d="M86.6645 130.953C87.2754 130.128 89.865 129.925 95.0193 129.553C96.1673 129.47 97.3428 129.399 97.8041 130.047C98.2075 130.614 97.9215 131.529 97.543 132.107C96.7403 133.333 95.3694 133.272 92.0603 134.167C88.4547 135.141 87.7319 135.847 86.9256 135.32C85.8257 134.601 85.6653 132.302 86.6645 130.953Z" fill="white"/>
<path d="M87.9113 136.5C87.6242 136.5 87.3715 136.423 87.1061 136.246C86.5899 135.9 86.2233 135.265 86.0738 134.457C85.8601 133.303 86.1182 132.046 86.7471 131.175C87.4558 130.194 89.8152 129.982 95.5593 129.557C96.7678 129.468 98.1378 129.367 98.7384 130.231C99.2302 130.939 98.9626 132.019 98.4792 132.775C97.7963 133.844 96.7832 134.082 94.944 134.514C94.2914 134.668 93.5515 134.841 92.6638 135.087C91.3373 135.455 90.3868 135.788 89.6928 136.032C88.8944 136.312 88.3607 136.5 87.9113 136.5ZM96.7078 130.214C96.3468 130.214 95.9654 130.243 95.6152 130.268C90.9613 130.613 87.8866 130.84 87.3492 131.584C86.8365 132.294 86.6199 133.372 86.7975 134.331C86.9104 134.941 87.1752 135.425 87.5239 135.659C87.8781 135.896 88.2139 135.793 89.4426 135.362C90.1466 135.114 91.111 134.776 92.4621 134.402C93.364 134.152 94.1113 133.976 94.7708 133.821C96.5283 133.408 97.3305 133.219 97.8546 132.4C98.2127 131.839 98.422 131.052 98.1289 130.63C97.8994 130.3 97.3347 130.214 96.7078 130.214Z" fill="#6E39CB"/>
<path d="M7.5 221.5C6.12144 221.5 5 220.378 5 219C5 217.622 6.12158 216.5 7.5 216.5C8.87842 216.5 10 217.622 10 219C10 220.378 8.87842 221.5 7.5 221.5ZM7.5 217.074C6.43832 217.074 5.57458 217.938 5.57458 219C5.57458 220.062 6.43832 220.925 7.5 220.925C8.56168 220.925 9.42542 220.062 9.42542 219C9.42542 217.938 8.56168 217.074 7.5 217.074Z" fill="#6E39CB"/>
<path d="M287.5 5.5C286.121 5.5 285 4.37842 285 3C285 1.62158 286.122 0.5 287.5 0.5C288.878 0.5 290 1.62158 290 3C290 4.37842 288.878 5.5 287.5 5.5ZM287.5 1.07444C286.438 1.07444 285.575 1.93818 285.575 2.99986C285.575 4.06154 286.438 4.92528 287.5 4.92528C288.562 4.92528 289.425 4.06154 289.425 2.99986C289.425 1.93818 288.562 1.07444 287.5 1.07444Z" fill="#6E39CB"/>
<path d="M393 221.5C391.897 221.5 391 220.603 391 219.5C391 218.397 391.897 217.5 393 217.5C394.103 217.5 395 218.397 395 219.5C395 220.603 394.103 221.5 393 221.5ZM393 218.097C392.226 218.097 391.597 218.726 391.597 219.5C391.597 220.273 392.226 220.903 393 220.903C393.774 220.903 394.403 220.273 394.403 219.5C394.403 218.726 393.774 218.097 393 218.097Z" fill="#6E39CB"/>
<path d="M24.4978 91.9589C24.774 90.0137 25.226 90.0137 25.5022 91.9589C25.7784 93.9041 27.5959 95.7216 29.5411 95.9978C31.4863 96.274 31.4863 96.726 29.5411 97.0022C27.5959 97.2784 25.7784 99.0959 25.5022 101.041C25.226 102.986 24.774 102.986 24.4978 101.041C24.2216 99.0959 22.4041 97.2784 20.4589 97.0022C18.5137 96.726 18.5137 96.274 20.4589 95.9978C22.4041 95.7216 24.2216 93.9041 24.4978 91.9589Z" fill="#6E39CB"/>
<path d="M330.498 20.9589C330.774 19.0137 331.226 19.0137 331.502 20.9589C331.778 22.9041 333.596 24.7216 335.541 24.9978C337.486 25.274 337.486 25.726 335.541 26.0022C333.596 26.2784 331.778 28.0959 331.502 30.0411C331.226 31.9863 330.774 31.9863 330.498 30.0411C330.222 28.0959 328.404 26.2784 326.459 26.0022C324.514 25.726 324.514 25.274 326.459 24.9978C328.404 24.7216 330.222 22.9041 330.498 20.9589Z" fill="#6E39CB"/>
<path d="M364.116 115.771C363.86 116.546 364.043 117.31 364.523 117.47C365.003 117.63 365.605 117.127 365.861 116.353L367.884 110.229C368.14 109.454 367.957 108.69 367.477 108.53C366.997 108.37 366.395 108.873 366.139 109.647L364.116 115.771Z" fill="#6E39CB"/>
<path d="M373.686 121.642C373.098 122.116 372.837 122.832 373.106 123.234C373.375 123.635 374.076 123.576 374.664 123.102L379.314 119.358C379.902 118.884 380.163 118.168 379.894 117.766C379.625 117.365 378.924 117.424 378.336 117.898L373.686 121.642Z" fill="#6E39CB"/>
<path d="M378.496 133.507C377.716 133.449 377.044 133.744 377.002 134.163C376.96 134.582 377.563 134.973 378.343 135.031L384.504 135.493C385.284 135.551 385.956 135.256 385.998 134.837C386.04 134.418 385.437 134.027 384.657 133.969L378.496 133.507Z" fill="#6E39CB"/>
</g>
</g>
<defs>
<clipPath id="clip0_308_626">
<rect width="410" height="270" fill="white" transform="translate(0 0.5)"/>
</clipPath>
</defs>
</svg>
