<svg width="539" height="357" viewBox="0 0 539 357" fill="none" xmlns="http://www.w3.org/2000/svg">
<g clip-path="url(#clip0_308_768)">
<mask id="mask0_308_768" style="mask-type:luminance" maskUnits="userSpaceOnUse" x="0" y="0" width="539" height="357">
<path d="M539 0H0V357H539V0Z" fill="white"/>
</mask>
<g mask="url(#mask0_308_768)">
<path d="M151.332 104.217H118.384C117.712 104.217 117.168 104.778 117.168 105.469V354.554C117.168 355.245 117.712 355.806 118.384 355.806H151.332C152.004 355.806 152.549 355.245 152.549 354.554V105.469C152.549 104.778 152.004 104.217 151.332 104.217Z" fill="white"/>
<path d="M151.331 356.7H118.383C117.233 356.7 116.297 355.738 116.297 354.554V105.469C116.297 104.286 117.233 103.323 118.383 103.323H151.331C152.482 103.323 153.417 104.286 153.417 105.469V354.554C153.417 355.738 152.482 356.7 151.331 356.7ZM118.383 105.112C118.195 105.112 118.036 105.276 118.036 105.469V354.554C118.036 354.748 118.195 354.912 118.383 354.912H151.331C151.52 354.912 151.679 354.748 151.679 354.554V105.469C151.679 105.276 151.52 105.112 151.331 105.112H118.383Z" fill="#6E39CB"/>
<path d="M216.335 71.7583H183.387C182.715 71.7583 182.17 72.3188 182.17 73.0102V354.554C182.17 355.245 182.715 355.806 183.387 355.806H216.335C217.007 355.806 217.552 355.245 217.552 354.554V73.0102C217.552 72.3188 217.007 71.7583 216.335 71.7583Z" fill="white"/>
<path d="M216.335 356.7H183.387C182.237 356.7 181.301 355.738 181.301 354.554V73.0104C181.301 71.827 182.237 70.8643 183.387 70.8643H216.335C217.485 70.8643 218.421 71.827 218.421 73.0104V354.554C218.421 355.738 217.485 356.7 216.335 356.7ZM183.387 72.6527C183.198 72.6527 183.039 72.8165 183.039 73.0104V354.554C183.039 354.748 183.198 354.912 183.387 354.912H216.335C216.523 354.912 216.682 354.748 216.682 354.554V73.0104C216.682 72.8165 216.523 72.6527 216.335 72.6527H183.387Z" fill="#854CEA"/>
<path d="M345.117 52.0361H312.169C311.497 52.0361 310.953 52.5966 310.953 53.2881V354.554C310.953 355.246 311.497 355.806 312.169 355.806H345.117C345.789 355.806 346.334 355.246 346.334 354.554V53.2881C346.334 52.5966 345.789 52.0361 345.117 52.0361Z" fill="white"/>
<path d="M345.116 356.701H312.169C311.018 356.701 310.082 355.738 310.082 354.555V53.2882C310.082 52.1048 311.018 51.1421 312.169 51.1421H345.116C346.267 51.1421 347.202 52.1048 347.202 53.2882V354.555C347.202 355.738 346.267 356.701 345.116 356.701ZM312.169 52.9305C311.98 52.9305 311.821 53.0944 311.821 53.2882V354.555C311.821 354.748 311.98 354.912 312.169 354.912H345.116C345.305 354.912 345.464 354.748 345.464 354.555V53.2882C345.464 53.0944 345.305 52.9305 345.116 52.9305H312.169Z" fill="#854CEA"/>
<path d="M282.294 130.045H249.346C248.674 130.045 248.129 130.606 248.129 131.297V354.554C248.129 355.246 248.674 355.806 249.346 355.806H282.294C282.966 355.806 283.511 355.246 283.511 354.554V131.297C283.511 130.606 282.966 130.045 282.294 130.045Z" fill="white"/>
<path d="M282.294 356.701H249.346C248.196 356.701 247.26 355.738 247.26 354.554V131.298C247.26 130.114 248.196 129.151 249.346 129.151H282.294C283.444 129.151 284.38 130.114 284.38 131.298V354.554C284.38 355.738 283.444 356.701 282.294 356.701ZM249.346 130.94C249.157 130.94 248.998 131.104 248.998 131.298V354.554C248.998 354.748 249.157 354.912 249.346 354.912H282.294C282.482 354.912 282.641 354.748 282.641 354.554V131.298C282.641 131.104 282.482 130.94 282.294 130.94H249.346Z" fill="#6E39CB"/>
<path d="M405.823 12.396H372.875C372.203 12.396 371.658 12.9565 371.658 13.6479V354.555C371.658 355.246 372.203 355.807 372.875 355.807H405.823C406.495 355.807 407.04 355.246 407.04 354.555V13.6479C407.04 12.9565 406.495 12.396 405.823 12.396Z" fill="white"/>
<path d="M405.823 356.701H372.875C371.725 356.701 370.789 355.738 370.789 354.555V13.6481C370.789 12.4647 371.725 11.502 372.875 11.502H405.823C406.973 11.502 407.909 12.4647 407.909 13.6481V354.555C407.909 355.738 406.973 356.701 405.823 356.701ZM372.875 13.2904C372.687 13.2904 372.527 13.4542 372.527 13.6481V354.555C372.527 354.749 372.687 354.913 372.875 354.913H405.823C406.011 354.913 406.171 354.749 406.171 354.555V13.6481C406.171 13.4542 406.011 13.2904 405.823 13.2904H372.875Z" fill="#6E39CB"/>
<path d="M90.2438 186.378L88.2305 183.462C90.5706 181.752 179.127 115.147 186.36 109.6C187.149 108.995 188.207 108.937 189.054 109.454L286.502 168.836L423.494 13.8271L426.066 16.2335L288.502 171.89C287.729 172.764 286.45 172.962 285.462 172.36L187.879 112.895C177.539 120.773 92.5367 184.703 90.2438 186.378Z" fill="#6E39CB"/>
<path d="M437.104 30.0607C436.519 30.0607 435.946 29.8266 435.513 29.3844L410.918 4.26994C410.218 3.55492 410.008 2.48667 410.383 1.54863C410.76 0.607897 411.643 0 412.634 0H437.106C438.352 0 439.366 1.04124 439.366 2.32106V27.7386C439.366 28.6783 438.82 29.5192 437.976 29.8808C437.694 30.0019 437.397 30.0607 437.104 30.0607ZM415.175 3.57691L435.889 24.7294V3.57691H415.175Z" fill="#6E39CB"/>
<path d="M492.047 338.247V350.027C492.047 352.146 467.784 353.863 437.854 353.863C407.924 353.863 383.662 352.146 383.662 350.027V338.247" fill="white"/>
<path d="M437.855 354.579C423.365 354.579 409.738 354.179 399.488 353.454C394.489 353.1 390.56 352.687 387.81 352.227C383.759 351.549 382.967 350.908 382.967 350.028V338.247H384.358V349.848C384.784 350.133 387.256 351.21 400.809 352.11C410.876 352.78 424.033 353.148 437.855 353.148C451.678 353.148 464.834 352.78 474.901 352.11C488.455 351.21 490.926 350.133 491.352 349.848V338.247H492.743V350.028C492.743 350.908 491.951 351.549 487.901 352.227C485.15 352.687 481.221 353.1 476.223 353.454C465.972 354.179 452.346 354.579 437.855 354.579Z" fill="#6E39CB"/>
<path d="M492.047 327.29V339.071C492.047 341.189 467.784 342.907 437.854 342.907C407.924 342.907 383.662 341.189 383.662 339.071V327.29" fill="white"/>
<path d="M437.855 343.622C423.365 343.622 409.739 343.223 399.488 342.497C394.489 342.143 390.56 341.73 387.81 341.27C383.759 340.592 382.967 339.951 382.967 339.071V327.29H384.358V338.891C384.784 339.176 387.256 340.253 400.809 341.154C410.876 341.823 424.033 342.191 437.855 342.191C451.678 342.191 464.834 341.823 474.901 341.154C488.455 340.253 490.926 339.176 491.352 338.891V327.29H492.743V339.071C492.743 339.951 491.951 340.592 487.901 341.27C485.15 341.73 481.221 342.143 476.223 342.497C465.972 343.223 452.346 343.622 437.855 343.622Z" fill="#6E39CB"/>
<path d="M492.047 315.791V327.571C492.047 329.69 467.784 331.407 437.854 331.407C407.924 331.407 383.662 329.69 383.662 327.571V315.791" fill="white"/>
<path d="M437.855 332.123C423.365 332.123 409.739 331.723 399.488 330.997C394.489 330.643 390.56 330.231 387.81 329.771C383.759 329.093 382.967 328.451 382.967 327.571V315.791H384.358V327.392C384.784 327.676 387.256 328.753 400.809 329.654C410.876 330.323 424.033 330.692 437.855 330.692C451.678 330.692 464.834 330.323 474.901 329.654C488.455 328.753 490.926 327.676 491.352 327.392V315.791H492.743V327.571C492.743 328.451 491.951 329.093 487.901 329.771C485.15 330.231 481.221 330.644 476.223 330.997C465.972 331.723 452.346 332.123 437.855 332.123Z" fill="#6E39CB"/>
<path d="M492.047 304.834V316.615C492.047 318.733 467.784 320.451 437.854 320.451C407.924 320.451 383.662 318.733 383.662 316.615V304.834" fill="white"/>
<path d="M437.855 321.166C423.365 321.166 409.738 320.767 399.488 320.041C394.489 319.687 390.56 319.275 387.81 318.814C383.759 318.137 382.967 317.495 382.967 316.615V304.834H384.358V316.436C384.784 316.72 387.256 317.797 400.809 318.698C410.876 319.367 424.033 319.736 437.855 319.736C451.678 319.736 464.834 319.367 474.901 318.698C488.455 317.797 490.926 316.72 491.352 316.436V304.834H492.743V316.615C492.743 317.495 491.951 318.137 487.901 318.814C485.15 319.275 481.221 319.688 476.223 320.041C465.972 320.767 452.346 321.166 437.855 321.166Z" fill="#6E39CB"/>
<path d="M492.047 293.466V305.247C492.047 307.366 467.784 309.083 437.854 309.083C407.924 309.083 383.662 307.366 383.662 305.247V293.466" fill="white"/>
<path d="M437.855 309.798C423.364 309.798 409.738 309.399 399.488 308.673C394.489 308.319 390.56 307.907 387.81 307.446C383.759 306.769 382.967 306.127 382.967 305.247V293.466H384.358V305.068C384.784 305.352 387.256 306.429 400.809 307.33C410.876 307.999 424.033 308.368 437.855 308.368C451.678 308.368 464.834 307.999 474.901 307.33C488.455 306.429 490.926 305.352 491.352 305.068V293.466H492.743V305.247C492.743 306.127 491.951 306.769 487.901 307.446C485.15 307.907 481.221 308.32 476.223 308.673C465.972 309.399 452.346 309.798 437.855 309.798Z" fill="#6E39CB"/>
<path d="M492.047 282.509V294.29C492.047 296.409 467.784 298.126 437.854 298.126C407.924 298.126 383.662 296.409 383.662 294.29V282.509" fill="white"/>
<path d="M437.855 298.841C423.365 298.841 409.739 298.442 399.488 297.716C394.489 297.362 390.56 296.95 387.81 296.489C383.759 295.812 382.967 295.17 382.967 294.29V282.509H384.358V294.111C384.784 294.395 387.256 295.472 400.809 296.373C410.876 297.042 424.033 297.411 437.855 297.411C451.678 297.411 464.834 297.042 474.901 296.373C488.455 295.472 490.926 294.395 491.352 294.111V282.509H492.743V294.29C492.743 295.17 491.951 295.812 487.901 296.489C485.15 296.95 481.221 297.362 476.223 297.716C465.972 298.442 452.346 298.841 437.855 298.841Z" fill="#6E39CB"/>
<path d="M492.047 271.094V282.875C492.047 284.994 467.784 286.711 437.854 286.711C407.924 286.711 383.662 284.994 383.662 282.875V271.094" fill="white"/>
<path d="M437.855 287.426C423.365 287.426 409.738 287.027 399.488 286.301C394.489 285.947 390.56 285.535 387.81 285.074C383.759 284.397 382.967 283.755 382.967 282.875V271.094H384.358V282.696C384.784 282.98 387.256 284.057 400.809 284.958C410.876 285.627 424.033 285.995 437.855 285.995C451.678 285.995 464.834 285.627 474.901 284.958C488.455 284.057 490.926 282.98 491.352 282.696V271.094H492.743V282.875C492.743 283.755 491.951 284.397 487.901 285.074C485.15 285.535 481.221 285.948 476.223 286.301C465.972 287.027 452.346 287.426 437.855 287.426Z" fill="#6E39CB"/>
<path d="M492.047 259.367V271.148C492.047 273.267 467.784 274.984 437.854 274.984C407.924 274.984 383.662 273.267 383.662 271.148V259.367" fill="white"/>
<path d="M437.855 275.699C423.365 275.699 409.739 275.3 399.488 274.574C394.489 274.22 390.56 273.808 387.81 273.347C383.759 272.67 382.967 272.028 382.967 271.148V259.367H384.358V270.969C384.784 271.253 387.256 272.33 400.809 273.231C410.876 273.9 424.033 274.268 437.855 274.268C451.678 274.268 464.834 273.9 474.901 273.231C488.455 272.33 490.926 271.253 491.352 270.969V259.367H492.743V271.148C492.743 272.028 491.951 272.67 487.901 273.347C485.15 273.808 481.221 274.22 476.223 274.574C465.972 275.3 452.346 275.699 437.855 275.699Z" fill="#6E39CB"/>
<path d="M492.048 259.367C492.048 261.485 467.785 263.202 437.855 263.202C426.507 263.202 415.975 262.955 407.269 262.533C393.014 261.843 383.662 260.682 383.662 259.367C383.662 258.053 393.014 256.89 407.269 256.2C415.975 255.778 426.507 255.531 437.855 255.531C467.785 255.531 492.048 257.248 492.048 259.367Z" fill="white"/>
<path d="M437.857 263.917C426.865 263.917 416.276 263.686 407.237 263.247C400.093 262.901 394.144 262.433 390.033 261.894C387.919 261.616 386.281 261.319 385.166 261.01C384.024 260.694 382.967 260.276 382.967 259.367C382.967 258.458 384.024 258.04 385.166 257.724C386.281 257.414 387.918 257.117 390.033 256.839C394.142 256.3 400.092 255.832 407.237 255.486C416.273 255.048 426.861 254.816 437.857 254.816C452.348 254.816 465.974 255.215 476.224 255.941C481.222 256.295 485.151 256.708 487.902 257.168C491.952 257.846 492.744 258.488 492.744 259.368C492.744 260.247 491.952 260.889 487.902 261.566C485.151 262.026 481.222 262.439 476.224 262.792C465.972 263.518 452.347 263.917 437.857 263.917ZM384.696 259.367C386.299 260.028 392.335 261.093 407.302 261.818C416.32 262.255 426.886 262.486 437.857 262.486C451.679 262.486 464.835 262.118 474.902 261.449C486.411 260.684 489.929 259.793 490.99 259.367C489.929 258.941 486.411 258.049 474.902 257.284C464.836 256.615 451.68 256.246 437.857 256.246C426.882 256.246 416.317 256.477 407.302 256.914C392.333 257.64 386.298 258.705 384.696 259.367Z" fill="#6E39CB"/>
<path d="M283.899 353.751C320.443 353.751 350.068 323.273 350.068 285.676C350.068 248.079 320.443 217.601 283.899 217.601C247.355 217.601 217.73 248.079 217.73 285.676C217.73 323.273 247.355 353.751 283.899 353.751Z" fill="white"/>
<path d="M283.893 354.483C282.954 354.483 282.013 354.463 281.07 354.422C272.128 354.037 263.456 351.827 255.297 347.855C247.139 343.882 239.98 338.384 234.02 331.514C228.264 324.878 223.863 317.247 220.939 308.835C218.016 300.422 216.717 291.651 217.079 282.765C217.454 273.564 219.601 264.643 223.463 256.249C227.324 247.855 232.668 240.49 239.346 234.359C245.796 228.436 253.213 223.908 261.39 220.901C269.567 217.893 278.094 216.558 286.73 216.929C295.673 217.315 304.344 219.525 312.503 223.497C320.662 227.47 327.821 232.967 333.78 239.838C339.537 246.474 343.938 254.104 346.861 262.517C349.785 270.929 351.084 279.701 350.722 288.587C350.347 297.788 348.199 306.709 344.338 315.103C340.477 323.497 335.133 330.862 328.455 336.993C322.005 342.915 314.588 347.443 306.411 350.451C299.126 353.13 291.564 354.483 283.894 354.483H283.893ZM283.944 218.281C276.515 218.281 269.061 219.599 261.858 222.248C245.39 228.306 232.201 240.598 224.719 256.861C209.276 290.434 223.26 330.673 255.892 346.562C271.7 354.259 289.475 355.161 305.943 349.104C322.41 343.047 335.6 330.754 343.081 314.491C350.562 298.228 351.439 279.941 345.552 262.999C339.664 246.057 327.716 232.487 311.908 224.791C303.015 220.461 293.499 218.281 283.945 218.281H283.944Z" fill="#6E39CB"/>
<path d="M283.432 346.545C274.796 346.545 266.197 344.575 258.16 340.661C243.873 333.705 233.075 321.442 227.753 306.13C222.432 290.819 223.225 274.292 229.987 259.593C236.748 244.895 248.668 233.786 263.551 228.312C278.434 222.837 294.498 223.653 308.785 230.609C323.071 237.565 333.87 249.829 339.191 265.14C344.512 280.452 343.719 296.979 336.957 311.677C330.196 326.375 318.276 337.485 303.393 342.959C296.884 345.354 290.146 346.545 283.432 346.545ZM283.562 226.192C261.905 226.192 241.106 238.765 231.244 260.205C224.641 274.558 223.867 290.697 229.063 305.649C234.259 320.601 244.804 332.576 258.754 339.368C272.705 346.161 288.392 346.957 302.925 341.612C317.458 336.266 329.098 325.418 335.7 311.065C349.33 281.437 336.989 245.924 308.19 231.902C300.231 228.027 291.833 226.192 283.562 226.192Z" fill="#6E39CB"/>
<path d="M297.004 263.24C300.629 265.031 303.765 267.304 306.414 270.058L303.229 276.981L300.145 275.479C300.478 273.262 300.287 271.384 299.571 269.845C298.855 268.306 297.567 267.045 295.707 266.061L288.615 281.478C290.864 284.326 292.455 286.669 293.388 288.51C294.32 290.35 294.852 292.152 294.982 293.915C295.111 295.678 294.743 297.501 293.878 299.381C292.276 302.864 290.095 305.091 287.335 306.062C284.575 307.032 281.277 306.767 277.443 305.266L274.701 311.228L271.46 309.651L274.173 303.753C272.344 302.81 270.48 301.628 268.579 300.205C266.678 298.783 265.113 297.419 263.883 296.114L267.127 289.062L270.242 290.579C269.728 293.023 269.876 295.064 270.687 296.7C271.497 298.337 273.077 299.78 275.427 301.028L283.064 284.425L282.462 283.661C280.36 280.99 278.889 278.829 278.047 277.177C277.206 275.525 276.721 273.896 276.596 272.292C276.469 270.687 276.794 269.041 277.571 267.353C278.318 265.729 279.277 264.417 280.449 263.418C281.62 262.419 282.92 261.705 284.351 261.277C285.78 260.849 287.296 260.691 288.897 260.803C290.497 260.916 292.09 261.266 293.675 261.855L296.491 255.733L299.732 257.31L297.004 263.24ZM285.729 287.253L278.711 302.51C280.741 303.237 282.557 303.239 284.161 302.515C285.765 301.792 287.044 300.395 287.997 298.322C288.842 296.484 289.077 294.702 288.702 292.976C288.326 291.251 287.335 289.343 285.729 287.253ZM285.964 278.618L292.422 264.579C290.527 263.945 288.768 263.944 287.142 264.578C285.515 265.212 284.304 266.394 283.508 268.125C282.712 269.855 282.512 271.518 282.911 273.111C283.309 274.704 284.327 276.54 285.964 278.618Z" fill="#6E39CB"/>
<path d="M200.198 313.946C193.36 323.568 189.836 327.205 181.739 333.856C181.221 334.281 178.824 334.995 177.296 336.595C174.183 339.854 170.054 340.415 168.595 340.614C167.778 340.725 161.861 341.571 157.588 338.421C156.472 337.599 156.091 336.964 156.039 336.341C155.919 334.927 157.539 333.997 159.365 332.029C160.286 331.037 161.103 329.724 162.737 327.099C166.004 321.851 167.514 316.677 168.241 314.129C170.363 306.687 170.741 305.322 170.193 303.9C169.494 302.082 168.124 300.849 166.643 299.517C164.691 297.761 163.431 297.317 160.608 295.683C157.15 293.681 154.845 292.347 152.941 290.43C154.05 287.688 155.365 284.413 157.233 280.157C160.533 272.64 162.694 268.589 163.982 266.057C167.599 265.774 171.992 265.159 176.241 263.868C179.884 265.384 183.665 267.119 188.124 270.111C193.14 273.473 196.321 276.796 202.683 283.444C205.658 286.551 208.434 289.713 209.962 294.586C210.216 295.393 210.386 295.933 210.494 296.595C210.897 299.056 208.56 302.18 200.198 313.946Z" fill="#6E39CB"/>
<path d="M165.885 341.244C163.387 341.244 160.048 340.784 157.335 338.785C156.209 337.955 155.676 337.213 155.607 336.38C155.502 335.147 156.429 334.269 157.603 333.157C158.044 332.74 158.543 332.267 159.051 331.721C159.943 330.759 160.755 329.455 162.371 326.857C165.67 321.559 167.179 316.264 167.824 314.003C169.938 306.592 170.275 305.326 169.789 304.065C169.129 302.347 167.845 301.192 166.358 299.854C164.959 298.595 163.923 298.028 162.356 297.17C161.789 296.859 161.145 296.507 160.395 296.072C156.895 294.046 154.583 292.708 152.638 290.749L152.428 290.538L152.748 289.745C153.788 287.174 155.082 283.973 156.838 279.973C159.724 273.397 161.735 269.48 163.065 266.889C163.257 266.515 163.434 266.17 163.597 265.849L163.709 265.63L163.95 265.611C168.435 265.26 172.529 264.53 176.118 263.439L176.264 263.395L176.404 263.453C180.505 265.16 184.108 266.881 188.362 269.737C193.419 273.127 196.619 276.47 202.994 283.13C205.998 286.268 208.823 289.495 210.376 294.449C210.63 295.255 210.811 295.829 210.923 296.521C211.336 299.042 209.313 301.887 201.784 312.473L200.549 314.21C193.532 324.084 189.94 327.692 182.011 334.205C181.807 334.373 181.454 334.537 180.966 334.765C180.024 335.204 178.6 335.868 177.607 336.908C174.389 340.276 170.073 340.864 168.654 341.057L168.626 341.061C167.977 341.149 167.017 341.244 165.885 341.244ZM153.457 290.319C155.281 292.086 157.51 293.377 160.821 295.293C161.563 295.722 162.201 296.072 162.764 296.38C164.385 297.268 165.456 297.854 166.93 299.18C168.437 300.536 169.86 301.817 170.598 303.736C171.207 305.319 170.818 306.683 168.658 314.255C168.003 316.552 166.469 321.934 163.103 327.34C161.457 329.986 160.63 331.314 159.679 332.338C159.152 332.906 158.642 333.389 158.192 333.815C157.116 334.834 156.405 335.508 156.472 336.302C156.503 336.673 156.687 337.207 157.841 338.058C161.531 340.777 166.532 340.444 168.511 340.174L168.539 340.171C170.027 339.968 173.978 339.43 176.986 336.282C178.093 335.123 179.605 334.417 180.606 333.951C180.988 333.773 181.349 333.605 181.468 333.506C189.328 327.05 192.889 323.473 199.847 313.682L201.082 311.945C208.253 301.861 210.418 298.818 210.065 296.669C209.963 296.042 209.8 295.522 209.552 294.735C208.053 289.956 205.302 286.816 202.374 283.758C196.043 277.143 192.865 273.823 187.887 270.486C183.739 267.703 180.214 266.009 176.218 264.341C172.67 265.406 168.647 266.126 164.255 266.484C164.123 266.742 163.983 267.016 163.833 267.307C162.508 269.889 160.505 273.79 157.63 280.341C155.879 284.329 154.642 287.39 153.55 290.089L153.457 290.319Z" fill="white"/>
<path d="M198.847 354.448H156.248C151.945 347.106 156.248 336.558 156.248 336.558C156.248 336.558 170.448 332.131 182.066 336.558C182.066 336.558 204.871 342.679 198.847 354.448Z" fill="white"/>
<path d="M199.11 354.895H156.003L155.876 354.679C151.509 347.228 155.668 336.824 155.848 336.385L155.927 336.191L156.122 336.13C156.266 336.085 170.58 331.715 182.197 336.131C183.027 336.356 196.491 340.108 199.643 347.457C200.633 349.767 200.495 352.189 199.232 354.657L199.11 354.895ZM156.497 354.001H198.581C199.604 351.871 199.693 349.792 198.848 347.819C195.835 340.791 182.094 337.027 181.956 336.99L181.915 336.977C171.304 332.934 158.332 336.42 156.574 336.927C156.032 338.374 152.87 347.493 156.497 354.001Z" fill="#854CEA"/>
<path d="M169.967 303.38C170.259 303.752 170.489 304.16 170.699 304.577C170.905 304.996 171.082 305.429 171.232 305.872C171.382 306.316 171.498 306.772 171.583 307.235C171.661 307.7 171.706 308.174 171.675 308.65C171.491 308.211 171.342 307.777 171.187 307.345C171.031 306.913 170.885 306.481 170.739 306.047C170.593 305.613 170.453 305.177 170.32 304.735C170.19 304.292 170.062 303.847 169.967 303.38Z" fill="white"/>
<path d="M166.185 262.341C164.897 264.874 162.736 268.925 159.437 276.442C157.568 280.698 156.254 283.973 155.145 286.714C152.902 292.262 151.506 295.632 148.075 300.552C145.869 303.712 143.273 307.434 138.842 311.145C131.996 316.879 128.647 316.406 116.473 321.738C106.321 326.186 98.4632 331.784 94.1034 334.89C84.8882 341.454 84.1199 343.689 79.1898 345.399C70.418 348.441 61.4862 345.304 55.4002 342.251C53.6253 337.194 55.4002 335.691 55.4002 335.691L104.401 289.662L107.242 282.488C107.357 276.302 108.516 260.045 120.424 248.899C121.516 247.878 122.547 247.041 123.47 246.363C124.61 248.683 127.421 252.029 134.715 255.801C137.664 257.325 142.926 259.984 150.227 261.488C151.226 261.694 152.264 261.878 153.342 262.036C154.828 262.252 156.388 262.416 158.016 262.513C158.016 262.513 161.432 262.715 166.185 262.341Z" fill="#6E39CB"/>
<path d="M71.6442 347.085C66.5932 347.085 61.0944 345.605 55.2098 342.653L55.0513 342.574L54.9915 342.403C53.1969 337.289 54.9169 335.535 55.1097 335.359L104.036 289.4L106.809 282.396C106.972 274.227 108.929 259.054 120.132 248.568C121.134 247.631 122.172 246.767 123.217 245.999L123.629 245.697L123.858 246.161C125.399 249.297 129.118 252.406 134.91 255.401C137.496 256.737 142.875 259.518 150.312 261.05C151.328 261.259 152.368 261.441 153.403 261.593C154.931 261.815 156.492 261.975 158.041 262.067C158.075 262.069 161.487 262.263 166.152 261.895L166.934 261.834L166.57 262.549C166.407 262.87 166.229 263.216 166.037 263.591C164.711 266.173 162.708 270.075 159.833 276.625C158.083 280.611 156.847 283.67 155.756 286.368L155.546 286.886C153.196 292.701 151.812 295.961 148.428 300.812C146.153 304.071 143.586 307.748 139.117 311.491C134.566 315.303 131.547 316.405 126.546 318.23C123.993 319.162 120.816 320.321 116.643 322.149C106.529 326.58 98.6069 332.225 94.3511 335.257C90.6584 337.888 88.3735 339.782 86.5374 341.304C83.8374 343.542 82.35 344.775 79.3289 345.823C76.9011 346.665 74.3361 347.085 71.6442 347.085ZM55.7503 341.929C64.4938 346.28 72.3328 347.305 79.0513 344.975C81.9255 343.978 83.3699 342.781 85.9921 340.607C87.7416 339.157 90.1378 337.171 93.8563 334.522C98.1376 331.472 106.107 325.793 116.303 321.326C120.5 319.488 123.691 318.323 126.255 317.388C131.168 315.594 134.134 314.512 138.568 310.798C142.948 307.13 145.479 303.504 147.713 300.304C151.05 295.519 152.419 292.295 154.744 286.543L154.953 286.025C155.992 283.454 157.286 280.255 159.041 276.257C161.927 269.681 163.938 265.765 165.268 263.174C165.326 263.061 165.382 262.952 165.437 262.844C161.114 263.137 158.025 262.961 157.992 262.959C156.419 262.866 154.834 262.704 153.282 262.478C152.23 262.325 151.174 262.139 150.142 261.927C142.59 260.371 137.14 257.554 134.521 256.201C128.835 253.26 125.071 250.176 123.323 247.025C122.44 247.696 121.565 248.436 120.717 249.23C109.717 259.526 107.825 274.492 107.677 282.497L107.675 282.58L104.767 289.924L104.695 289.992L55.6852 336.029L55.6766 336.037C55.6679 336.045 54.2226 337.439 55.7503 341.929Z" fill="white"/>
<path d="M93.1673 354.036H53.8136C49.8385 347.253 53.8136 337.509 53.8136 337.509C53.8136 337.509 66.9315 333.419 77.6643 337.509C77.6643 337.509 98.7323 343.163 93.1673 354.036Z" fill="white"/>
<path d="M93.4296 354.483H53.5681L53.4414 354.267C49.3988 347.368 53.2471 337.742 53.4129 337.335L53.492 337.141L53.6876 337.08C53.82 337.039 67.0531 332.999 77.7952 337.082C78.5787 337.294 91.0167 340.764 93.9325 347.564C94.8516 349.708 94.7237 351.955 93.552 354.244L93.4296 354.483ZM54.0625 353.589H92.9008C93.8324 351.637 93.9122 349.733 93.1374 347.926C90.3607 341.448 77.6822 337.975 77.5544 337.941L77.5132 337.928C67.75 334.208 55.8199 337.395 54.139 337.878C53.6239 339.259 50.7474 347.614 54.0625 353.589Z" fill="#854CEA"/>
<path d="M110.038 288.045C109.521 288.264 109.009 288.434 108.5 288.605L106.98 289.101L105.457 289.589C104.945 289.748 104.43 289.91 103.885 290.036C104.297 289.646 104.762 289.337 105.248 289.069C105.735 288.807 106.245 288.586 106.771 288.419C107.297 288.249 107.836 288.127 108.383 288.058C108.93 287.991 109.483 287.97 110.038 288.045Z" fill="white"/>
<path d="M107.296 281.612C107.422 281.908 107.504 282.205 107.574 282.501C107.642 282.797 107.695 283.094 107.739 283.39C107.783 283.685 107.817 283.981 107.849 284.276C107.864 284.423 107.879 284.571 107.899 284.717C107.918 284.866 107.939 285.007 108.005 285.153C107.853 285.091 107.748 284.944 107.66 284.811C107.573 284.673 107.508 284.527 107.451 284.379C107.34 284.082 107.269 283.777 107.224 283.47C107.179 283.163 107.16 282.854 107.168 282.544C107.177 282.234 107.207 281.923 107.296 281.611V281.612Z" fill="white"/>
<path d="M239.79 218.237C239.711 218.9 238.152 218.968 237.924 219.973C237.771 220.649 238.392 220.998 238.458 221.708C238.583 223.075 237.897 224.351 236.77 226.091C234.288 229.928 233.38 232.442 230.912 234.494C229.53 235.642 227.897 235.41 226.474 235.773C219.278 237.606 217.455 236.338 209.74 238.146C202.746 239.788 197.074 242.005 192.697 240.612C192.353 240.503 191.518 240.204 190.833 240.612C189.535 241.385 189.86 244.042 190.3 250.749C190.663 256.261 190.672 257.955 189.502 259.105C188.732 259.863 187.925 259.661 186.039 260.339C182.917 261.462 180.461 262.376 179.291 262.814C178.919 262.954 178.675 263.045 178.583 263.079C177.811 263.367 177.029 263.628 176.241 263.867C171.993 265.159 167.6 265.774 163.982 266.057C159.23 266.43 155.814 266.228 155.814 266.228C154.185 266.132 152.626 265.967 151.139 265.751C150.062 265.593 149.024 265.409 148.024 265.203C140.723 263.699 135.461 261.04 132.513 259.516C125.218 255.744 122.407 252.398 121.267 250.078C121.076 249.69 120.932 249.331 120.822 249.004C120.676 248.569 120.587 248.19 120.528 247.873C120.379 247.072 120.384 246.198 120.396 244.448C120.429 238.895 121.34 234.403 121.994 231.707C125.94 215.413 136.108 195.954 136.108 195.954C140.068 188.375 142.112 184.515 145.295 181.16C151.69 174.412 159.035 171.275 163.847 169.737L166.999 167.734C167.628 167.702 168.666 167.716 169.839 168.099C172.387 168.931 173.853 170.936 174.277 171.479C177.608 175.739 183.661 174.691 190.559 180.701C195.789 185.256 199.946 190.916 202.062 195.314C203.066 197.401 204.207 199.417 205.17 201.525C206.748 204.984 207.084 206.259 208.454 207.461C210.044 208.856 210.773 208.171 214.312 209.379C220.028 211.33 221.796 214.39 227.362 214.494C227.756 214.501 232.339 214.572 237.126 216.32C237.126 216.32 239.894 217.33 239.79 218.237Z" fill="#854CEA"/>
<path d="M158.287 266.729C156.739 266.729 155.807 266.676 155.789 266.675C154.215 266.582 152.631 266.42 151.078 266.194C150.026 266.04 148.969 265.855 147.938 265.642C140.384 264.086 134.935 261.269 132.316 259.916C126.354 256.833 122.505 253.591 120.878 250.28C120.693 249.904 120.536 249.524 120.411 249.149C120.279 248.756 120.176 248.366 120.1 247.958C119.942 247.108 119.948 246.218 119.96 244.445C119.986 240.165 120.512 235.963 121.571 231.599C125.485 215.438 135.621 195.938 135.723 195.743C139.574 188.374 141.695 184.314 144.983 180.848C149.977 175.578 156.263 171.702 163.664 169.328L166.865 167.294L166.977 167.288C168.017 167.235 169.023 167.364 169.97 167.673C172.536 168.511 174.057 170.478 174.557 171.124L174.615 171.2C176.146 173.158 178.261 173.931 180.94 174.909C183.879 175.982 187.212 177.199 190.839 180.36C195.63 184.531 200.079 190.186 202.451 195.116C202.883 196.015 203.35 196.918 203.802 197.792C204.397 198.942 205.012 200.131 205.562 201.335C205.896 202.066 206.172 202.697 206.417 203.254C207.316 205.303 207.727 206.237 208.734 207.121C209.564 207.849 210.089 207.941 211.135 208.123C211.891 208.255 212.928 208.436 214.449 208.954C216.756 209.742 218.451 210.719 219.947 211.581C222.187 212.872 224.12 213.986 227.369 214.047C228.223 214.062 232.68 214.223 237.27 215.898C238.201 216.238 240.351 217.151 240.22 218.29V218.291C240.156 218.831 239.659 219.089 239.22 219.318C238.829 219.521 238.424 219.732 238.346 220.075C238.302 220.271 238.376 220.414 238.535 220.695C238.676 220.944 238.852 221.255 238.891 221.666C239.036 223.252 238.18 224.721 237.132 226.34C236.381 227.501 235.764 228.557 235.221 229.488C233.957 231.655 232.959 233.367 231.184 234.842C230.126 235.72 228.93 235.866 227.874 235.995C227.417 236.05 226.986 236.103 226.577 236.207C222.904 237.143 220.646 237.277 218.255 237.42C215.975 237.555 213.618 237.695 209.835 238.582C208.3 238.943 206.833 239.33 205.414 239.704C200.415 241.023 196.097 242.163 192.567 241.04L192.516 241.023C192.199 240.921 191.538 240.709 191.05 240.999C190.112 241.558 190.278 244.006 190.609 248.884C190.648 249.459 190.689 250.07 190.732 250.719C191.091 256.158 191.146 258.106 189.801 259.428C189.248 259.973 188.668 260.104 187.932 260.27C187.474 260.373 186.905 260.501 186.182 260.761C183.113 261.865 180.639 262.785 179.438 263.235C179.063 263.375 178.821 263.466 178.729 263.5C177.988 263.776 177.192 264.045 176.365 264.296C172.716 265.405 168.56 266.147 164.014 266.503C161.728 266.682 159.738 266.729 158.287 266.729ZM167.13 168.176L164.028 170.148L163.975 170.165C156.691 172.493 150.51 176.298 145.606 181.473C142.403 184.849 140.303 188.869 136.49 196.167C136.389 196.361 126.302 215.764 122.414 231.816C121.373 236.109 120.855 240.243 120.83 244.452C120.818 246.166 120.812 247.027 120.955 247.789C121.023 248.155 121.114 248.505 121.233 248.858C121.345 249.194 121.486 249.536 121.654 249.876C123.195 253.013 126.914 256.122 132.707 259.117C135.291 260.453 140.67 263.233 148.108 264.765C149.124 264.974 150.164 265.157 151.199 265.308C152.728 265.531 154.289 265.69 155.839 265.782C155.873 265.784 159.284 265.978 163.949 265.611C168.435 265.261 172.528 264.53 176.117 263.439C176.928 263.192 177.707 262.93 178.434 262.659C178.527 262.624 178.768 262.534 179.136 262.396C180.345 261.944 182.82 261.023 185.895 259.917C186.667 259.639 187.265 259.504 187.745 259.396C188.441 259.239 188.825 259.153 189.201 258.782C190.211 257.79 190.228 256.284 189.865 250.779C189.823 250.131 189.781 249.52 189.742 248.946C189.353 243.209 189.207 241.063 190.615 240.225C191.433 239.739 192.373 240.04 192.774 240.169L192.824 240.185C196.119 241.234 200.327 240.123 205.199 238.838C206.623 238.462 208.096 238.074 209.643 237.71C213.497 236.807 215.89 236.664 218.205 236.527C220.554 236.387 222.773 236.255 226.368 235.339C226.829 235.221 227.309 235.163 227.772 235.106C228.802 234.981 229.776 234.863 230.639 234.146C232.294 232.771 233.209 231.201 234.477 229.028C235.025 228.088 235.645 227.023 236.408 225.844C237.565 224.057 238.133 222.933 238.024 221.75C238.004 221.535 237.903 221.354 237.785 221.144C237.603 220.822 237.377 220.422 237.501 219.872C237.671 219.122 238.34 218.773 238.829 218.519C239.009 218.426 239.309 218.27 239.357 218.181C239.329 217.911 238.272 217.213 236.98 216.741C232.517 215.112 228.186 214.956 227.363 214.941C223.887 214.876 221.864 213.71 219.521 212.361C217.988 211.477 216.403 210.564 214.174 209.803C212.716 209.306 211.759 209.139 210.99 209.005C209.902 208.815 209.183 208.69 208.171 207.802C207.015 206.788 206.552 205.73 205.626 203.622C205.383 203.068 205.106 202.44 204.776 201.715C204.235 200.531 203.625 199.352 203.035 198.212C202.58 197.333 202.111 196.423 201.673 195.513C199.35 190.685 194.983 185.14 190.277 181.042C186.771 177.987 183.52 176.799 180.651 175.751C177.954 174.766 175.623 173.916 173.938 171.76L173.878 171.681C173.419 171.087 172.021 169.281 169.707 168.525C168.893 168.26 168.027 168.142 167.13 168.176Z" fill="white"/>
<path d="M239.788 218.238C241.794 217.267 243.466 217.01 244.64 216.959C247.642 216.83 248.611 218.002 251.742 217.507C253.095 217.293 253.595 216.967 254.76 217.142C256.417 217.391 257.668 218.393 258.311 218.908C258.812 219.309 258.848 219.422 258.862 219.476C259.173 220.753 255.002 223.2 252.097 224.083C246.854 225.675 241.719 223.391 238.9 221.769L238.358 221.314L237.987 220.581C237.987 220.581 237.647 219.76 238.343 219.336C239.039 218.911 239.508 218.638 239.508 218.638C239.508 218.638 239.544 218.763 239.788 218.238Z" fill="white"/>
<path d="M248.389 225.07C244.663 225.07 241.196 223.602 238.689 222.159L238.626 222.116L238.015 221.603L237.587 220.757C237.418 220.348 237.313 219.445 238.122 218.952C238.797 218.539 239.268 218.265 239.294 218.25C239.317 218.208 239.351 218.143 239.396 218.045L239.463 217.901L239.603 217.833C241.267 217.028 242.956 216.584 244.623 216.513C246.026 216.452 246.992 216.663 247.926 216.867C249.008 217.103 250.03 217.326 251.676 217.065C252.096 216.999 252.437 216.92 252.737 216.85C253.417 216.693 253.953 216.569 254.824 216.699C256.594 216.966 257.934 218.039 258.578 218.554C259.108 218.979 259.235 219.167 259.284 219.367C259.724 221.174 254.849 223.713 252.221 224.511C250.932 224.903 249.646 225.07 248.389 225.07ZM239.146 221.398C242.354 223.238 247.172 225.113 251.975 223.654C253.393 223.223 255.11 222.416 256.455 221.549C258.103 220.486 258.445 219.827 258.444 219.618C258.406 219.574 258.303 219.467 258.044 219.26C257.414 218.756 256.242 217.817 254.698 217.584C253.987 217.477 253.566 217.575 252.928 217.723C252.614 217.796 252.258 217.878 251.809 217.949C250.005 218.235 248.857 217.984 247.746 217.742C246.865 217.549 245.953 217.35 244.659 217.406C243.154 217.471 241.625 217.864 240.111 218.577C239.996 218.81 239.851 219.044 239.615 219.09C239.439 219.194 239.058 219.42 238.565 219.721C238.245 219.916 238.337 220.27 238.383 220.396L238.702 221.026L239.146 221.398Z" fill="#854CEA"/>
<path d="M233.22 240.217C231.043 240.117 232.306 233.843 232.533 231.991C232.586 231.565 233.3 226.39 237.596 223.067C240.1 221.13 243.951 220.657 251.55 219.79C252.129 219.724 254.519 218.838 257.542 219.242C258.291 219.343 261.099 219.826 260.619 220.369C260.062 220.999 255.947 222.508 252.748 224.414C235.879 234.471 234.497 240.275 233.22 240.217Z" fill="white"/>
<path d="M233.243 240.664C233.229 240.664 233.215 240.664 233.2 240.663C232.785 240.645 232.425 240.457 232.157 240.121C231.17 238.884 231.544 235.717 231.972 232.845C232.026 232.483 232.073 232.17 232.102 231.935C232.174 231.349 232.932 226.114 237.334 222.71C239.985 220.659 244.076 220.193 251.502 219.346C251.594 219.335 251.793 219.286 252.024 219.229C253.028 218.982 255.116 218.467 257.598 218.799C259.051 218.993 260.833 219.365 261.072 220.036C261.15 220.252 261.1 220.489 260.941 220.67C260.625 221.026 259.716 221.457 258.002 222.251C256.486 222.954 254.6 223.827 252.966 224.801C240.914 231.986 236.77 237.038 235 239.195C234.204 240.165 233.794 240.664 233.243 240.664ZM255.932 219.583C254.319 219.583 253.014 219.905 252.227 220.099C251.947 220.168 251.744 220.218 251.598 220.235C243.775 221.127 240.218 221.598 237.857 223.424C233.741 226.609 233.032 231.5 232.964 232.048C232.934 232.294 232.887 232.612 232.832 232.981C232.563 234.78 232.005 238.522 232.829 239.554C232.942 239.696 233.068 239.762 233.239 239.77C233.396 239.764 233.895 239.155 234.336 238.618C236.135 236.426 240.348 231.291 252.531 224.028C254.202 223.031 256.111 222.147 257.645 221.436C258.587 221 259.555 220.552 260.029 220.265C259.506 220.054 258.382 219.806 257.486 219.686C256.944 219.614 256.423 219.584 255.932 219.584V219.583Z" fill="#854CEA"/>
<path d="M232.78 125.813C233.696 129.927 234.153 132.036 234.107 134.583C234.001 140.588 231.663 143.437 229.669 149.195C226.301 158.92 229.419 161.039 227.006 166.73C222.297 177.835 205.16 182.175 192.919 180.977C189.799 180.671 176.612 179.38 169.839 169.287C167.93 166.442 167.167 163.846 166.644 161.981C160.247 139.192 157.049 127.797 160.075 120.337C169.341 97.4881 221.636 97.8562 228.426 111.021C229.706 113.502 231.699 120.951 232.78 125.813Z" fill="white"/>
<path d="M197.044 181.621C195.633 181.621 194.239 181.555 192.878 181.422C179.234 180.086 172.624 174.224 169.482 169.541C167.473 166.548 166.693 163.767 166.226 162.105C159.81 139.245 156.589 127.77 159.674 120.165C164.788 107.554 182.407 102.308 197.19 101.604C212.631 100.867 225.634 104.655 228.81 110.812C230.191 113.49 232.238 121.373 233.204 125.713C234.097 129.727 234.589 131.939 234.542 134.592C234.466 138.838 233.292 141.557 231.932 144.707C231.32 146.123 230.687 147.588 230.078 149.346C228.276 154.55 228.358 157.494 228.43 160.091C228.492 162.306 228.545 164.218 227.404 166.909C224.617 173.481 217.995 177.051 212.931 178.889C208.02 180.671 202.414 181.621 197.044 181.621ZM200.854 102.411C199.653 102.411 198.444 102.439 197.23 102.497C182.713 103.189 165.434 108.284 160.476 120.509C157.509 127.825 160.701 139.198 167.061 161.856C167.513 163.466 168.269 166.16 170.197 169.033C173.234 173.56 179.649 179.229 192.96 180.532C206.042 181.814 222.205 176.933 226.608 166.552C227.671 164.044 227.623 162.311 227.561 160.116C227.49 157.573 227.402 154.408 229.26 149.046C229.88 147.256 230.519 145.775 231.137 144.344C232.514 141.157 233.601 138.64 233.673 134.576C233.716 132.135 233.301 130.156 232.357 125.913C231.33 121.3 229.313 113.695 228.042 111.232C226.568 108.374 222.601 105.931 216.873 104.354C212.25 103.082 206.666 102.411 200.854 102.411Z" fill="#854CEA"/>
<path d="M213.336 119.789C223.436 124.296 223.783 126.754 227.716 126.912C233.271 127.136 238.17 122.464 240.499 118.693C244.165 112.757 244.657 104.038 239.7 97.5968C236.351 93.2457 232.825 95.7522 221.857 91.2954C212.766 87.6011 212.162 84.8979 205.879 83.35C201.72 82.3254 201.56 83.7463 186.173 85.5417C176.723 86.6443 176.439 86.2364 173.923 87.2769C169.334 89.1743 166.307 92.1948 160.252 98.236C156.086 102.393 154.042 105.168 153.506 105.907C150.301 110.322 148.632 114.011 148.18 115.04C147.406 116.799 146.532 118.811 145.872 121.615C145.533 123.053 144.699 127.041 145.162 132.392C145.592 137.37 146.721 138.637 147.825 143.716C149.575 151.772 147.562 152.771 148.89 157.232C151.923 167.422 166.927 171.871 169.307 169.652C169.978 169.026 168.727 168.777 168.774 164.721C168.796 162.81 167.601 159.866 169.129 155.588C170.259 152.428 171.252 151.78 171.26 149.378C171.265 147.532 170.684 146.159 170.017 144.629C168.027 140.064 165.992 139.984 165.224 136.775C165.114 136.32 164.176 132.147 166.644 130.017C168.158 128.71 170.656 128.43 172.325 129.469C175.292 131.318 174.377 136.553 175.698 136.775C177.033 137 177.477 131.567 181.379 127.095C183.571 124.583 187.634 122.924 195.76 119.606C200.815 117.542 202.386 117.271 203.926 117.232C206.339 117.17 208.61 117.68 213.336 119.789Z" fill="#6E39CB"/>
<path d="M202.094 171.1C201.025 170.953 199.991 170.597 199.003 170.15C198.013 169.705 197.065 169.153 196.187 168.501C195.308 167.85 194.477 167.126 193.755 166.296L193.481 165.989L193.344 165.836C193.301 165.782 193.261 165.727 193.219 165.672L192.723 165.014C192.557 164.796 192.415 164.56 192.271 164.325C192.128 164.091 191.987 163.856 191.854 163.616C192.05 163.808 192.237 164.005 192.422 164.202C192.609 164.397 192.781 164.604 192.982 164.784C193.364 165.162 193.735 165.546 194.136 165.898C194.914 166.626 195.74 167.29 196.59 167.918C197.437 168.551 198.33 169.118 199.244 169.652C200.163 170.181 201.106 170.669 202.094 171.1Z" fill="#854CEA"/>
<path d="M192.808 160.802C193.268 161.695 193.325 162.835 192.95 163.831C192.592 164.83 191.804 165.697 190.793 166.08C189.782 166.473 188.624 166.32 187.733 165.776C186.831 165.245 186.176 164.321 185.994 163.326C186.453 164.216 187.158 164.902 187.983 165.28C188.806 165.655 189.739 165.724 190.552 165.41C191.367 165.101 192.047 164.434 192.455 163.608C192.864 162.778 192.991 161.793 192.808 160.802Z" fill="#854CEA"/>
<path d="M180.092 187.369C181.047 188.324 181.926 189.357 182.799 190.389C183.674 191.423 184.524 192.476 185.374 193.529C186.225 194.581 187.062 195.646 187.897 196.712C188.73 197.779 189.566 198.844 190.385 199.924L190.422 199.972L190.445 200.042C191.21 202.393 192.092 204.721 193.067 206.986C193.559 208.117 194.086 209.231 194.673 210.299C194.965 210.835 195.28 211.353 195.612 211.852C195.942 212.352 196.304 212.823 196.699 213.231C196.795 213.339 196.9 213.427 197.003 213.518C197.103 213.617 197.213 213.686 197.319 213.765L197.399 213.823L197.481 213.866L197.644 213.955C197.764 214.007 197.894 214.055 198.022 214.104C198.558 214.286 199.147 214.414 199.728 214.538C200.901 214.776 202.098 214.955 203.295 215.129C205.691 215.474 208.102 215.754 210.516 216.027C212.929 216.307 215.344 216.581 217.763 216.889C218.367 216.965 218.972 217.051 219.577 217.144C220.183 217.24 220.786 217.337 221.402 217.479L221.635 217.535L221.877 217.608L221.938 217.626L222.009 217.656L222.151 217.72L222.251 217.768L222.33 217.81C222.572 217.919 222.861 218.007 223.142 218.091C223.713 218.255 224.301 218.392 224.89 218.522C227.252 219.039 229.652 219.432 232.053 219.754C232.653 219.831 233.255 219.899 233.856 219.943C234.154 219.962 234.459 219.983 234.742 219.963C234.777 219.961 234.814 219.958 234.84 219.951C234.87 219.944 234.891 219.943 234.943 219.928C234.988 219.914 235.033 219.905 235.076 219.903C235.12 219.897 235.163 219.896 235.205 219.898C235.374 219.902 235.532 219.935 235.684 219.976C236.289 220.155 236.833 220.448 237.363 220.758C237.892 221.071 238.405 221.41 238.902 221.769C238.382 221.445 237.849 221.144 237.305 220.87C236.761 220.603 236.204 220.342 235.629 220.209C235.487 220.179 235.343 220.159 235.208 220.164C235.174 220.164 235.141 220.167 235.11 220.173C235.077 220.177 235.048 220.185 235.021 220.195L234.903 220.229C234.856 220.244 234.816 220.248 234.776 220.253C234.454 220.294 234.15 220.289 233.841 220.287C233.228 220.271 232.619 220.231 232.011 220.183C230.795 220.086 229.583 219.956 228.374 219.795C227.165 219.636 225.958 219.456 224.753 219.236C224.15 219.123 223.55 218.999 222.946 218.843C222.642 218.76 222.344 218.682 222.024 218.549L221.898 218.489C221.859 218.47 221.806 218.442 221.791 218.44L221.722 218.414L221.689 218.399L221.639 218.386L221.443 218.333L221.231 218.288C220.076 218.062 218.858 217.943 217.658 217.801C215.249 217.531 212.828 217.306 210.409 217.052C207.991 216.791 205.571 216.523 203.152 216.189C201.942 216.019 200.735 215.823 199.525 215.573C198.918 215.44 198.315 215.309 197.698 215.096C197.541 215.036 197.384 214.978 197.226 214.907L196.986 214.776L196.867 214.709L196.76 214.633C196.619 214.53 196.472 214.43 196.352 214.313C196.225 214.2 196.096 214.088 195.987 213.965C195.069 213.001 194.427 211.897 193.826 210.785C193.234 209.667 192.714 208.521 192.231 207.363C191.989 206.784 191.76 206.2 191.534 205.615C191.312 205.029 191.1 204.439 190.892 203.848C190.481 202.663 190.092 201.477 189.735 200.268L189.795 200.386L187.416 197.096L185.022 193.815C184.221 192.724 183.416 191.636 182.605 190.553C182.198 190.012 181.788 189.474 181.374 188.94C180.962 188.403 180.538 187.877 180.092 187.369Z" fill="white"/>
<path d="M167.531 226.092C167.783 226.259 167.996 226.479 168.214 226.689C168.428 226.903 168.636 227.123 168.842 227.344C169.256 227.785 169.654 228.238 170.061 228.682C170.861 229.582 171.667 230.472 172.479 231.35C173.303 232.217 174.122 233.084 174.989 233.89C175.847 234.706 176.738 235.479 177.685 236.152C177.916 236.329 178.162 236.479 178.4 236.644L178.767 236.867C178.89 236.943 179.013 237.016 179.139 237.08C179.634 237.368 180.155 237.58 180.678 237.763L181.075 237.88C181.207 237.918 181.342 237.933 181.475 237.962C181.542 237.974 181.609 237.99 181.676 237.999L181.878 238.015C182.016 238.024 182.136 238.041 182.295 238.045L183.199 238.085C183.5 238.109 183.801 238.144 184.101 238.173C185.301 238.308 186.491 238.556 187.639 238.936C188.21 239.138 188.773 239.359 189.313 239.632C189.851 239.906 190.375 240.218 190.833 240.613C189.784 240.035 188.646 239.698 187.506 239.445C187.219 239.388 186.933 239.326 186.645 239.278C186.355 239.239 186.069 239.182 185.778 239.156C185.199 239.087 184.619 239.034 184.037 239.008C183.745 239.001 183.455 238.987 183.164 238.984L182.29 238.985C182.152 238.988 181.976 238.977 181.819 238.973L181.576 238.963C181.496 238.955 181.417 238.941 181.338 238.93C181.18 238.904 181.018 238.89 180.863 238.853L180.399 238.739C179.181 238.377 178.084 237.752 177.087 237.031C176.095 236.299 175.171 235.492 174.312 234.627C173.459 233.754 172.64 232.854 171.876 231.908C171.105 230.97 170.378 229.997 169.668 229.017L168.622 227.534C168.449 227.285 168.275 227.039 168.097 226.796C167.919 226.552 167.744 226.307 167.531 226.092Z" fill="white"/>
<path d="M501.344 345.299C499.867 345.299 498.666 344.064 498.666 342.544C498.666 341.025 499.867 339.79 501.344 339.79C502.82 339.79 504.022 341.025 504.022 342.544C504.022 344.064 502.82 345.299 501.344 345.299ZM501.344 340.505C500.251 340.505 499.361 341.42 499.361 342.544C499.361 343.669 500.251 344.584 501.344 344.584C502.437 344.584 503.326 343.669 503.326 342.544C503.326 341.42 502.437 340.505 501.344 340.505Z" fill="#6E39CB"/>
<path d="M297.842 117.635C296.365 117.635 295.164 116.4 295.164 114.88C295.164 113.361 296.365 112.125 297.842 112.125C299.318 112.125 300.52 113.361 300.52 114.88C300.52 116.4 299.318 117.635 297.842 117.635ZM297.842 112.841C296.749 112.841 295.859 113.756 295.859 114.88C295.859 116.005 296.749 116.92 297.842 116.92C298.935 116.92 299.824 116.005 299.824 114.88C299.824 113.756 298.935 112.841 297.842 112.841Z" fill="#6E39CB"/>
<path d="M103.883 213.441C102.406 213.441 101.205 212.205 101.205 210.686C101.205 209.167 102.406 207.931 103.883 207.931C105.359 207.931 106.561 209.167 106.561 210.686C106.561 212.205 105.359 213.441 103.883 213.441ZM103.883 208.646C102.79 208.646 101.9 209.561 101.9 210.686C101.9 211.811 102.79 212.725 103.883 212.725C104.976 212.725 105.865 211.811 105.865 210.686C105.865 209.561 104.976 208.646 103.883 208.646Z" fill="#6E39CB"/>
<path d="M123.951 72.9199C124.302 70.3757 124.876 70.3757 125.227 72.9199C125.579 75.4642 127.889 77.8414 130.362 78.2027C132.835 78.5639 132.835 79.155 130.362 79.5163C127.889 79.8775 125.579 82.2548 125.227 84.799C124.876 87.3433 124.302 87.3433 123.951 84.799C123.599 82.2548 121.289 79.8775 118.816 79.5163C116.343 79.155 116.343 78.5639 118.816 78.2027C121.289 77.8414 123.599 75.4642 123.951 72.9199Z" fill="#6E39CB"/>
<path d="M437.814 210.801C438.165 208.257 438.74 208.257 439.091 210.801C439.442 213.345 441.752 215.722 444.225 216.084C446.699 216.445 446.699 217.036 444.225 217.397C441.752 217.758 439.442 220.136 439.091 222.68C438.74 225.224 438.165 225.224 437.814 222.68C437.463 220.136 435.152 217.758 432.679 217.397C430.206 217.036 430.206 216.445 432.679 216.084C435.152 215.722 437.463 213.345 437.814 210.801Z" fill="#6E39CB"/>
<path d="M539 354.612H0V357H539V354.612Z" fill="#6E39CB"/>
</g>
</g>
<defs>
<clipPath id="clip0_308_768">
<rect width="539" height="357" fill="white"/>
</clipPath>
</defs>
</svg>
