<svg width="410" height="230" viewBox="0 0 410 230" fill="none" xmlns="http://www.w3.org/2000/svg">
<g clip-path="url(#clip0_308_837)">
<mask id="mask0_308_837" style="mask-type:luminance" maskUnits="userSpaceOnUse" x="0" y="0" width="410" height="230">
<path d="M410 0H0V230H410V0Z" fill="white"/>
</mask>
<g mask="url(#mask0_308_837)">
<path d="M256.386 27C255.96 27 255.553 26.7934 255.295 26.429L238.286 2.42873C237.929 1.92613 237.904 1.2592 238.222 0.72981C238.54 0.200421 239.133 -0.0785366 239.731 0.0193595L259.862 3.30015C260.597 3.42015 261.1 4.12979 260.983 4.88216L257.722 25.8352C257.636 26.3891 257.235 26.8313 256.702 26.9617C256.597 26.9874 256.491 27 256.386 27ZM240.247 2.00192L256.096 24.3651L259.098 5.07434L240.247 2.00192Z" fill="#4A268B"/>
<path d="M49.5906 121L48 119.234L111.077 62.3964C111.51 62.0058 112.121 61.885 112.671 62.0816L169.364 82.3534L246.41 13L248 14.7666L170.602 84.4364C170.168 84.8266 169.558 84.947 169.009 84.7507L112.316 64.4789L49.5906 121Z" fill="#6E39CB"/>
<path d="M170 68H168V135H170V68Z" fill="#6E39CB"/>
<path d="M103 72H100V230H103V72Z" fill="#6E39CB"/>
<path d="M62 110H59V230H62V110Z" fill="#6E39CB"/>
<path d="M228 106C226.913 106.406 225.836 106.839 224.78 107.314C223.722 107.783 222.68 108.286 221.662 108.829C219.627 109.914 217.676 111.15 215.888 112.578C214.097 114 212.462 115.607 211.099 117.411C209.735 119.212 208.625 121.193 207.864 123.296C207.48 124.346 207.194 125.427 206.989 126.523C206.786 127.62 206.66 128.733 206.582 129.86C206.502 130.985 206.446 132.129 206.378 133.266L206.183 136.68C205.918 141.232 205.638 145.781 205.442 150.33C205.226 154.877 205.096 159.423 205.246 163.958L205.377 167.371C205.42 168.512 205.457 169.653 205.491 170.794C205.52 171.935 205.553 173.076 205.571 174.217C205.591 175.358 205.599 176.5 205.61 177.641C205.678 186.771 205.389 195.9 204.729 205C204.882 195.879 204.905 186.763 204.659 177.657C204.624 176.519 204.593 175.38 204.548 174.243L204.423 170.83C204.375 169.692 204.324 168.555 204.267 167.418L204.092 163.998C203.906 159.417 204.028 154.839 204.225 150.277C204.334 147.996 204.46 145.717 204.598 143.44C204.738 141.163 204.876 138.886 205.034 136.611L205.271 133.199C205.354 132.06 205.424 130.928 205.519 129.78C205.615 128.633 205.754 127.477 205.988 126.335C206.227 125.194 206.55 124.066 206.973 122.978C207.818 120.801 209.003 118.757 210.467 116.938C211.929 115.115 213.651 113.512 215.52 112.12C217.395 110.734 219.409 109.543 221.507 108.537C222.557 108.034 223.625 107.572 224.708 107.149C225.792 106.728 226.892 106.349 228 106Z" fill="#6E39CB"/>
<path d="M207 126C206.568 123.132 206.108 120.277 205.586 117.437C205.308 116.021 205.046 114.602 204.724 113.198C204.571 112.494 204.404 111.794 204.24 111.093L203.973 110.048L203.839 109.526L203.692 109.008C203.331 107.616 202.876 106.257 202.397 104.911C202.15 104.242 201.887 103.581 201.581 102.944C201.428 102.625 201.267 102.312 201.095 102.004C201.012 101.849 200.92 101.7 200.832 101.547C200.739 101.399 200.649 101.247 200.551 101.102C199.778 99.9312 198.811 98.8905 197.696 98.0341C196.587 97.1687 195.329 96.4985 194 96C195.38 96.3292 196.711 96.9134 197.915 97.7138C198.515 98.1176 199.083 98.5756 199.611 99.0795C200.139 99.5847 200.614 100.148 201.046 100.743C201.915 101.934 202.544 103.282 203.083 104.636C203.216 104.976 203.333 105.322 203.458 105.664L203.642 106.179C203.701 106.352 203.754 106.526 203.81 106.7L204.14 107.741L204.439 108.792C205.211 111.601 205.757 114.461 206.181 117.334C206.594 120.208 206.888 123.1 207 126Z" fill="#854CEA"/>
<path d="M193.926 99C190.559 99 185.727 97.8004 183.745 94.768C183.452 94.321 182.676 93.1342 183.149 92.1707C183.968 90.5013 187.967 90.9198 190.295 91.5761C193.4 92.4511 196.9 94.7454 197.783 96.4855C198.009 96.9313 198.059 97.3284 197.93 97.666C197.61 98.5088 196.261 98.8224 195.187 98.9371C194.8 98.9785 194.376 99 193.926 99ZM186.313 91.626C185.022 91.626 184.002 91.8763 183.722 92.4476C183.407 93.0899 184.064 94.0938 184.279 94.4239C186.382 97.6388 191.99 98.6424 195.119 98.3085C196.568 98.1538 197.213 97.7599 197.334 97.4428C197.412 97.2371 197.312 96.9635 197.214 96.7702C196.49 95.3453 193.303 93.0815 190.121 92.1847C188.86 91.8295 187.476 91.626 186.313 91.626Z" fill="#4A268B"/>
<path d="M246 115C241.589 115 238 111.187 238 106.5C238 101.813 241.589 98 246 98C250.411 98 254 101.813 254 106.5C254 111.187 250.411 115 246 115ZM246 98.6784C241.941 98.6784 238.639 102.187 238.639 106.5C238.639 110.813 241.941 114.322 246 114.322C250.059 114.322 253.361 110.813 253.361 106.5C253.361 102.187 250.059 98.6784 246 98.6784Z" fill="#4A268B"/>
<path d="M254.849 125C254.531 125 254.223 124.876 253.991 124.652C251.591 122.337 248.927 120.401 246.073 118.897C242.585 117.059 236.746 113.982 230.319 115.654C228.987 116 227.472 116.731 226.436 117.283C226.094 117.465 225.692 117.43 225.386 117.191C225.08 116.953 224.941 116.566 225.023 116.182C226.068 111.315 228.458 100.165 229.342 96.036C229.426 95.6443 229.691 95.3133 230.05 95.1503L232.716 93.9413L232.752 93.9317C234.823 93.3828 236.947 93.0733 239.063 93.0118C245.291 92.8294 250.017 94.811 252.555 95.875C254.316 96.613 256.137 97.3762 258.292 98.8615C261.859 101.32 264.741 104.649 266.859 108.757C267.084 109.193 267.037 109.728 266.74 110.12L255.83 124.509C255.616 124.791 255.293 124.969 254.944 124.996C254.912 124.999 254.88 125 254.849 125ZM234.135 114.235C239.223 114.235 243.626 116.556 246.493 118.066C249.424 119.611 252.158 121.598 254.62 123.972C254.689 124.039 254.777 124.071 254.874 124.064C254.927 124.06 255.029 124.038 255.105 123.937L266.016 109.548C266.094 109.445 266.107 109.305 266.048 109.192C264.002 105.222 261.22 102.007 257.779 99.6358C255.702 98.204 253.925 97.4594 252.207 96.7393C249.732 95.7017 245.125 93.7711 239.089 93.9458C237.054 94.005 235.012 94.3012 233.019 94.8265L230.422 96.0041C230.328 96.0468 230.259 96.1333 230.237 96.2355C229.352 100.365 226.962 111.514 225.918 116.382C225.915 116.393 225.909 116.423 225.942 116.449C225.974 116.474 226.001 116.46 226.012 116.454C227.091 115.879 228.676 115.116 230.093 114.748C231.476 114.388 232.828 114.235 234.135 114.235Z" fill="#854CEA"/>
<path d="M247.286 103.769C247.851 103.771 248.382 103.85 248.879 104.005V104.903H248.4C248.312 104.651 248.178 104.462 247.998 104.336C247.817 104.21 247.58 104.142 247.286 104.134V106.132C247.738 106.318 248.077 106.484 248.303 106.631C248.529 106.778 248.701 106.941 248.821 107.121C248.94 107.301 249 107.513 249 107.757C249 108.208 248.853 108.556 248.559 108.802C248.266 109.047 247.831 109.189 247.257 109.227V110H246.753V109.236C246.466 109.23 246.16 109.201 245.835 109.148C245.511 109.096 245.232 109.032 245 108.957V108.043H245.484C245.562 108.329 245.7 108.537 245.898 108.669C246.097 108.8 246.381 108.871 246.753 108.882V106.731L246.632 106.681C246.209 106.506 245.896 106.353 245.692 106.222C245.489 106.09 245.332 105.942 245.222 105.779C245.113 105.616 245.058 105.425 245.058 105.206C245.058 104.995 245.103 104.807 245.193 104.641C245.284 104.475 245.407 104.332 245.564 104.213C245.72 104.094 245.903 103.999 246.113 103.928C246.323 103.858 246.546 103.813 246.782 103.793V103H247.285V103.768L247.286 103.769ZM246.782 105.966V104.147C246.504 104.177 246.281 104.268 246.111 104.419C245.942 104.57 245.857 104.757 245.857 104.982C245.857 105.206 245.929 105.392 246.073 105.54C246.216 105.689 246.453 105.831 246.782 105.966ZM247.257 106.893V108.87C247.557 108.843 247.788 108.749 247.949 108.59C248.111 108.431 248.191 108.217 248.191 107.948C248.191 107.71 248.117 107.509 247.969 107.346C247.82 107.182 247.583 107.031 247.257 106.893Z" fill="#4A268B"/>
<path d="M125.975 228C123.581 227.94 121.333 226.974 119.643 225.279C117.939 223.57 117 221.317 117 218.935V218H118.015C118.015 222.792 121.597 226.79 126 226.912L125.975 228Z" fill="#D93D03"/>
<path d="M170.272 207C170.235 207 170.2 207 170.163 207C162.558 206.982 140.977 200.583 136.728 199.3C136.346 199.185 136.139 199.122 136.139 199.122L136.112 199.113C131.154 197.305 126.594 197.33 122.558 199.186C119.542 200.574 117.961 202.525 117.945 202.545L117.001 203.727L117 183.611C117 183.175 117.209 182.757 117.559 182.495L154.915 154.422C155.003 154.357 155.055 154.251 155.055 154.14V145.397C155.055 144.627 155.686 144 156.463 144H253.171C253.948 144 254.579 144.627 254.579 145.397V153.898C254.579 154.013 254.635 154.12 254.729 154.185L295.399 182.485C295.776 182.747 296 183.176 296 183.631V184.257L295.378 184.146C289.41 183.09 276.518 190.584 275.879 190.959C269.4 195.79 261.101 197.084 255.277 197.317C249.191 197.562 244.454 196.729 244.103 196.666C224.058 194.373 209.706 199.633 202.809 202.162C201.619 202.598 200.679 202.942 199.927 203.172C198.995 203.456 197.714 203.763 196.118 204.086C189.134 205.499 177.12 207 170.272 207ZM136.465 198.126C136.516 198.141 136.714 198.201 137.037 198.298C139.626 199.08 162.552 205.935 170.165 205.953C170.201 205.953 170.238 205.953 170.274 205.953C177.056 205.953 188.973 204.462 195.906 203.06C197.468 202.744 198.716 202.444 199.615 202.171C200.339 201.95 201.267 201.61 202.441 201.179C209.418 198.622 223.935 193.301 244.242 195.627L244.281 195.633C244.328 195.642 249.08 196.52 255.26 196.27C260.932 196.039 269.007 194.783 275.264 190.106L275.311 190.074C275.832 189.765 287.334 183 294.143 183C294.197 183 294.249 183 294.302 183.001L254.121 155.042C253.746 154.782 253.521 154.354 253.521 153.897V145.397C253.521 145.203 253.364 145.046 253.171 145.046H156.463C156.27 145.046 156.113 145.203 156.113 145.397V154.139C156.113 154.577 155.905 154.994 155.555 155.256L118.199 183.328C118.11 183.395 118.059 183.498 118.059 183.61V200.914C118.871 200.165 120.206 199.121 122.061 198.26C125.024 196.884 129.927 195.745 136.465 198.125V198.126Z" fill="#854CEA"/>
<path d="M287.025 228L287 226.912C291.403 226.791 294.985 222.792 294.985 218H296V218.935C296 221.317 295.061 223.57 293.357 225.279C291.667 226.974 289.419 227.94 287.025 228Z" fill="#D93D03"/>
<path d="M296 184.11V218.763C296 223.764 292.041 227.87 287.152 227.997C287.074 227.999 286.997 228 286.919 228H127.081C127.003 228 126.925 227.999 126.848 227.997C121.959 227.87 118 223.764 118 218.763V202.971C118 202.971 124.431 194.755 136.772 199.319C136.772 199.319 136.979 199.383 137.36 199.5C141.223 200.683 163.096 207.271 170.652 207.288C177.454 207.305 189.53 205.775 196.509 204.343C198.047 204.027 199.337 203.716 200.269 203.428C205.43 201.83 221.135 194.071 244.694 196.809C244.694 196.809 263.765 200.461 276.106 191.103C276.106 191.103 289.642 182.969 296 184.11Z" fill="white"/>
<path d="M286.393 228H126.607C126.526 228 126.445 227.999 126.364 227.997C123.854 227.932 121.502 226.885 119.738 225.049C117.972 223.212 117 220.796 117 218.245V202.291L117.113 202.147C117.182 202.059 118.835 199.979 122.061 198.462C125.024 197.068 129.927 195.913 136.465 198.325C136.515 198.341 136.713 198.402 137.037 198.501C139.626 199.293 162.552 206.238 170.165 206.256C170.201 206.256 170.238 206.256 170.274 206.256C177.056 206.256 188.973 204.746 195.906 203.325C197.468 203.005 198.716 202.701 199.615 202.424C200.339 202.2 201.267 201.856 202.441 201.42C209.418 198.828 223.935 193.437 244.242 195.794L244.281 195.8C244.328 195.809 249.08 196.699 255.26 196.445C260.932 196.212 269.007 194.939 275.264 190.199L275.311 190.167C275.871 189.832 289.086 181.956 295.564 183.117L296 183.195V218.245C296 220.796 295.028 223.212 293.262 225.049C291.498 226.885 289.146 227.932 286.64 227.997C286.555 227.998 286.474 228 286.393 228ZM118.059 202.669V218.245C118.059 222.919 121.795 226.817 126.388 226.936C126.459 226.938 126.533 226.939 126.607 226.939H286.393C286.467 226.939 286.541 226.938 286.615 226.936C291.205 226.818 294.941 222.919 294.941 218.245V184.099C288.806 183.45 276.503 190.692 275.878 191.063C269.4 195.959 261.101 197.269 255.277 197.506C249.191 197.754 244.454 196.91 244.103 196.846C224.057 194.522 209.706 199.852 202.809 202.414C201.619 202.856 200.679 203.205 199.927 203.438C198.995 203.725 197.714 204.037 196.118 204.364C189.134 205.795 177.12 207.317 170.272 207.317C170.235 207.317 170.199 207.317 170.162 207.317C162.558 207.299 140.977 200.815 136.728 199.515C136.346 199.399 136.139 199.335 136.139 199.335L136.112 199.326C131.154 197.494 126.593 197.519 122.558 199.4C119.997 200.594 118.471 202.2 118.059 202.669Z" fill="#854CEA"/>
<path d="M258.873 145H152.127C150.954 145 150 144.053 150 142.889V137.111C150 135.947 150.954 135 152.127 135H258.873C260.046 135 261 135.947 261 137.111V142.889C261 144.053 260.046 145 258.873 145ZM152.127 136.055C151.54 136.055 151.063 136.529 151.063 137.111V142.889C151.063 143.471 151.54 143.945 152.127 143.945H258.873C259.46 143.945 259.937 143.471 259.937 142.889V137.111C259.937 136.529 259.46 136.055 258.873 136.055H152.127Z" fill="#854CEA"/>
<path d="M169.837 208C169.801 208 169.765 208 169.729 208C162.176 207.982 140.704 201.597 136.476 200.318L136 200.174L136.247 199.74C139.086 194.746 143.188 190.555 148.11 187.62C153.18 184.598 158.991 183 164.917 183C171.774 183 178.349 185.095 183.931 189.059C189.389 192.935 193.507 198.296 195.838 204.564L196 205.001L195.546 205.093C188.598 206.502 176.648 208 169.837 208ZM137.184 199.701C142.33 201.249 162.537 207.188 169.731 207.205C169.766 207.205 169.802 207.205 169.838 207.205C176.454 207.205 187.964 205.779 194.931 204.405C190.133 192.057 178.132 183.795 164.917 183.795C153.552 183.795 142.972 189.877 137.184 199.701Z" fill="#6E39CB"/>
<path d="M271 206.053C268.336 207.032 265.902 207.648 263.694 208H240C240 199.163 246.965 192 255.558 192C263.509 192 270.066 198.134 271 206.053Z" fill="white"/>
<path d="M264.252 209H240V208.589C240 199.442 247.196 192 256.04 192C264.143 192 270.988 198.264 271.962 206.571L272 206.896L271.701 207.007C269.171 207.943 266.674 208.612 264.282 208.995L264.252 209ZM240.799 208.179H264.191C266.429 207.818 268.763 207.201 271.132 206.344C270.068 198.612 263.636 192.822 256.04 192.822C247.766 192.822 241.011 199.674 240.799 208.179Z" fill="#6E39CB"/>
<path d="M245 208.415C244.009 208.454 243.039 208.506 242.078 208.589C241.116 208.671 240.167 208.792 239.234 208.966C238.768 209.054 238.308 209.159 237.852 209.278C237.398 209.401 236.952 209.545 236.51 209.705C236.072 209.87 235.645 210.061 235.224 210.272C234.803 210.485 234.407 210.737 234 211C234.275 210.622 234.616 210.283 234.99 209.974C235.371 209.674 235.787 209.407 236.228 209.178C236.671 208.953 237.135 208.765 237.61 208.606C238.087 208.453 238.575 208.331 239.068 208.236C240.055 208.053 241.06 207.979 242.057 208.005C243.052 208.036 244.048 208.147 245 208.415Z" fill="#6E39CB"/>
<path d="M270 207C270.353 206.672 270.736 206.422 271.129 206.195C271.523 205.971 271.929 205.778 272.346 205.611C272.762 205.443 273.19 205.304 273.629 205.194C274.069 205.087 274.519 205.004 275 205C274.648 205.329 274.264 205.58 273.871 205.806C273.477 206.03 273.071 206.223 272.654 206.389C272.237 206.555 271.81 206.695 271.371 206.805C270.93 206.911 270.48 206.994 270 207Z" fill="#854CEA"/>
<path d="M301.041 174.188C298.17 182.169 301.432 194.698 308.421 202.683C311.942 206.705 315.729 208.799 317.59 209.807C326.558 214.662 334.996 214.287 347.11 213.591C357.791 212.977 364.413 213.928 372.305 209.807C375.671 208.049 381.467 205.218 386.096 198.231C387.307 196.403 394.035 185.027 391.389 173.965C391.389 173.965 390.623 170.765 389.152 168.177C379.902 151.899 309.712 150.089 301.041 174.188Z" fill="#854CEA" stroke="white" stroke-width="5" stroke-miterlimit="10"/>
<path d="M314.816 108.178C309.566 102.836 311.839 98.0224 302.52 86.0246C298.857 81.3101 296.964 80.0677 293.36 74.4353C290.064 69.2852 289.612 67.143 286.657 65.5204C282.52 63.2482 276.014 63.3881 273.476 66.8577C273.262 67.1498 272.779 67.8514 272.359 69.9779C271.449 74.5844 272.408 77.8311 273.699 84.6875C274.523 89.0571 275.05 92.6066 275.263 94.0481C276.353 101.426 276.005 101.584 276.604 103.632C277.822 107.795 280.337 110.401 285.317 115.444C292.245 122.459 295.389 123.193 297.381 128.371C298.164 130.404 298.35 132.103 298.722 135.502C299.189 139.775 298.832 141.542 298.498 149.098C298.173 156.468 298.433 156.593 298.051 163.585C297.594 171.968 297.054 171.661 297.381 172.945C299.959 183.073 325.47 184.926 338.489 185.872C338.489 185.872 353.031 186.928 374.682 182.975C374.682 182.975 381.063 181.809 390.768 175.62C391.298 175.281 392.306 174.616 392.779 173.391C393.778 170.8 391.198 166.918 388.981 164.699C387.619 163.336 386.493 162.724 386.523 161.579C386.554 160.411 387.806 159.802 388.757 158.904C390.868 156.912 391.012 154.039 391.215 149.989C391.512 144.057 389.96 139.225 389.204 137.286C386.164 129.483 377.071 119.828 363.065 114.552C339.002 105.489 325.091 118.634 314.816 108.178Z" fill="#854CEA"/>
<path d="M343.91 187C340.775 187 339.029 186.881 338.979 186.877C332.523 186.408 322.768 185.699 314.394 183.841C309.779 182.817 306.052 181.542 303.318 180.05C300.057 178.272 298.086 176.124 297.461 173.665C297.293 173.008 297.336 172.692 297.462 171.756C297.607 170.683 297.877 168.684 298.123 164.179C298.325 160.478 298.348 158.669 298.372 156.753C298.394 154.978 298.417 153.142 298.571 149.654C298.66 147.634 298.753 145.993 298.827 144.674C299.04 140.906 299.138 139.186 298.797 136.069C298.427 132.692 298.242 130.998 297.472 128.999C296.223 125.752 294.488 124.27 291.614 121.814C289.984 120.422 287.956 118.689 285.448 116.149C280.58 111.219 277.898 108.504 276.628 104.163C276.309 103.071 276.248 102.476 276.116 101.171C275.99 99.9359 275.8 98.0692 275.275 94.5081C275.076 93.1647 274.549 89.5962 273.708 85.1334C273.514 84.1036 273.331 83.1715 273.154 82.2702C272.17 77.2672 271.576 74.2475 272.365 70.2568C272.811 67.9962 273.342 67.2702 273.542 66.997C276.209 63.3506 282.946 63.2318 287.187 65.5614C289.395 66.7747 290.25 68.2482 291.8 70.9234C292.41 71.9739 293.1 73.1647 294.027 74.6134C296.276 78.1289 297.828 79.8954 299.624 81.9408C300.702 83.1675 301.816 84.4358 303.195 86.2116C308.369 92.8726 309.997 97.3271 311.305 100.906C312.354 103.775 313.182 106.041 315.5 108.4C320.528 113.517 326.553 112.86 334.18 112.029C341.94 111.184 351.597 110.131 363.764 114.715C370.303 117.178 376.298 120.814 381.101 125.23C385.329 129.116 388.548 133.546 390.168 137.702C390.882 139.538 392.512 144.467 392.206 150.579C392 154.687 391.851 157.654 389.639 159.742C389.384 159.982 389.113 160.199 388.851 160.41C388.137 160.982 387.52 161.476 387.501 162.194C387.483 162.898 388.036 163.395 388.874 164.149C389.174 164.42 389.515 164.727 389.87 165.081C391.847 167.061 394.89 171.198 393.753 174.15C393.228 175.509 392.091 176.234 391.606 176.544C381.931 182.715 375.421 183.955 375.357 183.967C361.19 186.554 349.963 187 343.91 187ZM280.774 64.6556C280.461 64.6556 280.15 64.667 279.841 64.6902C277.253 64.8844 275.205 65.8417 274.076 67.3856C273.9 67.6267 273.431 68.2671 273.013 70.3843C272.25 74.2477 272.834 77.2196 273.802 82.1432C273.98 83.0459 274.163 83.9791 274.358 85.0114C275.201 89.4872 275.729 93.065 275.928 94.4119C276.456 97.9878 276.647 99.8634 276.773 101.105C276.906 102.406 276.96 102.945 277.263 103.979C278.437 107.99 280.765 110.467 285.918 115.686C288.407 118.206 290.424 119.929 292.044 121.314C294.997 123.837 296.78 125.36 298.089 128.763C298.889 130.842 299.078 132.564 299.453 135.996C299.801 139.169 299.696 141.021 299.487 144.712C299.413 146.028 299.32 147.667 299.231 149.683C299.078 153.16 299.055 154.991 299.032 156.762C299.008 158.684 298.985 160.5 298.783 164.215C298.536 168.746 298.263 170.762 298.117 171.845C297.994 172.753 297.965 172.969 298.101 173.503C299.183 177.756 304.713 181.017 314.537 183.197C322.864 185.045 332.591 185.752 339.027 186.219C339.173 186.23 353.823 187.229 375.238 183.318C375.301 183.307 381.697 182.082 391.25 175.989C391.717 175.691 392.69 175.07 393.136 173.913C394.02 171.619 391.82 167.968 389.402 165.547C389.059 165.205 388.726 164.904 388.431 164.639C387.528 163.826 386.814 163.184 386.841 162.176C386.868 161.153 387.666 160.514 388.437 159.896C388.689 159.694 388.95 159.485 389.184 159.263C391.204 157.357 391.347 154.5 391.546 150.547C391.846 144.561 390.251 139.737 389.551 137.941C386.855 131.017 378.422 120.941 363.531 115.332C351.511 110.804 341.941 111.847 334.252 112.685C326.446 113.535 320.28 114.207 315.028 108.862C312.61 106.401 311.76 104.076 310.684 101.132C309.392 97.5961 307.783 93.1952 302.672 86.6155C301.305 84.8554 300.198 83.5946 299.127 82.3754C297.313 80.3098 295.746 78.5258 293.47 74.9683C292.535 73.5073 291.841 72.31 291.228 71.2536C289.737 68.6809 288.915 67.2638 286.868 66.139C285.139 65.1892 282.918 64.6556 280.774 64.6556Z" fill="white"/>
<path d="M312.622 164.761C313.355 163.804 318.658 157.103 327.385 157.001C329.38 156.978 335.507 157.264 339.724 161.885C342.642 165.082 343.14 168.756 343.691 173.186C344.625 180.707 343.247 185.102 342.148 194.027C340.976 203.541 342.839 205.496 341.046 210.877C339.68 214.981 338.671 218.996 334.877 221.298C331.079 223.602 325.729 223.605 322.097 221.076C321.539 220.688 319.786 219.38 317.469 213.981C315.606 209.639 314.636 205.583 313.724 199.57C313.151 195.8 312.364 190.498 312.093 183.073C311.917 178.26 311.939 172.032 312.622 164.761Z" fill="#6E39CB"/>
<path d="M329.099 224C326.661 224 324.251 223.336 322.346 222.018C320.781 220.934 319.169 218.487 317.554 214.745C315.765 210.598 314.733 206.65 313.745 200.176C313.199 196.596 312.373 191.187 312.093 183.553C311.869 177.449 312.049 171.241 312.629 165.1L312.638 165.006L312.696 164.931C313.7 163.624 319.155 157.102 327.873 157.001C330.294 156.975 336.36 157.406 340.59 162.017C343.66 165.363 344.157 169.345 344.683 173.561C345.391 179.225 344.804 183.099 343.991 188.462C343.718 190.258 343.409 192.295 343.125 194.594C342.573 199.05 342.691 201.86 342.787 204.117C342.898 206.758 342.978 208.666 341.997 211.598C341.873 211.968 341.752 212.336 341.632 212.703C340.389 216.498 339.215 220.082 335.619 222.252C333.684 223.42 331.379 224 329.099 224ZM313.274 165.257C312.704 171.338 312.528 177.485 312.75 183.529C313.029 191.125 313.85 196.512 314.394 200.076C315.373 206.489 316.393 210.394 318.157 214.484C319.233 216.978 320.898 220.216 322.719 221.477C326.204 223.889 331.486 223.978 335.28 221.689C338.667 219.645 339.804 216.173 341.008 212.497C341.129 212.13 341.25 211.76 341.374 211.389C342.317 208.572 342.239 206.715 342.13 204.145C342.034 201.863 341.915 199.023 342.473 194.513C342.759 192.205 343.068 190.164 343.341 188.363C344.146 183.053 344.728 179.216 344.032 173.642C343.497 169.355 343.034 165.653 340.106 162.461C336.055 158.045 330.204 157.628 327.881 157.658C319.62 157.754 314.383 163.838 313.274 165.257Z" fill="white"/>
<path d="M315.22 225.822C318.39 228.698 329.656 227.996 337.365 227.721C338.022 227.698 339.337 227.634 340.518 226.772C343.825 224.354 343.623 217.461 341.118 212.789C338.76 208.39 334.708 206.608 333.906 206.272C328.993 204.215 322.361 204.435 317.744 208.547C314.134 211.761 313.302 215.961 313.077 217.503C313.077 217.503 312.374 223.241 315.22 225.822Z" fill="white"/>
<path d="M327.895 229C322.432 229 317.391 228.556 315.355 226.703C312.387 224.001 313.055 218.223 313.085 217.978C313.395 215.836 314.434 211.79 317.911 208.683C320.146 206.685 322.997 205.445 326.154 205.099C328.993 204.787 331.993 205.219 334.603 206.316C336.093 206.943 339.803 208.855 342.058 213.079C343.343 215.484 344.05 218.442 343.997 221.194C343.941 224.174 343.003 226.481 341.357 227.688C340.058 228.642 338.607 228.693 337.987 228.715C337.35 228.738 336.689 228.764 336.01 228.79C333.411 228.891 330.601 229 327.895 229ZM327.988 205.66C324.647 205.66 321.143 206.661 318.343 209.164C315.019 212.135 314.024 216.015 313.727 218.063C313.721 218.112 313.071 223.748 315.792 226.225C318.639 228.818 328.664 228.429 335.985 228.144C336.664 228.118 337.326 228.092 337.964 228.07C338.524 228.05 339.835 228.003 340.973 227.168C344.212 224.791 343.915 217.93 341.486 213.383C339.268 209.228 335.464 207.379 334.351 206.912C332.493 206.131 330.279 205.66 327.988 205.66Z" fill="#854CEA"/>
<path d="M381.359 164.761C380.603 163.804 375.133 157.103 366.134 157.001C364.077 156.978 357.758 157.264 353.41 161.885C350.401 165.082 349.886 168.756 349.319 173.186C348.355 180.707 349.776 185.102 350.91 194.027C352.118 203.541 350.198 205.496 352.046 210.877C353.455 214.981 354.495 218.996 358.408 221.298C362.325 223.602 367.842 223.605 371.588 221.076C372.163 220.688 373.97 219.38 376.36 213.981C378.281 209.639 379.281 205.583 380.223 199.57C380.813 195.8 381.625 190.498 381.904 183.073C382.086 178.26 382.063 172.032 381.359 164.761Z" fill="#6E39CB"/>
<path d="M365.382 224C363.033 224 360.659 223.42 358.665 222.252C354.96 220.082 353.751 216.497 352.47 212.702C352.346 212.336 352.222 211.968 352.094 211.598C351.083 208.666 351.166 206.758 351.28 204.118C351.379 201.86 351.501 199.05 350.932 194.594C350.639 192.295 350.321 190.259 350.04 188.462C349.202 183.1 348.597 179.225 349.326 173.561C349.869 169.345 350.381 165.363 353.544 162.017C357.902 157.406 364.159 156.973 366.645 157.001C375.628 157.102 381.248 163.624 382.283 164.931L382.343 165.006L382.352 165.1C382.949 171.241 383.135 177.449 382.904 183.553C382.615 191.19 381.765 196.597 381.202 200.176C380.184 206.65 379.121 210.598 377.278 214.745C375.614 218.487 373.953 220.934 372.341 222.018C370.379 223.336 367.894 224 365.382 224ZM366.432 157.658C363.911 157.658 358.102 158.167 354.042 162.462C351.026 165.653 350.549 169.355 349.998 173.642C349.28 179.217 349.88 183.053 350.709 188.363C350.99 190.164 351.309 192.205 351.604 194.513C352.179 199.023 352.056 201.863 351.957 204.145C351.845 206.716 351.764 208.573 352.736 211.39C352.864 211.76 352.989 212.13 353.113 212.497C354.353 216.173 355.525 219.645 359.015 221.689C362.924 223.978 368.366 223.889 371.956 221.477C373.832 220.216 375.548 216.979 376.656 214.484C378.474 210.394 379.525 206.49 380.533 200.077C381.094 196.513 381.94 191.128 382.228 183.529C382.456 177.485 382.274 171.339 381.687 165.257C380.545 163.839 375.149 157.754 366.638 157.659C366.572 157.658 366.503 157.658 366.432 157.658Z" fill="white"/>
<path d="M377.706 225.822C374.43 228.698 362.789 227.996 354.823 227.721C354.144 227.698 352.785 227.634 351.565 226.772C348.147 224.354 348.357 217.461 350.945 212.789C353.381 208.39 357.569 206.608 358.397 206.272C363.474 204.215 370.327 204.435 375.098 208.547C378.828 211.761 379.688 215.961 379.921 217.503C379.921 217.503 380.647 223.241 377.706 225.822Z" fill="white"/>
<path d="M365.624 229C362.831 229 359.931 228.891 357.248 228.79C356.547 228.764 355.864 228.738 355.207 228.715C354.567 228.693 353.069 228.642 351.728 227.688C350.029 226.481 349.061 224.174 349.003 221.194C348.949 218.442 349.678 215.484 351.004 213.079C353.333 208.855 357.162 206.943 358.701 206.317C361.395 205.22 364.491 204.787 367.421 205.099C370.681 205.446 373.624 206.685 375.931 208.683C379.519 211.79 380.592 215.836 380.912 217.971C380.944 218.223 381.633 224 378.569 226.703C376.468 228.555 371.263 229 365.624 229ZM365.529 205.66C363.163 205.66 360.878 206.131 358.96 206.912C357.812 207.38 353.885 209.228 351.595 213.383C349.088 217.93 348.782 224.792 352.125 227.168C353.3 228.003 354.653 228.05 355.231 228.07C355.889 228.092 356.572 228.118 357.274 228.144C364.83 228.428 375.179 228.817 378.118 226.225C380.927 223.748 380.256 218.113 380.25 218.056C379.943 216.015 378.916 212.135 375.485 209.164C372.595 206.662 368.977 205.66 365.529 205.66Z" fill="#9769E9"/>
<path d="M363.136 115.073C368.523 115.795 375.962 122.712 375.962 122.712C380.974 127.373 383.51 129.683 385.638 132.822C388.54 137.103 391.648 141.512 391.933 147.831C392.054 150.515 392.395 156.307 388.707 160.356C386.437 162.849 382.346 164.149 374.162 166.747C372.223 167.363 371.901 167.409 369.661 168.095C365.531 169.361 361.988 170.934 356.385 172.813C352.604 174.082 351.704 174.249 350.985 173.712C349.345 172.488 350.829 169.233 348.735 166.073C347.557 164.297 346.296 164.68 346.034 163.602C345.836 162.787 346.122 161.103 357.355 153.274C360.17 151.312 362.614 149.702 364.711 146.527C365.455 145.401 366.379 143.971 366.678 142.002C367.101 139.217 366.02 137.019 364.175 133.512C359.197 124.05 356.73 120.412 357.961 117.769C358.676 116.232 359.986 115.522 359.986 115.522C361.249 114.838 362.549 114.994 363.136 115.073Z" fill="#854CEA"/>
<path d="M351 174C354.664 173.114 358.287 172.088 361.851 170.888C362.296 170.737 362.741 170.585 363.184 170.428C363.629 170.276 364.071 170.115 364.514 169.958C365.397 169.637 366.278 169.307 367.155 168.967C368.91 168.292 370.652 167.581 372.393 166.856C372.829 166.679 373.251 166.497 373.673 166.297L374.948 165.68C375.382 165.476 375.841 165.287 376.32 165.16C376.566 165.097 376.785 165.047 377.016 164.992C377.244 164.939 377.473 164.888 377.7 164.831C379.524 164.393 381.329 163.878 383.088 163.243C383.966 162.921 384.829 162.561 385.663 162.144C386.495 161.724 387.299 161.246 388.025 160.664C388.749 160.083 389.398 159.398 389.876 158.593C390.117 158.193 390.318 157.766 390.476 157.322C390.561 157.101 390.613 156.874 390.696 156.646C390.736 156.533 390.778 156.419 390.84 156.314C390.871 156.26 390.914 156.217 390.939 156.166C390.966 156.114 390.983 156.057 391 156C390.99 156.059 390.98 156.118 390.959 156.175C390.938 156.234 390.899 156.281 390.878 156.334C390.831 156.44 390.804 156.556 390.778 156.67C390.755 156.786 390.73 156.902 390.699 157.018C390.672 157.135 390.64 157.251 390.605 157.365C390.468 157.825 390.288 158.275 390.061 158.7C389.605 159.552 388.966 160.298 388.241 160.929C387.511 161.557 386.702 162.078 385.865 162.539C385.025 162.993 384.153 163.38 383.27 163.73C382.386 164.081 381.488 164.39 380.583 164.668C379.677 164.948 378.765 165.205 377.849 165.439C377.62 165.5 377.391 165.556 377.161 165.612C376.934 165.668 376.694 165.724 376.484 165.78C376.053 165.897 375.637 166.069 375.219 166.268L373.95 166.892C373.521 167.098 373.077 167.292 372.641 167.472C370.897 168.19 369.144 168.896 367.374 169.559C365.6 170.211 363.816 170.836 362.008 171.385C358.397 172.499 354.719 173.387 351 174Z" fill="white"/>
<path d="M370 144C367.894 145.359 365.817 146.745 363.792 148.202C362.783 148.935 361.777 149.67 360.795 150.435C359.808 151.195 358.831 151.967 357.876 152.766C356.914 153.555 355.97 154.366 355.039 155.192C354.102 156.01 353.192 156.859 352.284 157.71C350.476 159.422 348.726 161.194 347 163C348.515 161.018 350.17 159.139 351.92 157.35C352.79 156.451 353.698 155.588 354.617 154.736C355.542 153.891 356.49 153.07 357.452 152.267C358.422 151.471 359.408 150.695 360.415 149.947C361.427 149.205 362.448 148.475 363.498 147.787C365.59 146.401 367.757 145.125 370 144Z" fill="white"/>
<path d="M364 133C364.053 133.131 364.147 133.244 364.227 133.363L364.473 133.72C364.637 133.958 364.79 134.204 364.942 134.45C365.237 134.947 365.51 135.457 365.744 135.983C366.223 137.032 366.563 138.137 366.775 139.261C366.878 139.825 366.944 140.393 366.98 140.963C367.01 141.533 367.007 142.104 366.964 142.673C366.878 143.809 366.645 144.934 366.24 146C366.357 144.876 366.429 143.766 366.411 142.66C366.392 142.107 366.366 141.556 366.31 141.008C366.251 140.46 366.179 139.913 366.077 139.371C365.875 138.285 365.589 137.214 365.227 136.157C365.043 135.63 364.845 135.105 364.628 134.584C364.524 134.322 364.41 134.062 364.299 133.801L364.132 133.407C364.106 133.341 364.079 133.275 364.054 133.207C364.032 133.14 364.001 133.072 364 133Z" fill="white"/>
<path d="M296 126C296.425 126.284 296.823 126.574 297.222 126.858C297.62 127.141 298.014 127.419 298.415 127.679C298.817 127.939 299.223 128.181 299.647 128.393C299.86 128.497 300.076 128.596 300.3 128.684C300.524 128.771 300.755 128.845 301 128.919C300.755 128.987 300.497 129.006 300.241 128.998C299.984 128.987 299.729 128.941 299.48 128.875C298.983 128.738 298.514 128.512 298.084 128.232C297.654 127.953 297.261 127.62 296.907 127.25C296.556 126.876 296.236 126.469 296 126Z" fill="white"/>
<path d="M315.209 95.6097C312.958 92.9374 309.587 92.5508 308.352 93.4265C307.256 94.2041 306.632 97.1474 307.234 98.8165C308.065 101.122 310.219 100.791 312.971 102.714C314.068 103.481 313.64 105.415 314.077 106.488C316.219 111.751 321.506 116.211 325.505 118.699C327.801 120.127 332.586 123.033 339.44 123.805C342.089 124.104 352.215 124.902 361.19 118.255C369.186 112.333 372.243 103.484 372.545 102.344C372.579 102.216 372.722 101.641 373.061 100.938C373.889 99.2192 375.141 98.2768 375.494 97.978C377.667 96.1406 378.568 91.0007 377.632 87.8395C376.409 83.7099 371.7 81.7721 369.08 80.7351C329.724 65.1621 325.99 64.5636 321.302 67.1924C315.655 70.3586 310.166 77.3418 310.316 85.2492C310.418 90.5716 313.731 93.6917 315.209 95.6097Z" fill="white"/>
<path d="M343.483 125C342.016 125 340.789 124.906 339.894 124.805C332.793 124.004 327.861 120.932 325.755 119.621C323.696 118.338 316.771 113.65 314.14 107.181C313.961 106.74 313.915 106.211 313.867 105.651C313.794 104.806 313.718 103.931 313.145 103.53C312.107 102.804 311.155 102.406 310.316 102.055C308.922 101.472 307.822 101.012 307.26 99.4512C306.6 97.6199 307.262 94.5284 308.503 93.6477C309.467 92.963 311.475 92.9419 313.415 93.9506C311.95 92.0155 310.407 89.3698 310.337 85.6964C310.18 77.4243 316.037 70.3291 321.545 67.2372C326.443 64.4876 330.463 65.2452 369.836 80.8423C372.266 81.8052 377.325 83.8089 378.624 88.2019C379.55 91.3315 378.752 96.7332 376.373 98.7471C376.344 98.7716 376.309 98.8001 376.269 98.8329C375.814 99.2087 374.747 100.089 374.012 101.616C373.805 102.045 373.64 102.493 373.52 102.95L373.514 102.972C373.326 103.686 372.447 106.205 370.675 109.253C368.328 113.29 365.404 116.622 361.982 119.159C355.422 124.024 348.21 125 343.483 125ZM310.341 93.8335C309.711 93.8335 309.193 93.9638 308.881 94.1858C307.894 94.8863 307.331 97.7132 307.876 99.227C308.34 100.515 309.226 100.886 310.567 101.447C311.437 101.811 312.423 102.223 313.52 102.99C314.345 103.567 314.438 104.644 314.52 105.594C314.564 106.103 314.605 106.583 314.747 106.932C317.303 113.217 324.083 117.805 326.1 119.061C328.169 120.349 333.013 123.366 339.967 124.15C343.667 124.568 353.182 124.865 361.593 118.629C370.044 112.363 372.856 102.896 372.88 102.803L372.886 102.782C373.016 102.285 373.196 101.796 373.421 101.33C374.219 99.6718 375.406 98.6926 375.853 98.324C375.89 98.2933 375.923 98.2664 375.95 98.2435C377.915 96.5802 378.947 91.6074 377.995 88.39C376.787 84.3045 371.929 82.3803 369.595 81.4555C348.361 73.0438 338.669 69.4673 332.559 67.7881C325.907 65.9598 324.005 66.6107 321.864 67.8126C316.521 70.8116 310.84 77.6834 310.993 85.684C311.078 90.1618 313.5 93.0754 315.103 95.0035C315.373 95.327 315.626 95.6326 315.841 95.9115L315.331 96.3258C313.804 94.5117 311.778 93.8335 310.341 93.8335Z" fill="#6E39CB"/>
<path d="M308.476 91.6562C308.476 91.6562 302.905 82.6914 308.476 72.1577C308.476 72.1577 311.373 69.2442 312.933 65.8823C313.973 63.6412 314.221 62.4957 314.997 61.8481C315.652 61.3012 316.384 61.2351 316.722 61.1757C317.586 61.0239 321.681 59.8045 329.87 57.3657C334.279 56.0526 334.195 55.5931 336.778 54.9004C346.279 52.3527 353.938 56.021 353.938 56.021C354.76 56.4207 356.28 57.5629 359.287 59.8311C366.643 65.3807 370.321 68.1554 372.658 70.8131C374.843 73.299 377.709 77.2947 379.789 83.3638C379.789 83.3638 382.018 97.4835 371.989 106L373.772 100.397C373.772 100.397 378.675 94.794 378.006 91.4322C378.006 91.4322 377.124 88.5029 375.136 88.1749C372.992 87.821 371.103 89.7115 370.429 91.4322C369.762 93.1388 370.246 94.7238 370.429 95.2423C369.835 92.9342 368.698 89.5981 366.418 86.0534C364.357 82.85 362.712 79.7603 359.509 78.4332C356.221 77.0706 354.837 78.8967 344.578 80.0021C337.914 80.7201 336.339 80.1822 335.219 79.5539C332.106 77.8078 332.088 75.1264 329.202 73.7267C326.071 72.2085 322.189 73.3192 320.065 74.6233C315.187 77.6179 313.188 85.7027 316.276 94.1218L315.385 96.8112L308.476 91.6562Z" fill="#6E39CB"/>
<path d="M358 107C357.496 108.182 356.828 109.274 356.084 110.297C355.341 111.323 354.495 112.264 353.565 113.098C352.631 113.927 351.604 114.645 350.492 115.161C349.94 115.427 349.361 115.62 348.778 115.774C348.191 115.916 347.594 115.993 347 116C347.578 115.84 348.144 115.676 348.69 115.448C348.828 115.397 348.962 115.332 349.097 115.274L349.3 115.186C349.366 115.154 349.432 115.119 349.498 115.086L349.894 114.888L350.281 114.672C350.791 114.369 351.293 114.054 351.771 113.695C352.249 113.339 352.717 112.964 353.166 112.562C354.065 111.758 354.91 110.877 355.712 109.945C356.511 109.008 357.274 108.029 358 107Z" fill="#4A268B"/>
<path d="M270.108 65.9919C272.922 70.6204 279.999 70.0131 280.85 69.9281C286.728 69.3405 292.464 64.7858 292.964 59.4317C293.276 56.081 291.478 53.0589 291.364 52.8715C290.477 51.4203 289.713 51.2222 288.621 49.81C287.338 48.1512 287.236 46.8857 286.107 43.0311C285.264 40.1518 285.639 38.7348 284.278 37.2362C284.022 36.9536 282.965 35.7891 282.107 36.0335C281.061 36.3312 280.924 38.5472 280.85 39.751C280.649 42.9982 282.208 44.1057 282.107 47.4046C282.069 48.6412 282.046 49.3952 281.65 50.2474C279.925 53.9569 274.37 52.56 271.136 56.0423C268.82 58.5364 268.25 62.9363 270.108 65.9919Z" fill="white"/>
<path d="M279.737 70.9996C277.107 70.9996 272.406 70.4478 270.174 66.787C268.259 63.646 268.734 59.0642 271.256 56.356C272.87 54.6221 275.054 54.0308 276.981 53.5091C279.134 52.9263 280.993 52.4228 281.849 50.5862C282.223 49.7841 282.246 49.0514 282.283 47.8375C282.332 46.254 281.997 45.2149 281.642 44.1151C281.279 42.9885 280.903 41.8236 281.01 40.0965C281.095 38.7192 281.238 36.4142 282.527 36.0483C283.243 35.8444 284.103 36.2868 285.082 37.3619C286.028 38.401 286.206 39.4329 286.431 40.7392C286.559 41.4768 286.703 42.3127 287.005 43.3414C287.266 44.2313 287.471 44.978 287.653 45.6368C288.257 47.8362 288.533 48.84 289.497 50.0834C289.972 50.6956 290.382 51.0722 290.778 51.4366C291.29 51.9074 291.773 52.3519 292.296 53.2053C292.378 53.3385 294.291 56.5075 293.962 60.0256C293.714 62.675 292.22 65.2756 289.755 67.3482C287.405 69.3246 284.355 70.6279 281.386 70.9238C281.081 70.9543 280.495 70.9996 279.737 70.9996ZM282.868 36.6539C282.806 36.6539 282.758 36.6624 282.722 36.6725C281.892 36.9083 281.752 39.1692 281.692 40.1347C281.592 41.7445 281.933 42.8028 282.295 43.9232C282.65 45.0255 283.018 46.1652 282.966 47.8565C282.927 49.106 282.902 49.9315 282.473 50.8511C281.487 52.9663 279.389 53.5345 277.168 54.136C275.241 54.6577 273.249 55.1972 271.766 56.7888C269.468 59.2572 269.018 63.5954 270.765 66.4592C273.427 70.8271 280.021 70.4044 281.315 70.2752C287.335 69.6752 292.815 64.9547 293.282 59.9674C293.592 56.6543 291.784 53.6597 291.706 53.5338C291.231 52.7583 290.802 52.3631 290.304 51.9054C289.907 51.5404 289.457 51.1264 288.948 50.4706C287.906 49.1264 287.601 48.0154 286.992 45.8018C286.812 45.1454 286.607 44.4016 286.347 43.517C286.035 42.4538 285.887 41.5991 285.757 40.8449C285.533 39.5465 285.385 38.6889 284.566 37.7889C283.69 36.8262 283.145 36.6539 282.868 36.6539Z" fill="#4A268B"/>
<path d="M284.252 57.939C280.029 60.7598 276.225 61.7656 276.225 61.7656C271.912 62.9063 269.124 63.6435 267.759 62.2029C266.525 60.8998 267.12 58.5177 267.319 57.7203C268.529 52.8806 274.259 47.958 279.524 49.1924C283.266 50.0696 286.624 54.0211 285.901 56.299C285.726 56.8517 285.34 57.2123 284.252 57.939Z" fill="white"/>
<path d="M270.421 64C269.33 64 268.479 63.7386 267.861 63.083C266.481 61.6169 267.123 59.0335 267.333 58.1846C268.609 53.0487 274.612 47.8983 280.152 49.2058C282.958 49.8677 285.262 52.0098 286.3 53.839C286.952 54.987 287.154 56.048 286.883 56.9074C286.663 57.6051 286.169 58.0255 285.073 58.7623C280.778 61.6498 276.965 62.6849 276.804 62.7276C274.146 63.4352 272.024 64 270.421 64ZM278.35 49.6593C276.424 49.6593 274.403 50.4016 272.516 51.8262C270.263 53.5267 268.566 55.9632 267.974 58.3439C267.785 59.1065 267.209 61.4263 268.342 62.63C269.596 63.9622 272.396 63.2173 276.634 62.0891C276.673 62.0789 280.507 61.0361 284.705 58.214C285.774 57.4951 286.107 57.1716 286.253 56.7086C286.465 56.0389 286.277 55.1358 285.727 54.1657C284.582 52.1495 282.227 50.3743 280.001 49.8491C279.463 49.7221 278.91 49.6593 278.35 49.6593Z" fill="#4A268B"/>
<path d="M292.6 62.8138C291.389 63.3684 290.547 62.7186 284.155 60.4C280.159 58.9506 278.982 58.6583 279 58.0868C279.031 57.113 282.505 56.112 285.471 56.0753C287.649 56.0484 288.167 56.5587 290.735 56.377C292.999 56.2169 293.632 55.7472 294.245 56.1759C295.675 57.1753 295.046 61.6929 292.6 62.8138Z" fill="white"/>
<path d="M292.395 64C291.606 64 290.562 63.5913 288.342 62.7226C287.332 62.3272 286.074 61.835 284.473 61.2362C283.741 60.9626 283.102 60.7282 282.546 60.5241C279.734 59.4926 278.979 59.2154 279 58.5011C279.044 57.0766 283.136 56.1157 285.934 56.08C286.941 56.0673 287.614 56.1677 288.265 56.2648C289.085 56.3871 289.859 56.5029 291.289 56.3986C292.195 56.3325 292.853 56.213 293.333 56.1257C294.126 55.9814 294.605 55.8942 295.098 56.2498C295.785 56.7448 296.11 57.8961 295.967 59.3294C295.812 60.8825 295.038 62.9764 293.365 63.7666C293.039 63.9207 292.742 64 292.395 64ZM286.11 56.7037C286.056 56.7037 286 56.7041 285.943 56.7048C282.731 56.7458 279.681 57.8666 279.661 58.5194C279.652 58.7927 280.832 59.2251 282.785 59.9418C283.342 60.1463 283.983 60.3812 284.716 60.6553C286.322 61.2559 287.582 61.749 288.595 62.1453C291.689 63.3563 292.297 63.5729 293.07 63.2077C294.409 62.5752 295.159 60.7748 295.309 59.2708C295.427 58.0901 295.187 57.0992 294.697 56.7466C294.451 56.5691 294.204 56.6034 293.457 56.7392C292.962 56.8293 292.283 56.9526 291.339 57.0215C289.832 57.1313 288.983 57.0045 288.161 56.8819C287.548 56.7904 286.967 56.7037 286.11 56.7037Z" fill="#4A268B"/>
<path d="M345.961 162.964C346.883 163.923 350.049 167.446 349.999 172.418C349.996 172.776 349.961 174.626 349.126 176.867C348.632 178.193 347.16 182.143 344.651 182.873C340.56 184.063 333.683 176.707 333.081 169.192C332.958 167.657 332.72 164.681 334.609 162.742C336.886 160.405 341.483 160.361 345.961 162.964Z" fill="white"/>
<path d="M344.281 184C343.098 184 341.742 183.495 340.361 182.526C337.072 180.215 333.515 175.058 333.082 169.673C332.959 168.136 332.701 164.938 334.735 162.859C337.223 160.318 342.148 160.389 346.713 163.03L346.753 163.053L346.785 163.086C348.068 164.415 351.048 168.032 350.999 172.925C350.993 173.603 350.89 175.412 350.087 177.558C349.577 178.922 348.023 183.073 345.304 183.86C344.982 183.954 344.639 184 344.281 184ZM339.792 161.658C337.92 161.658 336.294 162.212 335.202 163.329C333.381 165.189 333.613 168.071 333.737 169.619C334.154 174.798 337.573 179.756 340.736 181.978C342.369 183.125 343.928 183.566 345.124 183.219C347.526 182.524 348.992 178.608 349.473 177.322C350.239 175.276 350.336 173.561 350.343 172.918C350.388 168.315 347.591 164.882 346.348 163.586C344.118 162.304 341.812 161.658 339.792 161.658Z" fill="#854CEA"/>
<path d="M396 213C394.897 213 394 212.103 394 211C394 209.897 394.897 209 396 209C397.103 209 398 209.897 398 211C398 212.103 397.103 213 396 213ZM396 209.475C395.159 209.475 394.475 210.159 394.475 211C394.475 211.841 395.159 212.525 396 212.525C396.841 212.525 397.525 211.841 397.525 211C397.525 210.159 396.841 209.475 396 209.475Z" fill="#CDBFE6"/>
<path d="M10 185C8.89727 185 8 184.103 8 183C8 181.897 8.89715 181 10 181C11.1028 181 12 181.897 12 183C12 184.103 11.1028 185 10 185ZM10 181.475C9.15929 181.475 8.47531 182.159 8.47531 183C8.47531 183.841 9.15929 184.525 10 184.525C10.8407 184.525 11.5247 183.841 11.5247 183C11.5247 182.159 10.8407 181.475 10 181.475Z" fill="#4A268B"/>
<path d="M251 82C249.897 82 249 81.1028 249 80C249 78.8972 249.897 78 251 78C252.103 78 253 78.8972 253 80C253 81.1028 252.103 82 251 82ZM251 78.4754C250.159 78.4754 249.475 79.1594 249.475 80.0001C249.475 80.8408 250.159 81.5248 251 81.5248C251.841 81.5248 252.525 80.8408 252.525 80.0001C252.525 79.1594 251.841 78.4754 251 78.4754Z" fill="#4A268B"/>
<path d="M55.4978 60.4589C55.774 58.5137 56.226 58.5137 56.5022 60.4589C56.7784 62.4041 58.5959 64.2216 60.5411 64.4978C62.4863 64.774 62.4863 65.226 60.5411 65.5022C58.5959 65.7784 56.7784 67.5959 56.5022 69.5411C56.226 71.4863 55.774 71.4863 55.4978 69.5411C55.2216 67.5959 53.4041 65.7784 51.4589 65.5022C49.5137 65.226 49.5137 64.774 51.4589 64.4978C53.4041 64.2216 55.2216 62.4041 55.4978 60.4589Z" fill="#6E39CB"/>
<path d="M390.498 33.4589C390.774 31.5137 391.226 31.5137 391.502 33.4589C391.778 35.4041 393.596 37.2216 395.541 37.4978C397.486 37.774 397.486 38.226 395.541 38.5022C393.596 38.7784 391.778 40.5959 391.502 42.5411C391.226 44.4863 390.774 44.4863 390.498 42.5411C390.222 40.5959 388.404 38.7784 386.459 38.5022C384.514 38.226 384.514 37.774 386.459 37.4978C388.404 37.2216 390.222 35.4041 390.498 33.4589Z" fill="#6E39CB"/>
<path d="M410 228H0V230H410V228Z" fill="#6E39CB"/>
</g>
</g>
<defs>
<clipPath id="clip0_308_837">
<rect width="410" height="230" fill="white"/>
</clipPath>
</defs>
</svg>
