<svg width="131" height="130" viewBox="0 0 131 130" fill="none" xmlns="http://www.w3.org/2000/svg">
<g clip-path="url(#clip0_308_934)">
<path d="M102.715 46.0616C102.715 46.5777 102.298 47 101.788 47H48.0694C47.5597 47 47.1426 46.5777 47.1426 46.0616V1.4692C47.1426 1.21008 47.3501 1 47.606 1H101.788C102.298 1 102.715 1.42228 102.715 1.9384V46.0616Z" fill="white"/>
<path d="M101.323 46.9999H47.5422C46.7748 46.9999 46.1504 46.3677 46.1504 45.5905V0.939632C46.1504 0.421543 46.5667 0 47.0783 0H101.323C102.09 0 102.714 0.632255 102.714 1.40945V45.5905C102.714 46.3677 102.09 46.9999 101.323 46.9999ZM47.0783 0.939632V45.5905C47.0783 45.8496 47.2864 46.0603 47.5422 46.0603H101.323C101.578 46.0603 101.787 45.8496 101.787 45.5905V1.40945C101.787 1.15035 101.578 0.939632 101.323 0.939632H47.0783Z" fill="#6E39CB"/>
<path d="M97.8075 43H52.0489C51.5319 43 51.1113 42.5782 51.1113 42.0598V12.7305C51.1113 12.472 51.2193 12.2288 51.4074 12.0631C51.5953 11.8974 51.8496 11.8216 52.1056 11.8551C52.1064 11.8551 52.2843 11.8772 52.5877 11.8772C55.5403 11.8772 57.9424 9.46865 57.9424 6.50824C57.9424 6.1955 57.9174 5.99969 57.9171 5.99781C57.8827 5.74242 57.9573 5.4868 58.1221 5.2977C58.2869 5.1086 58.5296 5 58.7878 5H90.9564C91.2146 5 91.4573 5.10848 91.6222 5.2977C91.7871 5.48692 91.8616 5.74254 91.8271 5.99899C91.8271 5.99969 91.802 6.19538 91.802 6.50824C91.802 9.46865 94.2041 11.8772 97.1565 11.8772C97.4921 11.8772 97.7367 11.8428 97.7446 11.8418C97.9999 11.8042 98.2566 11.8765 98.4462 12.0409C98.636 12.2052 98.7449 12.4486 98.7449 12.7085V42.0598C98.7449 42.5782 98.3244 43 97.8075 43ZM52.0489 12.7945V42.0598H97.8075V12.7814C97.693 12.7947 97.4543 12.8174 97.1566 12.8174C93.6871 12.8174 90.8646 9.98707 90.8646 6.50824C90.8646 6.23898 90.8806 6.03848 90.8905 5.94022H58.8542C58.8641 6.0386 58.8801 6.2391 58.8801 6.50824C58.8801 9.98719 56.0574 12.8174 52.588 12.8174C52.3264 12.8174 52.1411 12.8035 52.0489 12.7945Z" fill="#6E39CB"/>
<path d="M116.673 14H62.9542C62.4423 14 62.0273 14.4201 62.0273 14.9384V59.0616C62.0273 59.5799 62.4423 60 62.9542 60H116.673C117.185 60 117.6 59.5799 117.6 59.0616V14.9384C117.6 14.4201 117.185 14 116.673 14Z" fill="white"/>
<path d="M116.208 60H62.427C61.6595 60 61.0352 59.3677 61.0352 58.5905V14.4095C61.0352 13.6323 61.6595 13 62.427 13H116.208C116.975 13 117.6 13.6323 117.6 14.4095V58.5905C117.6 59.3677 116.975 60 116.208 60ZM62.427 13.9396C62.1712 13.9396 61.9631 14.1503 61.9631 14.4095V58.5905C61.9631 58.8497 62.1712 59.0604 62.427 59.0604H116.208C116.464 59.0604 116.672 58.8497 116.672 58.5905V14.4095C116.672 14.1503 116.464 13.9396 116.208 13.9396H62.427Z" fill="#6E39CB"/>
<path d="M112.692 55.9999H66.9336C66.4167 55.9999 65.9961 55.5781 65.9961 55.0597V25.7302C65.9961 25.4718 66.104 25.2285 66.292 25.0629C66.4801 24.8973 66.7343 24.8211 66.9903 24.8549C66.991 24.8549 67.1689 24.877 67.4725 24.877C70.425 24.877 72.8271 22.4684 72.8271 19.508C72.8271 19.1954 72.802 18.9998 72.8018 18.9979C72.7673 18.7421 72.8421 18.4865 73.007 18.2975C73.1718 18.1085 73.4144 18 73.6725 18H105.841C106.099 18 106.342 18.1085 106.507 18.2975C106.672 18.4866 106.746 18.7422 106.711 18.9988C106.711 18.9999 106.686 19.1955 106.686 19.508C106.686 22.4684 109.088 24.877 112.041 24.877C112.376 24.877 112.621 24.8426 112.629 24.8416C112.885 24.804 113.141 24.8764 113.331 25.0406C113.52 25.2049 113.629 25.4483 113.629 25.7084V55.0598C113.629 55.5782 113.209 55.9999 112.692 55.9999ZM66.9336 25.7943V55.0597H112.692V25.7811C112.577 25.7944 112.339 25.8171 112.041 25.8171C108.571 25.8171 105.749 22.9867 105.749 19.5079C105.749 19.2388 105.765 19.0382 105.775 18.94H73.7389C73.7488 19.0382 73.7649 19.2388 73.7649 19.5079C73.7649 22.9869 70.9422 25.8171 67.4727 25.8171C67.2111 25.8171 67.0259 25.8032 66.9336 25.7943Z" fill="#6E39CB"/>
<path d="M83.1818 104.923H129.508V47.8648C129.508 41.3392 124.221 36 117.759 36H12.2483C5.78675 36 0.5 41.3392 0.5 47.8648V117.135C0.5 123.661 5.78675 129 12.2483 129H117.759C121.272 129 124.438 127.423 126.595 124.933H83.1818C77.9058 124.933 73.5892 120.574 73.5892 115.246V114.611C73.5892 109.283 77.9058 104.923 83.1818 104.923ZM16.7902 54.6483C16.7902 53.9299 17.3722 53.342 18.0836 53.342H111.483C112.195 53.342 112.777 53.9299 112.777 54.6483V55.371C112.777 56.0894 112.195 56.6772 111.483 56.6772H18.0836C17.3722 56.6772 16.7902 56.0895 16.7902 55.371V54.6483ZM18.0836 74.2415C17.3722 74.2415 16.7902 73.6536 16.7902 72.9352V72.2125C16.7902 71.4941 17.3722 70.9062 18.0836 70.9062H111.483C112.195 70.9062 112.777 71.494 112.777 72.2125V72.9352C112.777 73.6536 112.195 74.2415 111.483 74.2415H18.0836Z" fill="white"/>
<path d="M118.378 130H12.6219C5.93792 130 0.5 124.503 0.5 117.747V48.253C0.5 41.4967 5.93792 36 12.6219 36H118.378C125.062 36 130.5 41.4968 130.5 48.253V105.846H83.7201C78.6094 105.846 74.4516 110.048 74.4516 115.214V115.851C74.4516 121.017 78.6095 125.22 83.7201 125.22H127.998L127.495 125.801C125.184 128.469 121.861 130 118.378 130ZM12.6219 36.7002C6.31988 36.7002 1.19279 41.8828 1.19279 48.2529V117.747C1.19279 124.117 6.31988 129.3 12.6219 129.3H118.378C121.4 129.3 124.294 128.077 126.435 125.92H83.7202C78.2276 125.92 73.759 121.403 73.759 115.851V115.214C73.759 109.662 78.2276 105.145 83.7202 105.145H129.807V48.2529C129.807 41.8828 124.68 36.7002 118.378 36.7002H12.6219ZM112.087 75.0649H18.4708C17.565 75.0649 16.828 74.3199 16.828 73.4043V72.6792C16.828 71.7635 17.5649 71.0186 18.4708 71.0186H112.087C112.993 71.0186 113.73 71.7635 113.73 72.6792V73.4043C113.73 74.3199 112.993 75.0649 112.087 75.0649ZM18.4708 71.719C17.9469 71.719 17.5208 72.1496 17.5208 72.6793V73.4044C17.5208 73.934 17.9469 74.3648 18.4708 74.3648H112.087C112.611 74.3648 113.037 73.9341 113.037 73.4044V72.6793C113.037 72.1498 112.611 71.719 112.087 71.719H18.4708ZM112.087 57.4441H18.4708C17.565 57.4441 16.828 56.6991 16.828 55.7835V55.0583C16.828 54.1427 17.5649 53.3977 18.4708 53.3977H112.087C112.993 53.3977 113.73 54.1427 113.73 55.0583V55.7835C113.73 56.6991 112.993 57.4441 112.087 57.4441ZM18.4708 54.0981C17.9469 54.0981 17.5208 54.5289 17.5208 55.0584V55.7836C17.5208 56.3131 17.9469 56.7439 18.4708 56.7439H112.087C112.611 56.7439 113.037 56.3132 113.037 55.7836V55.0584C113.037 54.529 112.611 54.0981 112.087 54.0981H18.4708Z" fill="#6E39CB"/>
<path d="M111.339 53H17.6741C16.9578 53 16.377 53.5261 16.377 54.175V54.825C16.377 55.4739 16.9578 56 17.6741 56H111.339C112.056 56 112.636 55.4739 112.636 54.825V54.175C112.636 53.5261 112.056 53 111.339 53Z" fill="white"/>
<path d="M111.98 57H18.0258C17.1167 57 16.377 56.2635 16.377 55.3584V54.6416C16.377 53.7365 17.1166 53 18.0258 53H111.98C112.889 53 113.629 53.7365 113.629 54.6416V55.3584C113.629 56.2635 112.889 57 111.98 57ZM18.0258 53.6924C17.5 53.6924 17.0723 54.1181 17.0723 54.6417V55.3585C17.0723 55.882 17.5 56.3079 18.0258 56.3079H111.98C112.506 56.3079 112.934 55.8821 112.934 55.3585V54.6417C112.934 54.1182 112.506 53.6924 111.98 53.6924H18.0258Z" fill="#6E39CB"/>
<path d="M111.339 71H17.6741C16.9578 71 16.377 71.5261 16.377 72.175V72.825C16.377 73.4739 16.9578 74 17.6741 74H111.339C112.056 74 112.636 73.4739 112.636 72.825V72.175C112.636 71.5261 112.056 71 111.339 71Z" fill="white"/>
<path d="M111.98 75H18.0258C17.1167 75 16.377 74.2635 16.377 73.3584V72.6416C16.377 71.7365 17.1166 71 18.0258 71H111.98C112.889 71 113.629 71.7365 113.629 72.6416V73.3584C113.629 74.2635 112.889 75 111.98 75ZM18.0258 71.6924C17.5 71.6924 17.0723 72.1181 17.0723 72.6417V73.3585C17.0723 73.882 17.5 74.3079 18.0258 74.3079H111.98C112.506 74.3079 112.934 73.8821 112.934 73.3585V72.6417C112.934 72.1182 112.506 71.6924 111.98 71.6924H18.0258Z" fill="#6E39CB"/>
<path d="M129.508 105V117.206C129.508 120.184 128.414 122.912 126.614 125H83.4687C78.2254 125 73.9355 120.643 73.9355 115.317V114.683C73.9355 109.357 78.2254 105 83.4687 105H129.508Z" fill="white"/>
<path d="M127.402 126H83.8658C78.3902 126 73.9355 121.434 73.9355 115.822V115.178C73.9355 109.566 78.3902 105 83.8658 105H130.5V117.738C130.5 120.728 129.437 123.619 127.505 125.879L127.402 126ZM83.8658 105.708C78.771 105.708 74.6261 109.956 74.6261 115.178V115.822C74.6261 121.044 78.7711 125.292 83.8658 125.292H127.087C128.844 123.179 129.81 120.503 129.81 117.738V105.708H83.8658Z" fill="#6E39CB"/>
<path d="M111.339 53H17.6741C16.9578 53 16.377 53.5261 16.377 54.175V54.825C16.377 55.4739 16.9578 56 17.6741 56H111.339C112.056 56 112.636 55.4739 112.636 54.825V54.175C112.636 53.5261 112.056 53 111.339 53Z" fill="white"/>
<path d="M111.98 57H18.0258C17.1167 57 16.377 56.2635 16.377 55.3584V54.6416C16.377 53.7365 17.1166 53 18.0258 53H111.98C112.889 53 113.629 53.7365 113.629 54.6416V55.3584C113.629 56.2635 112.889 57 111.98 57ZM18.0258 53.6924C17.5 53.6924 17.0723 54.1181 17.0723 54.6417V55.3585C17.0723 55.882 17.5 56.3079 18.0258 56.3079H111.98C112.506 56.3079 112.934 55.8821 112.934 55.3585V54.6417C112.934 54.1182 112.506 53.6924 111.98 53.6924H18.0258Z" fill="#6E39CB"/>
<path d="M111.339 71H17.6741C16.9578 71 16.377 71.5261 16.377 72.175V72.825C16.377 73.4739 16.9578 74 17.6741 74H111.339C112.056 74 112.636 73.4739 112.636 72.825V72.175C112.636 71.5261 112.056 71 111.339 71Z" fill="white"/>
<path d="M111.98 75H18.0258C17.1167 75 16.377 74.2635 16.377 73.3584V72.6416C16.377 71.7365 17.1166 71 18.0258 71H111.98C112.889 71 113.629 71.7365 113.629 72.6416V73.3584C113.629 74.2635 112.889 75 111.98 75ZM18.0258 71.6924C17.5 71.6924 17.0723 72.1181 17.0723 72.6417V73.3585C17.0723 73.882 17.5 74.3079 18.0258 74.3079H111.98C112.506 74.3079 112.934 73.8821 112.934 73.3585V72.6417C112.934 72.1182 112.506 71.6924 111.98 71.6924H18.0258Z" fill="#6E39CB"/>
<path d="M129.508 105V117.206C129.508 120.184 128.414 122.912 126.614 125H83.4687C78.2254 125 73.9355 120.643 73.9355 115.317V114.683C73.9355 109.357 78.2254 105 83.4687 105H129.508Z" fill="white"/>
<path d="M127.402 126H83.8658C78.3902 126 73.9355 121.434 73.9355 115.822V115.178C73.9355 109.566 78.3902 105 83.8658 105H130.5V117.738C130.5 120.728 129.437 123.619 127.505 125.879L127.402 126ZM83.8658 105.708C78.771 105.708 74.6261 109.956 74.6261 115.178V115.822C74.6261 121.044 78.7711 125.292 83.8658 125.292H127.087C128.844 123.179 129.81 120.503 129.81 117.738V105.708H83.8658Z" fill="#6E39CB"/>
<path d="M85.8428 120C88.5831 120 90.8046 117.761 90.8046 115C90.8046 112.239 88.5831 110 85.8428 110C83.1024 110 80.8809 112.239 80.8809 115C80.8809 117.761 83.1024 120 85.8428 120Z" fill="white"/>
<path d="M86.339 121C83.3294 121 80.8809 118.533 80.8809 115.5C80.8809 112.467 83.3294 110 86.339 110C89.3485 110 91.797 112.467 91.797 115.5C91.797 118.533 89.3485 121 86.339 121ZM86.339 110.703C83.7139 110.703 81.5784 112.855 81.5784 115.5C81.5784 118.145 83.7139 120.297 86.339 120.297C88.964 120.297 91.0995 118.145 91.0995 115.5C91.0995 112.855 88.964 110.703 86.339 110.703Z" fill="#6E39CB"/>
</g>
<defs>
<clipPath id="clip0_308_934">
<rect width="131" height="130" fill="white"/>
</clipPath>
</defs>
</svg>
