<svg width="410" height="237" viewBox="0 0 410 237" fill="none" xmlns="http://www.w3.org/2000/svg">
<g clip-path="url(#clip0_308_708)">
<mask id="mask0_308_708" style="mask-type:luminance" maskUnits="userSpaceOnUse" x="0" y="0" width="410" height="237">
<path d="M410 0H0V237H410V0Z" fill="white"/>
</mask>
<g mask="url(#mask0_308_708)">
<path d="M219.204 193H91.7959C91.357 193 91 192.644 91 192.207V0.792712C91 0.355531 91.357 0 91.7959 0H219.204C219.643 0 220 0.355531 220 0.792712V192.207C220 192.644 219.643 193 219.204 193ZM91.7959 0.792712V192.207H219.205L219.204 0.792712H91.7959Z" fill="#6E39CB"/>
<path d="M219 22H91V23H219V22Z" fill="#6E39CB"/>
<path d="M182 38H107V39H182V38Z" fill="#6E39CB"/>
<path d="M182 58H107V59H182V58Z" fill="#6E39CB"/>
<path d="M164 77H107V78H164V77Z" fill="#6E39CB"/>
<path d="M335.031 39H206.969C197.045 39 189 47.0424 189 56.9633V218.037C189 227.958 197.045 236 206.969 236H335.031C344.955 236 353 227.958 353 218.037V56.9633C353 47.0424 344.955 39 335.031 39Z" fill="white"/>
<path d="M334.456 236H206.544C196.319 236 188 227.682 188 217.458V56.5417C188 46.3178 196.319 38 206.544 38H334.456C344.681 38 353 46.3178 353 56.5417V217.458C353 227.682 344.681 236 334.456 236ZM206.544 39.192C196.976 39.192 189.192 46.9751 189.192 56.5417V217.458C189.192 227.025 196.976 234.808 206.544 234.808H334.456C344.024 234.808 351.808 227.025 351.808 217.458V56.5417C351.808 46.9751 344.024 39.192 334.456 39.192H206.544Z" fill="#854CEA"/>
<path d="M328.044 47H212.956C203.039 47 195 55.0649 195 65.0134V210.987C195 220.935 203.039 229 212.956 229H328.044C337.961 229 346 220.935 346 210.987V65.0134C346 55.0649 337.961 47 328.044 47Z" fill="white"/>
<path d="M327.471 229H212.529C202.312 229 194 220.66 194 210.408V64.5916C194 54.3402 202.312 46 212.529 46H327.471C337.688 46 346 54.3402 346 64.5916V210.408C346 220.66 337.688 229 327.471 229ZM212.529 47.1952C202.969 47.1952 195.191 54.9991 195.191 64.5916V210.408C195.191 220.001 202.969 227.805 212.529 227.805H327.471C337.031 227.805 344.809 220.001 344.809 210.408V64.5916C344.809 54.9991 337.031 47.1952 327.471 47.1952H212.529Z" fill="#854CEA"/>
<path d="M295.953 30H246.047C241.051 30 237 34.0659 237 39.0814V47.9186C237 52.9341 241.051 57 246.047 57H295.953C300.949 57 305 52.9341 305 47.9186V39.0814C305 34.0659 300.949 30 295.953 30Z" fill="white"/>
<path d="M295.385 57H245.615C240.313 57 236 52.6882 236 47.3883V38.6117C236 33.3118 240.313 29 245.615 29H295.385C300.687 29 305 33.3118 305 38.6117V47.3883C305 52.6882 300.687 57 295.385 57ZM245.615 30.185C240.967 30.185 237.185 33.9652 237.185 38.6117V47.3883C237.185 52.0348 240.967 55.815 245.615 55.815H295.385C300.033 55.815 303.815 52.0348 303.815 47.3883V38.6117C303.815 33.9652 300.033 30.185 295.385 30.185H245.615Z" fill="#854CEA"/>
<path d="M323.724 185H218.276C214.815 185 212 182.153 212 178.653V172.347C212 168.847 214.815 166 218.276 166H323.724C327.185 166 330 168.847 330 172.347V178.653C330 182.153 327.185 185 323.724 185ZM218.276 167.203C215.471 167.203 213.189 169.511 213.189 172.347V178.653C213.189 181.489 215.471 183.797 218.276 183.797H323.724C326.529 183.797 328.811 181.489 328.811 178.653V172.347C328.811 169.511 326.529 167.203 323.724 167.203H218.276Z" fill="#854CEA"/>
<path d="M323.724 212H218.276C214.815 212 212 209.153 212 205.653V199.347C212 195.847 214.815 193 218.276 193H323.724C327.185 193 330 195.847 330 199.347V205.653C330 209.153 327.185 212 323.724 212ZM218.276 194.203C215.471 194.203 213.189 196.511 213.189 199.347V205.653C213.189 208.489 215.471 210.797 218.276 210.797H323.724C326.529 210.797 328.811 208.489 328.811 205.653V199.347C328.811 196.511 326.529 194.203 323.724 194.203H218.276Z" fill="#854CEA"/>
<path d="M121.774 166.168C117.252 166.822 113.665 167.338 110.511 167.797C107.334 168.259 105.574 168.395 103.783 167.47C102.217 166.66 102.243 165.435 100.252 163.381C98.6122 161.691 97.1417 160.894 95.8788 160.111C91.8384 157.604 89.0553 154.734 86.4606 152.261C82.3591 148.352 82.0691 147.224 80.2377 147.028C77.1903 146.701 73.1792 149.309 73.0058 152.424C72.9403 153.604 73.4427 154.509 73.8467 155.205C75.6971 158.39 77.2588 161.736 79.2286 164.853C82.4947 170.022 82.3135 170.602 86.1241 176.464C86.6983 177.347 87.4961 178.627 88.6469 180.225C89.9147 181.987 91.7531 184.365 92.6833 185.295C97.506 190.119 106.12 187.772 106.811 187.585C107.95 187.275 109.022 186.816 109.022 186.816C109.37 186.667 109.651 186.532 109.838 186.44C109.838 186.44 108.997 190.692 110.006 192H169C169 192 167.525 178.346 154.911 171.027C154.911 171.027 139.607 161.255 122.452 165.834L121.774 166.168Z" fill="#854CEA"/>
<path d="M170 193H110.29L110.192 192.871C109.33 191.749 109.646 188.936 109.85 187.638C109.765 187.676 109.68 187.713 109.595 187.75C109.549 187.77 108.471 188.229 107.334 188.539C105.741 188.974 97.5694 190.897 92.8416 186.147C91.918 185.219 90.0882 182.855 88.7581 180.999C87.8014 179.664 87.0739 178.529 86.5427 177.7C86.4273 177.52 86.3195 177.352 86.2186 177.196C84.1451 173.993 83.2265 172.314 82.338 170.691C81.5811 169.308 80.7986 167.878 79.2989 165.494C78.1342 163.643 77.0966 161.685 76.0931 159.791C75.388 158.461 74.6589 157.085 73.8938 155.762C73.5112 155.101 72.933 154.101 73.0064 152.777C73.0822 151.408 73.8432 150.041 75.1493 148.93C76.751 147.567 78.8494 146.839 80.6252 147.03C81.9885 147.177 82.606 147.827 84.0976 149.399C84.8272 150.168 85.7353 151.124 87.0599 152.392C87.3748 152.694 87.6924 153.001 88.0148 153.313C90.3144 155.537 92.9207 158.058 96.4546 160.26C96.6125 160.358 96.7739 160.457 96.9383 160.558C98.1091 161.274 99.4362 162.086 100.904 163.606C101.81 164.544 102.315 165.322 102.72 165.947C103.228 166.73 103.563 167.247 104.362 167.662C106.058 168.542 107.738 168.421 110.911 167.958C112.839 167.676 114.929 167.373 117.293 167.03L122.158 166.324L122.852 165.988C131.819 163.584 140.264 165.145 145.771 166.878C151.619 168.718 155.489 171.141 155.671 171.257C162.279 175.11 165.812 180.713 167.612 184.735C169.563 189.093 169.945 192.492 169.961 192.635L170 193ZM110.628 192.34H169.255C169.101 191.347 168.553 188.443 167.001 184.982C165.24 181.055 161.786 175.584 155.334 171.824L155.322 171.816C155.284 171.792 151.438 169.35 145.554 167.501C140.142 165.801 131.848 164.268 123.054 166.617L122.356 166.962L117.388 167.683C115.023 168.026 112.934 168.329 111.006 168.61C107.691 169.094 105.924 169.216 104.059 168.247C103.105 167.752 102.691 167.114 102.167 166.307C101.757 165.674 101.292 164.957 100.43 164.065C99.021 162.605 97.7321 161.816 96.5949 161.121C96.4289 161.019 96.266 160.919 96.1065 160.82C92.5133 158.581 89.8802 156.034 87.5571 153.787C87.2357 153.477 86.9188 153.17 86.6048 152.869C85.2685 151.591 84.3157 150.587 83.62 149.854C82.167 148.323 81.6774 147.807 80.5546 147.686C78.9767 147.516 77.022 148.202 75.5755 149.432C74.4085 150.425 73.7296 151.626 73.6639 152.814C73.6062 153.854 74.0093 154.646 74.4636 155.431C75.2348 156.765 75.9669 158.146 76.6747 159.482C77.6726 161.364 78.7044 163.311 79.8561 165.142C81.3664 167.543 82.1538 168.982 82.9154 170.373C83.8387 172.061 84.7108 173.654 86.7712 176.837C86.8726 176.994 86.9809 177.163 87.0968 177.344C87.6242 178.166 88.3464 179.293 89.2931 180.614C90.6078 182.448 92.409 184.778 93.308 185.681C97.7786 190.173 105.629 188.32 107.158 187.903C108.255 187.604 109.291 187.162 109.335 187.143C109.605 187.027 109.874 186.903 110.137 186.772L110.736 186.475L110.607 187.132C110.389 188.237 109.992 191.232 110.628 192.34Z" fill="white"/>
<path d="M170 193H150.175L150.15 192.766C149.837 189.912 149.862 185.665 151.753 181.642C152.371 180.328 153.217 178.53 155.031 177.585C157.157 176.479 159.26 177.216 160.271 177.57C166.719 179.83 169.615 191.369 169.924 192.677L170 193ZM150.651 192.475H169.33C168.765 190.231 165.917 180.106 160.095 178.066C159.155 177.736 157.198 177.051 155.277 178.051C153.62 178.913 152.818 180.619 152.232 181.864C150.443 185.669 150.372 189.693 150.65 192.475H150.651Z" fill="white"/>
<path d="M155.63 177C155.606 176.973 153.153 174.264 148 172.473L148.162 172C153.446 173.837 155.898 176.552 156 176.667L155.63 177Z" fill="white"/>
<path d="M111.87 182C111.842 182.37 111.788 182.733 111.735 183.096C111.676 183.458 111.616 183.82 111.544 184.179C111.474 184.539 111.395 184.896 111.313 185.253C111.231 185.609 111.143 185.964 111.05 186.319L110.506 186.108C110.712 185.788 110.931 185.496 111.172 185.21C111.412 184.925 111.673 184.654 111.956 184.404C112.239 184.154 112.551 183.929 112.891 183.746C113.232 183.572 113.615 183.435 114 183.449C113.637 183.559 113.33 183.75 113.054 183.972C112.774 184.193 112.527 184.447 112.29 184.709C112.054 184.973 111.832 185.248 111.62 185.531C111.409 185.812 111.201 186.106 111.018 186.394L110 188L110.474 186.183C110.566 185.829 110.663 185.476 110.765 185.124C110.868 184.772 110.974 184.421 111.088 184.072C111.201 183.722 111.326 183.376 111.451 183.029C111.583 182.684 111.713 182.339 111.87 182Z" fill="white"/>
<path d="M117.405 133.509C116.044 136.057 114.895 137.934 114.06 139.227C113.14 140.652 111.998 142.38 111.309 145.047C111.271 145.192 111.243 145.324 111.218 145.449C110.639 148.331 111.337 150.713 111.887 152.512C111.887 152.512 114.041 159.566 120.08 164.789C127.368 171.092 139.929 172.792 152.855 168.993C152.855 168.993 161.272 157.332 160.993 153.577C160.715 149.822 159.544 138.554 158.541 137.209C157.537 135.864 143.993 120.896 137.471 123.251C134.977 124.151 131.227 124.917 129.479 125.566C127.033 126.474 124.881 127.289 122.421 128.968C120.099 130.554 118.46 132.257 117.405 133.509Z" fill="white"/>
<path d="M139.919 172C132.072 172 125.076 169.83 120.256 165.661C114.173 160.4 111.927 153.218 111.906 153.146C111.391 151.461 110.613 148.915 111.224 145.871C111.255 145.715 111.286 145.581 111.32 145.449C112.01 142.778 113.149 141.015 114.064 139.598L114.133 139.492C115.254 137.755 116.382 135.826 117.486 133.758L117.503 133.727L117.525 133.701C119.024 131.923 120.746 130.364 122.642 129.069C125.203 127.321 127.446 126.488 129.82 125.607C130.659 125.295 131.946 124.958 133.31 124.6C134.827 124.202 136.547 123.752 137.87 123.274C140.746 122.236 145.123 124.15 150.882 128.962C155.302 132.656 159 136.826 159.458 137.442C160.634 139.018 161.823 151.808 161.993 154.096C162.279 157.954 154.086 169.354 153.737 169.838L153.671 169.929L153.563 169.961C148.904 171.33 144.279 172 139.919 172ZM118.049 134.102C116.942 136.174 115.81 138.109 114.684 139.852L114.615 139.958C113.726 141.334 112.619 143.048 111.956 145.615C111.925 145.737 111.898 145.856 111.868 146.002C111.29 148.881 112.009 151.234 112.534 152.952C112.555 153.022 114.751 160.028 120.684 165.159C127.996 171.483 140.473 173.089 153.27 169.358C154.056 168.256 161.593 157.592 161.337 154.145C160.971 149.214 159.791 138.989 158.932 137.838C158.482 137.234 154.838 133.127 150.461 129.47C144.973 124.883 140.696 122.956 138.092 123.896C136.742 124.384 135.007 124.839 133.476 125.24C132.128 125.593 130.856 125.927 130.048 126.227C127.712 127.094 125.506 127.913 123.012 129.616C121.174 130.871 119.504 132.38 118.049 134.102Z" fill="#6E39CB"/>
<path d="M122.285 117.562C121.18 118.114 116.621 120.549 115.39 125.491C115.104 126.637 114.601 128.653 115.558 130.552C116.746 132.911 119.436 133.604 123.967 134.77C126.3 135.37 128.588 135.959 131.703 135.782C135.674 135.556 139.026 134.196 139.271 134.095C141.622 133.121 141.892 132.525 142.803 132.745C145.222 133.33 147.026 138.429 146.671 142.699C146.588 143.695 146.348 145.126 146.671 145.23C147.186 145.394 147.987 141.822 150.203 141.349C151.398 141.094 152.591 141.83 153.23 142.53C154.395 143.808 154.547 145.873 153.734 147.085C152.259 149.286 148.133 147.881 147.512 149.447C147.101 150.482 148.793 151.371 150.203 154.002C151.614 156.638 151.727 159.126 151.884 162.606C152.132 168.08 150.972 169.61 152.053 170.536C153.877 172.099 159.201 169.466 162.48 166.318C166.425 162.53 167.402 157.817 168.198 154.171C169.832 146.681 168.548 140.59 168.029 138.481C167.467 136.192 165.647 129.802 160.293 123.803C157.898 121.12 153.59 116.293 148.689 116.043C147.986 116.007 146.716 116.037 144.821 115.706C141.362 115.1 140.851 114.17 138.935 114.019C135.904 113.778 134.913 115.923 131.199 117.224C129.293 117.891 126.385 118.438 122.285 117.562Z" fill="#6E39CB"/>
<path d="M119 161.789C119.781 161.799 120.552 161.771 121.318 161.698C122.083 161.623 122.843 161.51 123.593 161.352C124.344 161.199 125.086 161.003 125.819 160.775C126.552 160.546 127.276 160.283 128 160C127.354 160.425 126.652 160.771 125.926 161.057C125.563 161.204 125.192 161.327 124.817 161.441C124.441 161.551 124.06 161.646 123.676 161.729C123.29 161.802 122.903 161.871 122.513 161.916C122.122 161.957 121.73 161.992 121.337 161.997C120.551 162.015 119.762 161.958 119 161.789Z" fill="#6E39CB"/>
<path d="M61.5241 148.743C61.6449 148.915 62.1345 149.551 62.6789 150.211C63.1609 150.794 64.0962 151.891 64.4937 152.249C66.0479 153.649 69.381 152.756 70.928 152.249L72.2478 151.923C72.2478 151.923 72.4812 148.959 75.8704 147.261C75.8704 147.261 77.3048 146.241 80.1382 146.513C80.6704 145.14 81.7775 141.699 80.1382 139.119C77.3501 134.732 68.0396 135.069 63.8339 139.527C61.163 142.358 60.349 147.066 61.5241 148.743Z" fill="white"/>
<path d="M67.395 154C66.3216 154 65.3439 153.769 64.6546 153.146C64.2313 152.764 63.2736 151.637 62.7744 151.031C62.2058 150.341 61.7044 149.686 61.5836 149.513C60.2966 147.672 61.1593 142.684 63.964 139.702C66.3719 137.143 70.7018 135.679 74.7378 136.06C77.6602 136.335 79.9106 137.499 81.0746 139.335C82.7262 141.941 81.8013 145.362 81.103 147.169L81.0138 147.4L80.7653 147.376C78.0581 147.114 76.6576 148.07 76.6437 148.08L76.6018 148.105C73.3544 149.737 73.0957 152.57 73.0936 152.598L73.0753 152.831L71.5149 153.218C70.2484 153.633 68.7461 154 67.395 154ZM73.4449 136.649C69.9792 136.649 66.4781 137.983 64.4433 140.146C61.7165 143.044 61.0882 147.663 62.1223 149.142C62.2379 149.308 62.7244 149.943 63.282 150.62C63.7363 151.171 64.6999 152.308 65.0959 152.666C66.4912 153.926 69.5946 153.164 71.3204 152.597L71.344 152.591L72.4718 152.311C72.6042 151.536 73.2552 149.068 76.2855 147.536C76.4902 147.399 77.9266 146.514 80.5769 146.708C81.2166 144.967 81.9544 141.945 80.5193 139.681C79.4813 138.043 77.3513 136.959 74.6755 136.707C74.2675 136.668 73.8565 136.649 73.4449 136.649Z" fill="#6E39CB"/>
<path d="M65.776 112.788L47.4987 117.605C46.6713 117.823 46.1773 118.685 46.3952 119.53L54.0951 149.393C54.3131 150.238 55.1605 150.746 55.9879 150.528L74.2652 145.711C75.0926 145.493 75.5866 144.631 75.3687 143.786L67.6688 113.924C67.4508 113.078 66.6034 112.57 65.776 112.788Z" fill="#6E39CB"/>
<path d="M79.8242 145.35C81.0387 144.93 81.9823 139.975 79.1036 136.584C77.7076 134.939 75.8821 134.132 74.1166 133.662C72.8437 133.323 70.8014 132.561 70.1925 133.337C69.6161 134.072 70.4003 136.048 71.6641 137.071C72.4804 137.731 73.0723 137.651 73.9532 138.613C74.4471 139.152 74.7867 139.75 75.016 140.155C75.3914 140.817 75.6316 141.24 75.7518 141.778C76.0156 142.958 75.0488 143.444 75.3265 144.437C75.5218 145.137 76.1201 145.515 76.2423 145.593C77.1531 146.169 78.7257 146.173 79.8242 145.35Z" fill="white"/>
<path d="M78.374 147C77.6912 147 77.05 146.829 76.5855 146.536C76.0379 146.19 75.653 145.702 75.5014 145.162C75.3304 144.551 75.5367 144.087 75.7188 143.678C75.8971 143.276 76.0512 142.93 75.9355 142.414C75.8222 141.909 75.5925 141.505 75.2118 140.836C74.9855 140.438 74.6436 139.838 74.1596 139.312C73.6676 138.776 73.274 138.584 72.8571 138.38C72.5396 138.225 72.2113 138.064 71.8357 137.761C70.5034 136.686 69.4977 134.452 70.2674 133.474C70.9376 132.623 72.5767 133.096 74.0229 133.515C74.2468 133.579 74.4608 133.641 74.6567 133.693C76.9705 134.308 78.7062 135.323 79.9629 136.799C82.0113 139.204 82.3274 142.446 81.732 144.592C81.4792 145.503 81.0837 146.106 80.6142 146.3C79.9396 146.789 79.1313 147 78.374 147ZM71.4788 133.651C71.163 133.651 70.9134 133.713 70.7868 133.874C70.3493 134.43 71.033 136.273 72.2517 137.256C72.5697 137.513 72.8511 137.651 73.149 137.796C73.6022 138.018 74.0709 138.247 74.6464 138.873C75.1805 139.454 75.5443 140.093 75.785 140.516C76.1816 141.213 76.4435 141.673 76.5778 142.273C76.7401 142.997 76.5077 143.519 76.321 143.94C76.1566 144.309 76.0269 144.601 76.1353 144.988C76.2433 145.373 76.5287 145.728 76.9389 145.987C77.7389 146.492 79.1982 146.542 80.2558 145.752L80.297 145.721L80.3458 145.705C80.5632 145.63 80.8799 145.203 81.0974 144.419C81.5077 142.941 81.6246 139.76 79.4597 137.218C78.2763 135.829 76.696 134.909 74.4861 134.322C74.2858 134.269 74.0671 134.205 73.8381 134.139C73.1188 133.931 72.15 133.651 71.4788 133.651Z" fill="#6E39CB"/>
<path d="M357.176 65H181.824C175.846 65 171 69.8839 171 75.9086V141.091C171 147.116 175.846 152 181.824 152H357.176C363.154 152 368 147.116 368 141.091V75.9086C368 69.8839 363.154 65 357.176 65Z" fill="white"/>
<path d="M356.651 152H181.349C175.091 152 170 146.872 170 140.568V75.4324C170 69.1286 175.091 64 181.349 64H356.651C362.909 64 368 69.1286 368 75.4324V140.568C368 146.872 362.909 152 356.651 152ZM181.349 65.0633C175.673 65.0633 171.056 69.7149 171.056 75.4322V140.568C171.056 146.285 175.673 150.936 181.349 150.936H356.651C362.327 150.936 366.944 146.285 366.944 140.568V75.4322C366.944 69.7149 362.327 65.0633 356.651 65.0633H181.349Z" fill="#6E39CB"/>
<path d="M237.999 148C230.652 148 223.523 145.872 217.384 141.846C214.641 140.049 212.13 137.894 209.923 135.443C203.524 128.34 200 119.127 200 109.501C200 99.2167 203.953 89.5483 211.13 82.2765C218.307 75.0048 227.849 71 237.999 71C248.149 71 257.693 75.0047 264.87 82.2765C272.047 89.5483 276 99.2166 276 109.501C276 119.785 272.047 129.452 264.87 136.724C257.693 143.995 248.15 148 237.999 148ZM237.999 72.198C217.698 72.198 201.182 88.9319 201.182 109.501C201.182 118.827 204.597 127.754 210.796 134.635C212.935 137.011 215.368 139.098 218.026 140.84C223.974 144.74 230.88 146.802 237.999 146.802C258.301 146.802 274.818 130.069 274.818 109.5C274.818 88.9324 258.301 72.198 237.999 72.198Z" fill="#854CEA"/>
<path d="M237.999 143C231.573 143 225.316 141.198 219.906 137.79C217.114 136.033 214.593 133.88 212.413 131.389C206.988 125.195 204 117.244 204 109.001C204 99.9187 207.537 91.3803 213.958 84.9585C220.38 78.5366 228.918 75 237.999 75C247.081 75 255.62 78.5366 262.042 84.9585C268.463 91.3803 272 99.9185 272 109.001C272 118.083 268.463 126.62 262.042 133.042C255.62 139.464 247.081 143 237.999 143ZM237.999 76.1892C219.908 76.1892 205.189 90.9082 205.189 109.001C205.189 116.956 208.072 124.629 213.307 130.606C215.412 133.01 217.845 135.088 220.54 136.784C225.76 140.073 231.797 141.811 237.999 141.811C256.092 141.811 270.811 127.092 270.811 109.001C270.811 90.9092 256.092 76.1892 237.999 76.1892Z" fill="#854CEA"/>
<path d="M218 141.187L174.636 195.194C172.981 197.255 169.918 197.605 167.83 195.971C165.741 194.336 165.387 191.311 167.043 189.249L210.602 135C212.785 137.362 215.271 139.445 218 141.187Z" fill="white"/>
<path d="M170.384 198C169.211 198 168.029 197.618 167.04 196.831C164.71 194.976 164.318 191.564 166.165 189.224L209.77 134L210.238 134.515C212.372 136.864 214.8 138.929 217.454 140.652L218 141.007L174.616 195.952C173.552 197.298 171.975 198 170.384 198ZM209.837 135.823L167.09 189.961C165.647 191.788 165.953 194.454 167.773 195.903C169.593 197.35 172.248 197.042 173.691 195.216L216.271 141.289C213.934 139.714 211.775 137.879 209.837 135.823Z" fill="#854CEA"/>
<path d="M209.712 119L209 117.602L247.739 98.1413C248.215 97.902 248.784 97.9708 249.189 98.3159L268 114.363L266.972 115.551L248.294 99.6181L209.712 119Z" fill="#6E39CB"/>
<path d="M283.605 130C283.298 130 282.991 129.894 282.745 129.68L275 122.963L276.034 121.753L283.593 128.31L316.884 95L318 96.1321L284.536 129.616C284.281 129.871 283.943 130 283.605 130Z" fill="#6E39CB"/>
<path d="M324.752 103C324.453 103 324.158 102.893 323.924 102.687L309.418 89.9273C309.04 89.595 308.903 89.0755 309.07 88.604C309.236 88.1325 309.67 87.8092 310.176 87.7805L323.893 87.002C324.58 86.9633 325.169 87.4824 325.209 88.1596L325.998 101.698C326.027 102.197 325.751 102.659 325.296 102.877C325.122 102.959 324.936 103 324.752 103ZM311.122 89.3095L324.35 100.946L323.631 88.5995L311.121 89.3095H311.122Z" fill="#6E39CB"/>
<path d="M59.5 208C52.0323 208 45.007 207.57 39.718 206.789C37.1209 206.406 35.0738 205.957 33.6332 205.454C32.5028 205.06 31 204.398 31 203.215V198H32.3111V203.205C32.3439 203.283 32.9643 204.47 40.2985 205.51C45.4806 206.245 52.2998 206.65 59.5 206.65C66.7002 206.65 73.5194 206.245 78.7015 205.51C86.0361 204.47 86.6562 203.283 86.6889 203.205V198H88V203.215C88 204.398 86.4972 205.06 85.3668 205.454C83.9263 205.957 81.8791 206.406 79.282 206.789C73.993 207.57 66.9677 208 59.5 208Z" fill="#854CEA"/>
<path d="M59.5 204C52.0323 204 45.007 203.57 39.718 202.789C37.1209 202.406 35.0738 201.957 33.6332 201.454C32.5028 201.06 31 200.398 31 199.215V194H32.3111V199.205C32.3439 199.283 32.9643 200.47 40.2985 201.51C45.4806 202.245 52.2998 202.65 59.5 202.65C66.7002 202.65 73.5194 202.245 78.7015 201.51C86.0361 200.47 86.6562 199.283 86.6889 199.205V194H88V199.215C88 200.398 86.4972 201.06 85.3668 201.454C83.9263 201.957 81.8791 202.406 79.282 202.789C73.993 203.57 66.9677 204 59.5 204Z" fill="#854CEA"/>
<path d="M59.5 198C52.0323 198 45.007 197.57 39.718 196.789C37.1209 196.406 35.0738 195.957 33.6332 195.454C32.5028 195.06 31 194.398 31 193.215V188H32.3111V193.205C32.3439 193.283 32.9643 194.47 40.2985 195.51C45.4806 196.245 52.2998 196.65 59.5 196.65C66.7002 196.65 73.5194 196.245 78.7015 195.51C86.0361 194.47 86.6562 193.283 86.6889 193.205V188H88V193.215C88 194.398 86.4972 195.06 85.3668 195.454C83.9263 195.957 81.8791 196.406 79.282 196.789C73.993 197.57 66.9677 198 59.5 198Z" fill="#854CEA"/>
<path d="M59.5 194C52.0323 194 45.007 193.57 39.718 192.789C37.1209 192.406 35.0738 191.957 33.6332 191.454C32.5028 191.06 31 190.398 31 189.215V184H32.3111V189.205C32.3439 189.283 32.9643 190.47 40.2985 191.51C45.4806 192.245 52.2998 192.65 59.5 192.65C66.7002 192.65 73.5194 192.245 78.7015 191.51C86.0361 190.47 86.6562 189.283 86.6889 189.205V184H88V189.215C88 190.398 86.4972 191.06 85.3668 191.454C83.9263 191.957 81.8791 192.406 79.282 192.789C73.993 193.57 66.9677 194 59.5 194Z" fill="#854CEA"/>
<path d="M59.5 188C52.0323 188 45.007 187.596 39.718 186.861C37.1209 186.501 35.0738 186.078 33.6332 185.606C32.5028 185.235 31 184.613 31 183.5C31 182.387 32.5028 181.766 33.6332 181.395C35.0738 180.922 37.1209 180.499 39.718 180.139C45.007 179.404 52.0323 179 59.5 179C66.9677 179 73.9931 179.404 79.282 180.139C81.8791 180.499 83.9263 180.922 85.3668 181.394C86.4972 181.766 88 182.387 88 183.5C88 184.613 86.4972 185.235 85.3668 185.606C83.9263 186.078 81.8791 186.501 79.282 186.861C73.993 187.596 66.9677 188 59.5 188ZM32.316 183.5C32.3879 183.632 33.1879 184.71 40.2985 185.659C45.4806 186.35 52.2998 186.731 59.5 186.731C66.7002 186.731 73.5194 186.35 78.7015 185.659C85.8121 184.71 86.6121 183.632 86.684 183.5C86.6121 183.368 85.8121 182.29 78.7015 181.341C73.5194 180.65 66.7001 180.269 59.5 180.269C52.2999 180.269 45.4806 180.65 40.2985 181.341C33.1879 182.29 32.3879 183.368 32.316 183.5Z" fill="#854CEA"/>
<path d="M126.5 234C116.63 234 107.345 233.433 100.357 232.403C96.9339 231.898 94.2379 231.308 92.344 230.648C90.0625 229.853 89 228.977 89 227.891V221H90.3226V227.891C90.3226 228.352 92.1591 229.821 100.545 231.057C107.473 232.078 116.69 232.641 126.5 232.641C136.31 232.641 145.527 232.078 152.455 231.057C160.841 229.821 162.677 228.352 162.677 227.891V221H164V227.891C164 228.977 162.937 229.853 160.656 230.648C158.762 231.308 156.066 231.898 152.643 232.403C145.655 233.433 136.37 234 126.5 234Z" fill="#854CEA"/>
<path d="M126.5 228C116.63 228 107.345 227.433 100.357 226.403C96.9339 225.898 94.2378 225.308 92.344 224.648C90.0625 223.853 89 222.977 89 221.89V215H90.3226V221.89C90.3226 222.352 92.1591 223.821 100.545 225.057C107.473 226.078 116.69 226.641 126.5 226.641C136.31 226.641 145.527 226.078 152.455 225.057C160.841 223.821 162.677 222.352 162.677 221.89V215H164V221.89C164 222.977 162.937 223.853 160.656 224.648C158.762 225.308 156.066 225.898 152.643 226.403C145.655 227.433 136.37 228 126.5 228Z" fill="#854CEA"/>
<path d="M126.5 221C116.63 221 107.345 220.433 100.357 219.403C96.9339 218.898 94.2378 218.308 92.344 217.648C90.0625 216.853 89 215.976 89 214.89V208H90.3226V214.89C90.3226 215.352 92.1591 216.821 100.545 218.057C107.473 219.078 116.69 219.641 126.5 219.641C136.31 219.641 145.527 219.078 152.455 218.057C160.841 216.821 162.677 215.352 162.677 214.89V208H164V214.89C164 215.976 162.937 216.853 160.656 217.648C158.762 218.308 156.066 218.898 152.643 219.403C145.655 220.433 136.37 221 126.5 221Z" fill="#854CEA"/>
<path d="M126.5 214C116.63 214 107.345 213.433 100.357 212.403C96.9339 211.898 94.2378 211.308 92.344 210.648C90.0625 209.853 89 208.976 89 207.89V201H90.3226V207.89C90.3226 208.352 92.1591 209.821 100.545 211.057C107.473 212.078 116.69 212.641 126.5 212.641C136.31 212.641 145.527 212.078 152.455 211.057C160.841 209.821 162.677 208.352 162.677 207.89V201H164V207.89C164 208.976 162.937 209.853 160.656 210.648C158.762 211.308 156.066 211.898 152.643 212.403C145.655 213.433 136.37 214 126.5 214Z" fill="#854CEA"/>
<path d="M126.5 207C116.63 207 107.345 206.443 100.357 205.431C96.9339 204.936 94.2378 204.356 92.344 203.708C90.0625 202.927 89 202.067 89 201C89 199.933 90.0625 199.073 92.344 198.292C94.2378 197.644 96.9339 197.064 100.357 196.569C107.345 195.557 116.63 195 126.5 195C136.37 195 145.655 195.557 152.643 196.569C156.066 197.064 158.762 197.644 160.656 198.292C162.937 199.073 164 199.933 164 201C164 202.067 162.937 202.927 160.656 203.708C158.762 204.356 156.066 204.936 152.643 205.431C145.655 206.443 136.37 207 126.5 207ZM126.5 196.335C116.691 196.335 107.473 196.887 100.545 197.89C92.1591 199.104 90.3226 200.546 90.3226 201C90.3226 201.453 92.1591 202.896 100.545 204.11C107.473 205.113 116.69 205.665 126.5 205.665C136.31 205.665 145.527 205.112 152.455 204.11C160.841 202.896 162.677 201.453 162.677 201C162.677 200.546 160.841 199.104 152.455 197.89C145.527 196.887 136.31 196.335 126.5 196.335Z" fill="#854CEA"/>
<path d="M52.9526 103.761C53.1095 104.258 52.8639 104.795 52.4068 104.955C51.9496 105.114 51.4473 104.838 51.2903 104.341L49.0474 97.2386C48.8905 96.7416 49.1361 96.2046 49.5932 96.0452C50.0504 95.8858 50.5527 96.1619 50.7097 96.6588L52.9526 103.761Z" fill="#6E39CB"/>
<path d="M42.6003 109.405C43.027 109.701 43.1282 110.261 42.8253 110.65C42.5224 111.039 41.9253 111.116 41.4986 110.82L35.3997 106.595C34.973 106.299 34.8718 105.739 35.1747 105.35C35.4776 104.961 36.0747 104.884 36.5014 105.18L42.6003 109.405Z" fill="#6E39CB"/>
<path d="M38.0082 121.003C38.5099 120.967 38.9547 121.269 38.9968 121.674C39.0389 122.079 38.6629 122.441 38.1612 122.477L30.9918 122.997C30.4901 123.033 30.0453 122.731 30.0032 122.326C29.9611 121.921 30.3371 121.559 30.8388 121.523L38.0082 121.003Z" fill="#6E39CB"/>
<path d="M235 22C233.897 22 233 21.1028 233 19.9999C233 18.8971 233.897 18 235 18C236.103 18 237 18.8972 237 19.9999C237 21.1027 236.103 22 235 22ZM235 18.48C234.162 18.48 233.48 19.1619 233.48 19.9999C233.48 20.838 234.162 21.52 235 21.52C235.838 21.52 236.52 20.8381 236.52 19.9999C236.52 19.1618 235.838 18.48 235 18.48Z" fill="#6E39CB"/>
<path d="M368 159C366.897 159 366 158.103 366 157C366 155.897 366.897 155 368 155C369.103 155 370 155.897 370 157C370 158.103 369.103 159 368 159ZM368 155.48C367.162 155.48 366.48 156.162 366.48 157C366.48 157.838 367.162 158.52 368 158.52C368.838 158.52 369.52 157.838 369.52 157C369.52 156.162 368.838 155.48 368 155.48Z" fill="#6E39CB"/>
<path d="M49.0001 173C47.8973 173 47 172.103 47 171C47 169.897 47.8972 169 49.0001 169C50.1029 169 51 169.897 51 171C51 172.103 50.1028 173 49.0001 173ZM49.0001 169.48C48.1619 169.48 47.48 170.162 47.48 171C47.48 171.838 48.1619 172.52 49.0001 172.52C49.8382 172.52 50.52 171.838 50.52 171C50.52 170.162 49.8381 169.48 49.0001 169.48Z" fill="#6E39CB"/>
<path d="M367.498 170.459C367.774 168.514 368.226 168.514 368.502 170.459C368.778 172.404 370.596 174.222 372.541 174.498C374.486 174.774 374.486 175.226 372.541 175.502C370.596 175.778 368.778 177.596 368.502 179.541C368.226 181.486 367.774 181.486 367.498 179.541C367.222 177.596 365.404 175.778 363.459 175.502C361.514 175.226 361.514 174.774 363.459 174.498C365.404 174.222 367.222 172.404 367.498 170.459Z" fill="#6E39CB"/>
<path d="M59.4978 56.4589C59.774 54.5137 60.226 54.5137 60.5022 56.4589C60.7784 58.4041 62.5959 60.2216 64.5411 60.4978C66.4863 60.774 66.4863 61.226 64.5411 61.5022C62.5959 61.7784 60.7784 63.5959 60.5022 65.5411C60.226 67.4863 59.774 67.4863 59.4978 65.5411C59.2216 63.5959 57.4041 61.7784 55.4589 61.5022C53.5137 61.226 53.5137 60.774 55.4589 60.4978C57.4041 60.2216 59.2216 58.4041 59.4978 56.4589Z" fill="#6E39CB"/>
<path d="M410 235H0V237H410V235Z" fill="#6E39CB"/>
</g>
</g>
<defs>
<clipPath id="clip0_308_708">
<rect width="410" height="237" fill="white"/>
</clipPath>
</defs>
</svg>
