<svg width="22" height="20" viewBox="0 0 22 20" fill="none" xmlns="http://www.w3.org/2000/svg">
<path d="M20.3045 2L21.3024 1.93385C21.2758 1.5327 21.0115 1.18649 20.6316 1.055C20.2517 0.92351 19.83 1.03231 19.5611 1.33119L20.3045 2ZM19.9733 5.94521C19.9733 5.39292 19.5256 4.94521 18.9733 4.94521C18.421 4.94521 17.9733 5.39292 17.9733 5.94521H19.9733ZM10.9856 6.05479H9.98561V6.05479L10.9856 6.05479ZM10.9856 7.33333L11.9856 7.33333V7.33333L10.9856 7.33333ZM1.66669 16.6667V15.6667C1.22615 15.6667 0.837509 15.955 0.709698 16.3765C0.581888 16.7981 0.74502 17.2537 1.11139 17.4983L1.66669 16.6667ZM2.99796 2L3.93447 1.64935C3.79493 1.27668 3.44771 1.02221 3.05032 1.00137C2.65293 0.980536 2.281 1.1973 2.10326 1.55334L2.99796 2ZM8.32306 14L9.03072 14.7066C9.27544 14.4615 9.37591 14.1072 9.29628 13.7701C9.21665 13.433 8.96826 13.1611 8.63973 13.0515L8.32306 14ZM17.9548 3.29784L17.213 3.96853L17.5733 4.36701L18.1045 4.28657L17.9548 3.29784ZM19.3067 2.06615C19.3744 3.08647 19.3079 3.66271 19.1622 4.0733C19.024 4.46298 18.7809 4.79932 18.2814 5.27798L19.6651 6.72202C20.2657 6.14653 20.7593 5.55344 21.0471 4.74195C21.3276 3.95136 21.3767 3.05467 21.3024 1.93385L19.3067 2.06615ZM19.9733 6.91666V5.94521H17.9733V6.91666H19.9733ZM9.98561 6.05479L9.98562 7.33333L11.9856 7.33333L11.9856 6.05479L9.98561 6.05479ZM9.98562 7.33333L9.98561 8L11.9856 8L11.9856 7.33333L9.98562 7.33333ZM15.0342 1C12.2445 1 9.98561 3.26457 9.98561 6.05479H11.9856C11.9856 4.36622 13.3519 3 15.0342 3V1ZM17.9733 6.91666C17.9733 12.487 13.465 17 7.90703 17V19C14.5725 19 19.9733 13.5886 19.9733 6.91666H17.9733ZM2.06146 2.35065C2.81538 4.36423 5.63205 8.33333 10.9856 8.33333V6.33333C6.754 6.33333 4.51182 3.19133 3.93447 1.64935L2.06146 2.35065ZM2.10326 1.55334C0.675445 4.41338 0.436099 7.23056 1.49999 9.65222C2.5604 12.066 4.82813 13.8875 8.0064 14.9485L8.63973 13.0515C5.82725 12.1125 4.10116 10.6007 3.33107 8.84778C2.56446 7.10278 2.65793 4.91995 3.89267 2.44666L2.10326 1.55334ZM7.61541 13.2934C6.85494 14.0551 4.52135 15.6667 1.66669 15.6667V17.6667C5.20214 17.6667 8.01618 15.7227 9.03072 14.7066L7.61541 13.2934ZM18.6965 2.62716C17.7943 1.62942 16.4871 1 15.0342 1V3C15.8978 3 16.6737 3.37203 17.213 3.96853L18.6965 2.62716ZM18.1045 4.28657C19.1978 4.12098 20.2562 3.54896 21.048 2.66881L19.5611 1.33119C19.0669 1.88056 18.4227 2.21557 17.805 2.30912L18.1045 4.28657ZM1.11139 17.4983C3.39431 19.0226 5.78886 19 7.90703 19V17C5.72278 17 3.93289 16.9774 2.22198 15.835L1.11139 17.4983Z" fill="#4F4F4F"/>
</svg>
