<?xml version="1.0" encoding="iso-8859-1"?>
<!-- Uploaded to: SVG Repo, www.svgrepo.com, Generator: SVG Repo Mixer Tools -->
<svg fill="#000000" height="800px" width="800px" version="1.1" id="Layer_1" xmlns="http://www.w3.org/2000/svg" xmlns:xlink="http://www.w3.org/1999/xlink" 
	 viewBox="0 0 512 512" xml:space="preserve">
<g>
	<g>
		<g>
			<path d="M170.667,170.667h170.667c11.782,0,21.333-9.551,21.333-21.333c0-11.782-9.551-21.333-21.333-21.333H170.667
				c-11.782,0-21.333,9.551-21.333,21.333C149.333,161.115,158.885,170.667,170.667,170.667z"/>
			<path d="M384,213.333H128c-11.782,0-21.333,9.551-21.333,21.333c0,11.782,9.551,21.333,21.333,21.333h256
				c11.782,0,21.333-9.551,21.333-21.333C405.333,222.885,395.782,213.333,384,213.333z"/>
			<path d="M452.864,21.333H59.136C26.469,21.333,0,47.802,0,80.469v244.395C0,357.531,26.469,384,59.136,384h120.785l57.786,96.309
				c8.286,13.81,28.3,13.81,36.586,0L332.079,384h120.785C485.531,384,512,357.531,512,324.864V80.469
				C512,47.802,485.531,21.333,452.864,21.333z M469.333,324.864c0,9.103-7.366,16.469-16.469,16.469h-98.346l5.896-11.793
				c5.269-10.538,0.998-23.353-9.541-28.622s-23.353-0.998-28.622,9.541l-20.967,41.934L256,427.869l-45.285-75.476l-20.967-41.933
				c-5.269-10.538-18.083-14.81-28.622-9.541s-14.81,18.083-9.541,28.622l5.896,11.793H59.136c-9.103,0-16.469-7.366-16.469-16.469
				V80.469C42.667,71.366,50.033,64,59.136,64h393.728c9.103,0,16.469,7.366,16.469,16.469V324.864z"/>
		</g>
	</g>
</g>
</svg>