<svg width="97" height="96" viewBox="0 0 97 96" fill="none" xmlns="http://www.w3.org/2000/svg">
<path d="M63.8419 74.8162C64.696 75.6616 65.1759 76.8082 65.1759 78.0037C65.1759 79.1993 64.696 80.3459 63.8419 81.1912C62.9877 82.0366 61.8291 82.5116 60.6211 82.5116C59.4132 82.5116 58.2546 82.0366 57.4004 81.1912L27.0879 51.1912C26.6641 50.7732 26.3277 50.2764 26.0982 49.7294C25.8687 49.1824 25.7506 48.596 25.7506 48.0037C25.7506 47.4115 25.8687 46.825 26.0982 46.2781C26.3277 45.7311 26.6641 45.2343 27.0879 44.8162L57.4004 14.8162C58.2546 13.9709 59.4132 13.4959 60.6211 13.4959C61.8291 13.4959 62.9877 13.9709 63.8419 14.8162C64.696 15.6616 65.1759 16.8082 65.1759 18.0037C65.1759 19.1993 64.696 20.3459 63.8419 21.1912L36.7538 48L63.8419 74.8162Z" fill="black"/>
</svg>
