<svg width="866" height="713" viewBox="0 0 866 713" fill="none" xmlns="http://www.w3.org/2000/svg">
<g clip-path="url(#clip0_308_518)">
<mask id="mask0_308_518" style="mask-type:luminance" maskUnits="userSpaceOnUse" x="0" y="0" width="866" height="713">
<path d="M866 0H0V713H866V0Z" fill="white"/>
</mask>
<g mask="url(#mask0_308_518)">
<path d="M866 580.004H0V583.676H866V580.004Z" fill="#6E39CB"/>
<path d="M580.983 580.2H186.852C182.787 580.2 179.48 576.943 179.48 572.941V21.8182C179.48 17.8156 182.787 14.5594 186.852 14.5594H580.983C585.047 14.5594 588.354 17.8156 588.354 21.8182V572.941C588.354 576.944 585.047 580.2 580.983 580.2ZM186.852 17.3098C184.327 17.3098 182.273 19.3324 182.273 21.8182V572.941C182.273 575.427 184.327 577.449 186.852 577.449H580.983C583.507 577.449 585.561 575.427 585.561 572.941V21.8182C585.561 19.3324 583.507 17.3098 580.983 17.3098H186.852ZM565.331 564.846H204.958C200.893 564.846 197.587 561.59 197.587 557.587V37.5756C197.587 33.573 200.893 30.3168 204.958 30.3168H565.331C569.396 30.3168 572.703 33.573 572.703 37.5756V557.587C572.703 561.59 569.396 564.846 565.331 564.846ZM204.958 33.0672C202.433 33.0672 200.38 35.0899 200.38 37.5756V557.587C200.38 560.073 202.434 562.096 204.958 562.096H565.331C567.856 562.096 569.91 560.073 569.91 557.587V37.5756C569.91 35.0896 567.856 33.0672 565.331 33.0672H204.958Z" fill="#6E39CB"/>
<path d="M565.332 564.846H204.959C200.894 564.846 197.588 561.59 197.588 557.587V37.5757C197.588 33.573 200.894 30.3169 204.959 30.3169H565.332C569.397 30.3169 572.704 33.573 572.704 37.5757V557.587C572.704 561.59 569.397 564.846 565.332 564.846ZM204.959 33.0672C202.434 33.0672 200.381 35.0899 200.381 37.5757V557.587C200.381 560.073 202.435 562.096 204.959 562.096H565.332C567.857 562.096 569.911 560.073 569.911 557.587V37.5757C569.911 35.0896 567.857 33.0672 565.332 33.0672H204.959Z" fill="#854CEA"/>
<path d="M565.332 564.846H204.959C200.894 564.846 197.588 561.59 197.588 557.587V37.5757C197.588 33.573 200.894 30.3169 204.959 30.3169H565.332C569.397 30.3169 572.704 33.573 572.704 37.5757V557.587C572.704 561.59 569.397 564.846 565.332 564.846ZM204.959 33.0672C202.434 33.0672 200.381 35.0899 200.381 37.5757V557.587C200.381 560.073 202.435 562.096 204.959 562.096H565.332C567.857 562.096 569.911 560.073 569.911 557.587V37.5757C569.911 35.0896 567.857 33.0672 565.332 33.0672H204.959Z" fill="#6E39CB"/>
<path d="M630.128 1.37512H330.259C309.897 1.37512 293.391 17.6294 293.391 37.6801V181.387C293.391 201.437 309.897 217.692 330.259 217.692H630.128C650.49 217.692 666.996 201.437 666.996 181.387V37.6801C666.996 17.6294 650.49 1.37512 630.128 1.37512Z" fill="white"/>
<path d="M630.127 219.067H330.258C309.159 219.067 291.994 202.163 291.994 181.387V37.6802C291.994 16.9033 309.159 0 330.258 0H630.127C651.226 0 668.391 16.9033 668.391 37.6802V181.387C668.391 202.163 651.226 219.067 630.127 219.067ZM330.258 2.75038C310.699 2.75038 294.787 18.4198 294.787 37.6802V181.387C294.787 200.647 310.699 216.316 330.258 216.316H630.127C649.686 216.316 665.598 200.647 665.598 181.387V37.6802C665.598 18.4198 649.686 2.75038 630.127 2.75038H330.258Z" fill="white"/>
<path d="M539.369 188.399H429.686C421.598 188.399 415.018 181.92 415.018 173.956V84.3865C415.018 76.4225 421.598 69.9432 429.686 69.9432H539.369C547.456 69.9432 554.036 76.4225 554.036 84.3865V173.956C554.036 181.92 547.456 188.399 539.369 188.399ZM429.686 71.8687C422.676 71.8687 416.973 77.4842 416.973 84.3868V173.956C416.973 180.858 422.676 186.474 429.686 186.474H539.369C546.378 186.474 552.081 180.859 552.081 173.956V84.3865C552.081 77.4842 546.378 71.8685 539.369 71.8685L429.686 71.8687Z" fill="#6E39CB"/>
<path d="M528.361 71.8687H445.811L445.933 70.7978C448.562 47.9198 466.253 30.6675 487.085 30.6675C507.918 30.6675 525.609 47.9198 528.237 70.7978L528.361 71.8687ZM448.011 69.9435H526.16C523.226 48.5744 506.598 32.5931 487.086 32.5931C467.574 32.5931 450.945 48.5744 448.011 69.9435Z" fill="#6E39CB"/>
<path d="M316.689 427.453C366.32 427.453 406.553 387.833 406.553 338.96C406.553 290.086 366.32 250.467 316.689 250.467C267.058 250.467 226.824 290.086 226.824 338.96C226.824 387.833 267.058 427.453 316.689 427.453Z" fill="white"/>
<path d="M316.688 428.691C292.348 428.691 269.465 419.357 252.255 402.409C235.044 385.461 225.566 362.928 225.566 338.96C225.566 314.992 235.044 292.459 252.255 275.511C269.465 258.563 292.348 249.229 316.688 249.229C341.027 249.229 363.91 258.563 381.12 275.511C398.331 292.459 407.809 314.992 407.809 338.96C407.809 362.928 398.331 385.461 381.12 402.409C363.91 419.357 341.027 428.691 316.688 428.691ZM316.688 251.704C267.829 251.704 228.08 290.847 228.08 338.96C228.08 387.073 267.829 426.215 316.688 426.215C365.546 426.215 405.296 387.073 405.296 338.96C405.296 290.847 365.546 251.704 316.688 251.704Z" fill="#6E39CB"/>
<path d="M303.504 379.665C301.703 379.665 300.015 378.979 298.749 377.732C298.455 377.445 298.187 377.126 297.951 376.784C297.678 376.564 297.423 376.323 297.189 376.066L265.187 340.74C263.995 339.425 263.395 337.726 263.498 335.956C263.6 334.186 264.392 332.565 265.729 331.391C266.956 330.312 268.543 329.717 270.199 329.717C272.12 329.717 273.951 330.521 275.222 331.924L303.763 363.431L367.989 300.188C369.254 298.941 370.943 298.255 372.743 298.255C374.542 298.255 376.231 298.941 377.497 300.188C378.763 301.432 379.461 303.095 379.461 304.87C379.461 306.644 378.763 308.303 377.497 309.55L308.259 377.732C306.993 378.979 305.305 379.665 303.504 379.665ZM270.199 332.467C269.231 332.467 268.304 332.814 267.589 333.443C266.808 334.128 266.346 335.076 266.286 336.112C266.226 337.149 266.576 338.142 267.271 338.909L299.272 374.234C299.442 374.421 299.632 374.595 299.838 374.748L300.043 374.901L300.179 375.115C300.333 375.359 300.516 375.584 300.721 375.785C301.462 376.515 302.449 376.915 303.504 376.915C304.558 376.915 305.545 376.515 306.283 375.788L375.521 307.606C376.26 306.878 376.667 305.906 376.667 304.87C376.667 303.833 376.26 302.859 375.522 302.133C374.783 301.405 373.796 301.005 372.742 301.005C371.688 301.005 370.701 301.405 369.963 302.132L303.646 367.435L273.137 333.755C272.396 332.936 271.324 332.467 270.198 332.467H270.199Z" fill="#854CEA"/>
<path d="M617.194 388.143L480.781 599.161C477.136 604.8 478.823 612.28 484.549 615.869L634.294 709.738C640.019 713.327 647.615 711.666 651.26 706.028L787.672 495.009C791.317 489.371 789.63 481.891 783.905 478.302L634.16 384.433C628.434 380.843 620.838 382.504 617.194 388.143Z" fill="white"/>
<path d="M640.873 713C638.359 713 635.818 712.32 633.545 710.896L483.8 617.027C477.434 613.036 475.552 604.69 479.604 598.421L616.016 387.402C617.972 384.376 621.02 382.279 624.598 381.496C628.176 380.715 631.838 381.344 634.911 383.27L784.656 477.139C787.728 479.065 789.858 482.066 790.653 485.589C791.447 489.113 790.808 492.719 788.852 495.745L652.44 706.764C649.835 710.794 645.399 713 640.873 713ZM635.045 708.575C640.112 711.751 646.858 710.277 650.084 705.287L786.495 494.267C788.05 491.862 788.558 488.992 787.925 486.185C787.293 483.379 785.599 480.99 783.156 479.459L633.411 385.59C630.967 384.058 628.052 383.558 625.203 384.181C622.353 384.805 619.927 386.473 618.372 388.878L481.96 599.898C480.405 602.303 479.897 605.174 480.53 607.98C481.163 610.786 482.857 613.175 485.3 614.706L635.045 708.575Z" fill="#854CEA"/>
<path d="M539.406 561.786L512.65 603.176C511.656 604.714 512.116 606.754 513.677 607.733L537.997 622.978C539.558 623.956 541.63 623.503 542.624 621.966L569.38 580.576C570.374 579.038 569.914 576.998 568.353 576.019L544.033 560.774C542.472 559.796 540.4 560.249 539.406 561.786Z" fill="white"/>
<path d="M539.787 624.865C538.915 624.865 538.034 624.629 537.245 624.135L512.926 608.89C510.717 607.506 510.064 604.61 511.47 602.435L538.226 561.045C538.905 559.995 539.963 559.267 541.203 558.996C542.443 558.724 543.714 558.943 544.781 559.612L569.101 574.857C570.168 575.525 570.907 576.566 571.182 577.788C571.458 579.01 571.236 580.261 570.557 581.312L543.8 622.702C542.896 624.1 541.358 624.865 539.787 624.865ZM538.745 621.815C539.655 622.384 540.866 622.12 541.445 621.225L568.201 579.835C568.479 579.404 568.57 578.889 568.456 578.385C568.342 577.88 568.039 577.451 567.601 577.177L543.282 561.932C542.844 561.658 542.321 561.569 541.809 561.681C541.297 561.792 540.861 562.091 540.583 562.522L513.826 603.912C513.548 604.343 513.457 604.858 513.571 605.362C513.685 605.867 513.988 606.296 514.426 606.57L538.745 621.815Z" fill="#6E39CB"/>
<path d="M568.801 644.74L566.599 648.211L568.75 650.021C568.855 649.794 568.951 649.58 569.164 649.244C569.608 648.545 570.208 647.941 570.905 647.591C571.769 647.131 572.938 647.033 574.104 647.75C575.908 648.86 576.361 651.105 575.109 653.078C574.479 654.071 573.662 654.736 573.102 654.995L572.345 654.101C572.813 653.863 573.567 653.297 574.092 652.471C574.829 651.309 574.692 649.844 573.455 649.083C572.253 648.362 570.903 648.621 569.748 650.441C569.42 650.959 569.219 651.399 569.049 651.761L564.988 648.445L567.75 644.093L568.801 644.741V644.74Z" fill="#6E39CB"/>
<path d="M573.497 637.589L573.479 637.617L573.343 639.732L572.24 639.384L572.421 636.732L573.087 635.682L582.324 641.366L581.569 642.556L573.498 637.589H573.497Z" fill="#6E39CB"/>
<path d="M581.465 624.784L579.263 628.255L581.414 630.065C581.519 629.837 581.615 629.624 581.828 629.288C582.272 628.588 582.872 627.985 583.568 627.635C584.433 627.175 585.602 627.077 586.768 627.794C588.572 628.904 589.026 631.148 587.773 633.122C587.143 634.115 586.326 634.78 585.766 635.039L585.01 634.145C585.477 633.907 586.232 633.341 586.755 632.515C587.493 631.353 587.355 629.887 586.119 629.127C584.917 628.406 583.567 628.665 582.413 630.484C582.084 631.002 581.883 631.443 581.713 631.805L577.652 628.489L580.414 624.137L581.465 624.784Z" fill="#6E39CB"/>
<path d="M592.536 625.273L591.769 624.8L591.43 623.249C590.658 619.544 590.131 617.76 588.747 616.889C587.809 616.312 586.658 616.226 585.797 617.583C585.273 618.409 585.264 619.357 585.353 619.996L584.223 619.845C584.083 618.883 584.253 617.742 584.919 616.693C586.162 614.734 588.05 614.748 589.372 615.561C591.077 616.61 591.683 618.676 592.342 621.748L592.563 622.895L592.591 622.912L595.184 618.826L596.222 619.465L592.536 625.272V625.273Z" fill="#6E39CB"/>
<path d="M601.404 594.548C601.23 594.791 601.04 595.121 600.874 595.506C599.976 597.638 600.763 599.543 602.15 600.689L602.177 600.647C601.869 599.855 601.866 598.802 602.506 597.794C603.527 596.185 605.425 595.777 607.23 596.888C608.921 597.928 609.765 600.023 608.566 601.913C607.332 603.858 604.989 604.187 602.587 602.709C600.769 601.59 599.742 600.063 599.401 598.608C599.127 597.388 599.297 596.092 599.884 594.857C600.058 594.458 600.239 594.142 600.38 593.918L601.404 594.548ZM606.511 598.177C605.19 597.363 603.923 597.615 603.203 598.749C602.733 599.49 602.766 600.465 603.222 601.212C603.31 601.383 603.46 601.553 603.687 601.692C605.225 602.6 606.783 602.605 607.6 601.318C608.275 600.255 607.832 598.99 606.511 598.177Z" fill="#854CEA"/>
<path d="M610.382 593.572C609.217 592.855 608.828 591.662 609.055 590.245L609.003 590.233C607.88 590.943 606.81 590.888 606.014 590.398C604.55 589.497 604.328 587.667 605.341 586.072C606.46 584.309 608.141 584.118 609.292 584.826C610.074 585.307 610.673 586.201 610.502 587.653L610.545 587.679C611.719 586.825 612.973 586.624 614.096 587.315C615.702 588.303 615.92 590.325 614.819 592.06C613.612 593.964 611.732 594.403 610.382 593.572ZM606.666 589.184C607.589 589.752 608.522 589.373 609.472 588.498C609.699 587.548 609.513 586.597 608.675 586.08C607.936 585.626 606.893 585.587 606.191 586.693C605.543 587.715 605.87 588.694 606.666 589.184ZM613.433 588.639C612.31 587.948 611.282 588.386 610.146 589.399C609.783 590.655 610.13 591.666 611.011 592.208C611.923 592.827 613.191 592.635 613.928 591.473C614.629 590.367 614.385 589.225 613.433 588.639Z" fill="#854CEA"/>
<path d="M613.641 573.335L614.465 573.843L620.365 582.98L619.557 584.253L613.89 575.279L613.861 575.262L611.038 579.712L610 579.073L613.641 573.335Z" fill="#854CEA"/>
<path d="M624.213 573.77C624.662 573.56 625.532 572.967 626.074 572.113C627.078 570.532 626.365 569.413 625.589 568.954C624.287 568.173 623.004 568.979 622.249 570.169L621.815 570.854L620.876 570.277L621.312 569.591C621.88 568.696 622.13 567.274 621.036 566.6C620.297 566.146 619.35 566.205 618.631 567.339C618.169 568.067 618.052 568.968 618.088 569.534L616.974 569.296C616.921 568.602 617.152 567.46 617.773 566.48C618.91 564.689 620.505 564.542 621.628 565.233C622.58 565.818 623.035 566.877 622.737 568.25L622.765 568.267C623.703 567.287 625.133 566.903 626.426 567.698C627.904 568.608 628.478 570.537 627.092 572.721C626.444 573.742 625.549 574.436 624.967 574.7L624.213 573.77Z" fill="#854CEA"/>
<path d="M650.999 535.8C651.196 535.552 651.363 535.226 651.587 534.78C651.94 534.005 652.068 533.15 651.899 532.326C651.727 531.383 651.192 530.451 650.204 529.61L650.178 529.652C650.483 530.54 650.391 531.495 649.814 532.405C648.775 534.042 646.858 534.322 645.281 533.352C643.533 532.276 642.788 530.086 643.97 528.225C645.151 526.363 647.414 526.16 649.773 527.612C651.805 528.862 652.799 530.409 653.112 531.846C653.365 532.975 653.178 534.202 652.67 535.252C652.457 535.744 652.223 536.144 652.022 536.429L650.999 535.8ZM645.968 532.081C647.119 532.79 648.364 532.603 649.04 531.539C649.563 530.714 649.56 529.816 649.21 529.153C649.14 529.013 649.025 528.884 648.826 528.761C647.248 527.791 645.676 527.621 644.859 528.909C644.193 529.958 644.661 531.277 645.968 532.081Z" fill="#6E39CB"/>
<path d="M656.511 525.901C656.961 525.691 657.831 525.098 658.373 524.244C659.376 522.663 658.664 521.544 657.888 521.086C656.585 520.304 655.303 521.11 654.548 522.3L654.113 522.985L653.175 522.408L653.61 521.723C654.179 520.827 654.429 519.405 653.335 518.731C652.596 518.277 651.649 518.336 650.93 519.47C650.468 520.198 650.351 521.099 650.387 521.665L649.273 521.427C649.22 520.733 649.451 519.591 650.072 518.611C651.209 516.82 652.804 516.673 653.927 517.364C654.879 517.95 655.333 519.008 655.035 520.381L655.064 520.398C656.002 519.418 657.432 519.034 658.725 519.83C660.203 520.739 660.777 522.668 659.391 524.852C658.743 525.873 657.848 526.568 657.265 526.832L656.512 525.901H656.511Z" fill="#6E39CB"/>
<path d="M664.092 517.1L663.324 516.628L662.985 515.076C662.214 511.371 661.686 509.587 660.302 508.716C659.364 508.139 658.213 508.054 657.352 509.411C656.828 510.237 656.819 511.185 656.908 511.823L655.778 511.673C655.638 510.71 655.808 509.57 656.474 508.52C657.718 506.561 659.606 506.575 660.927 507.388C662.633 508.438 663.238 510.503 663.898 513.575L664.118 514.722L664.147 514.74L666.74 510.654L667.777 511.292L664.092 517.1Z" fill="#6E39CB"/>
<path d="M669.541 498.173C672.682 500.106 673.688 502.32 672.409 504.335C671.281 506.113 668.826 506.276 665.753 504.423C662.655 502.517 661.785 500.152 662.957 498.305C664.173 496.388 666.6 496.363 669.541 498.173ZM666.549 503.201C668.95 504.678 670.777 504.79 671.487 503.671C672.286 502.411 671.176 500.891 668.817 499.44C666.543 498.04 664.687 497.696 663.879 498.97C663.195 500.047 664.033 501.653 666.549 503.201Z" fill="#6E39CB"/>
<path d="M686.489 482.925L683.973 481.377L681.292 485.603L680.467 485.096L677.145 477.408L677.989 476.079L683.73 479.612L684.538 478.338L685.519 478.941L684.71 480.215L687.226 481.763L686.489 482.925ZM682.993 480.773L679.909 478.876C679.426 478.579 678.952 478.267 678.486 477.942L678.459 477.984C678.822 478.596 679.078 479.065 679.344 479.579L681.072 483.736L681.101 483.754L682.993 480.773Z" fill="#6E39CB"/>
<path d="M689.156 475.576C689.606 475.366 690.476 474.773 691.018 473.919C692.021 472.338 691.308 471.218 690.532 470.76C689.229 469.979 687.948 470.785 687.193 471.974L686.758 472.66L685.819 472.083L686.255 471.397C686.824 470.502 687.074 469.079 685.98 468.406C685.241 467.951 684.293 468.011 683.574 469.145C683.113 469.872 682.996 470.773 683.032 471.34L681.917 471.102C681.864 470.408 682.096 469.265 682.717 468.286C683.854 466.495 685.448 466.347 686.571 467.039C687.523 467.624 687.978 468.683 687.68 470.056L687.709 470.073C688.647 469.093 690.077 468.709 691.37 469.504C692.848 470.414 693.421 472.343 692.035 474.526C691.387 475.548 690.492 476.242 689.91 476.507L689.156 475.576Z" fill="#6E39CB"/>
<path d="M696.736 466.775L695.968 466.302L695.629 464.751C694.858 461.046 694.33 459.262 692.946 458.391C692.008 457.814 690.857 457.728 689.996 459.086C689.472 459.911 689.463 460.859 689.552 461.498L688.422 461.348C688.282 460.385 688.452 459.245 689.118 458.196C690.362 456.236 692.25 456.25 693.571 457.063C695.277 458.113 695.882 460.178 696.542 463.25L696.762 464.397L696.791 464.415L699.384 460.329L700.421 460.967L696.736 466.774V466.775Z" fill="#6E39CB"/>
<path d="M703.067 456.796L702.3 456.324L701.96 454.773C701.189 451.068 700.661 449.284 699.278 448.413C698.34 447.836 697.189 447.75 696.328 449.108C695.804 449.933 695.795 450.881 695.884 451.52L694.754 451.37C694.614 450.408 694.784 449.267 695.45 448.218C696.693 446.258 698.582 446.272 699.903 447.085C701.608 448.134 702.214 450.2 702.873 453.272L703.094 454.419L703.122 454.437L705.715 450.35L706.753 450.989L703.067 456.796Z" fill="#6E39CB"/>
<path d="M476.448 556.916C476.054 558.919 474.17 559.927 456.68 563.471H373.271C376.74 556.352 385.449 538.487 401.562 530.694C433.128 515.431 478.618 545.842 476.448 556.916Z" fill="#6E39CB"/>
<path d="M464.655 375.181C460.344 378.587 463.549 381.592 456.373 392.399C450.441 401.333 446.208 402.356 443.49 409.164C440.09 417.678 442.704 426.111 443.49 428.647C449.921 449.395 477.463 457.017 486.281 459.458C495.897 462.119 515.959 467.67 536.895 457.645C552.328 450.255 559.963 438.362 563.582 432.725C567.975 425.882 576.857 412.045 571.864 404.633C568.952 400.311 563.605 401.559 545.177 396.477C543.375 395.98 538.761 394.484 529.533 391.493C486.402 377.511 472.748 368.788 464.655 375.181Z" fill="white"/>
<path d="M510.977 464.098C500.469 464.098 491.596 461.642 486.093 460.12C477.009 457.606 449.365 449.957 442.822 428.847C440.519 421.416 440.525 414.709 442.84 408.912C444.37 405.082 446.324 403.063 448.798 400.507C450.824 398.415 453.12 396.042 455.789 392.023C459.544 386.367 460.403 382.901 461.03 380.37C461.604 378.056 462.018 376.383 464.219 374.645C470.27 369.864 478.707 372.903 499.091 380.246C507.18 383.16 517.248 386.786 529.751 390.84L529.808 390.858C538.979 393.831 543.582 395.323 545.365 395.815C552.371 397.746 557.523 398.769 561.286 399.516C567.602 400.77 570.486 401.342 572.446 404.252C577.689 412.036 568.56 426.257 564.173 433.091C560.485 438.836 552.812 450.788 537.2 458.263C528.02 462.659 519.019 464.098 510.977 464.098ZM465.093 375.718C463.262 377.163 462.933 378.493 462.387 380.696C461.736 383.324 460.845 386.922 456.958 392.775C454.219 396.9 451.876 399.321 449.809 401.456C447.44 403.903 445.569 405.836 444.14 409.415C441.943 414.917 441.949 421.319 444.158 428.446C450.478 448.836 477.568 456.332 486.47 458.796C496.019 461.439 515.891 466.938 536.589 457.027C551.843 449.722 559.373 437.994 562.991 432.358C567.222 425.767 576.025 412.054 571.282 405.013C569.642 402.578 567.114 402.076 561.01 400.864C557.226 400.113 552.044 399.085 544.989 397.139C543.175 396.639 538.562 395.143 529.371 392.164L529.315 392.146C516.789 388.086 506.71 384.455 498.61 381.537C478.75 374.383 470.531 371.422 465.093 375.718Z" fill="#6E39CB"/>
<path d="M484.442 383.337C483.604 383.518 464.329 387.387 454.073 375.181C453.003 373.907 447.453 367.29 449.012 359.323C450.682 350.788 459.664 345.265 466.957 343.917C475.721 342.299 478.385 347.393 486.743 345.277C494.726 343.255 494.45 338.06 501.926 335.308C511.232 331.884 520.968 336.507 532.755 342.105C543.712 347.308 550.857 353.324 555.761 357.51C562.71 363.443 569.471 369.319 575.086 379.259C577.417 383.385 580.943 389.773 581.987 398.742C582.63 404.261 582.055 408.363 581.068 415.054C579.224 427.546 578.535 433.824 575.545 437.709C569.916 445.023 564.966 440.875 553 450.396C546.993 455.175 544.694 459.043 538.276 460.364C537.527 460.518 529.992 461.988 527.693 458.552C525.524 455.31 529.203 449.481 530.914 446.771C533.347 442.915 534.773 442.742 539.196 436.803C542.348 432.569 541.652 432.62 543.337 430.912C547.801 426.388 551.497 427.242 555.3 423.663C556.689 422.356 560.338 418.858 559.901 414.148C559.598 410.88 557.335 407.142 553.461 405.992C549.149 404.713 544.593 407.159 542.878 410.07C541.578 412.277 542.326 414.044 540.576 415.961C539.614 417.014 537.388 418.683 535.516 418.226C530.877 417.093 534.249 404.308 526.313 397.383C525.418 396.603 523.11 395.504 518.492 393.305C516.977 392.585 512.069 390.287 505.147 387.868C501.79 386.695 499.562 385.917 496.405 385.149C491.567 383.974 487.417 383.522 484.442 383.337Z" fill="#6E39CB"/>
<path d="M459.689 434.579C460.97 433.304 462.517 432.25 464.241 431.566C464.665 431.376 465.112 431.247 465.555 431.105C466.006 430.992 466.456 430.866 466.919 430.795C467.377 430.698 467.847 430.676 468.313 430.63C468.782 430.617 469.251 430.597 469.72 430.633C471.595 430.743 473.455 431.339 475.003 432.381C476.551 433.42 477.783 434.861 478.582 436.475C477.486 435.042 476.173 433.806 474.653 432.925C474.46 432.821 474.272 432.709 474.072 432.618C473.878 432.517 473.68 432.424 473.479 432.34C473.281 432.245 473.071 432.181 472.867 432.104C472.662 432.029 472.458 431.952 472.245 431.902C471.412 431.641 470.541 431.506 469.668 431.456C469.232 431.415 468.794 431.429 468.355 431.434C467.917 431.469 467.478 431.492 467.044 431.565C466.605 431.612 466.176 431.714 465.743 431.802L465.104 431.975C464.888 432.025 464.678 432.095 464.468 432.167C462.777 432.711 461.193 433.567 459.689 434.579Z" fill="#6E39CB"/>
<path d="M452.233 435.443C434.039 428.595 428.917 429.599 412.662 421.397C407.248 418.666 405.644 417.458 391.497 410.07C385.209 406.786 379.636 404.105 368.491 398.742C354.388 391.957 351.848 390.983 347.785 391.04C345.46 391.072 334.218 391.229 329.84 399.649C327.37 404.399 329.239 409.308 333.002 418.895C337.746 430.978 344.372 439.978 351.466 449.489C354.606 453.698 356.175 455.804 357.448 457.192C376.103 477.541 401.91 471.804 407.601 486.19C409.766 491.663 408.139 497.82 407.141 501.596C405.473 507.905 403.11 509.098 397.938 519.72C394.397 526.993 392.626 530.63 391.957 535.578C391.681 537.615 390.508 546.292 394.718 554.155C397.697 559.72 403 564.183 417.724 569.56C435.487 576.048 450.362 577.804 457.754 578.622C500.542 583.361 494.852 578.311 511.588 582.7C513.891 583.304 518.694 584.663 522.171 582.247C526.038 579.561 523.809 573.972 525.392 563.217C527.38 549.708 532.868 546.913 532.294 535.578C531.984 529.46 529.015 525.212 529.993 524.704C531.029 524.165 533.689 529.074 540.116 535.578C544.511 540.026 545.686 540.179 556.22 549.171C561.613 553.775 562.529 554.78 564.502 556.421C574.453 564.695 589.523 567.638 619.257 573.185C623.374 573.954 627.063 574.59 630.76 572.732C637.499 569.345 643.293 559.886 639.962 551.89C638.094 547.407 633.91 545.116 632.14 544.187C599.473 527.05 589.154 521.953 579.686 515.642C576.975 513.835 569.137 507.188 553.459 493.893C537.265 480.16 536.8 479.199 531.373 475.316C521.02 467.91 516.414 466.906 494.103 456.286C462.508 441.246 467.014 441.007 452.232 435.443H452.233Z" fill="#854CEA"/>
<path d="M517.229 584.311C515.005 584.311 512.915 583.761 511.604 583.416L511.41 583.365C503.499 581.29 500.733 581.349 495.22 581.464C489.176 581.591 480.043 581.782 457.677 579.305C451.116 578.579 435.751 576.877 417.482 570.205C402.048 564.568 396.973 559.84 394.101 554.476C392.133 550.8 390.044 544.523 391.266 535.488C391.95 530.43 393.741 526.751 397.31 519.422C399.563 514.795 401.275 511.966 402.65 509.692C404.394 506.81 405.546 504.905 406.466 501.422C407.427 497.788 409.035 491.706 406.951 486.44C404.333 479.82 397.223 477.65 388.221 474.902C378.646 471.979 366.73 468.341 356.931 457.652C355.64 456.246 354.073 454.144 350.95 449.957L350.904 449.896C344.18 440.881 337.226 431.559 332.352 419.143C328.626 409.652 326.574 404.424 329.22 399.335C332.167 393.668 338.757 390.478 347.776 390.352C351.937 390.294 354.486 391.239 368.798 398.125C379.934 403.482 385.524 406.172 391.825 409.462C399.758 413.605 403.76 415.812 406.682 417.423C408.964 418.681 410.613 419.59 412.982 420.786C422.569 425.622 428.372 427.27 435.092 429.177C439.764 430.503 445.059 432.007 452.484 434.801C459.918 437.599 462.503 439.058 467.198 441.707C471.745 444.272 478.618 448.15 494.41 455.667C500.872 458.743 505.883 461.028 509.909 462.864C519.844 467.393 524.379 469.461 531.786 474.76C535.08 477.116 536.511 478.362 540.758 482.061C543.593 484.529 547.475 487.91 553.917 493.372L553.941 493.392C569.563 506.64 577.404 513.289 580.08 515.072C587.824 520.235 596.356 524.694 616.968 535.466C621.503 537.836 626.63 540.516 632.471 543.58C633.986 544.375 638.596 546.794 640.61 551.629C644.046 559.877 638.345 569.693 631.079 573.345C627.095 575.347 623.045 574.592 619.129 573.861C590.253 568.473 574.347 565.506 564.054 556.946C563.207 556.241 562.562 555.662 561.671 554.86C560.486 553.795 558.863 552.335 555.765 549.691C551.053 545.668 548.206 543.409 546.127 541.76C543.513 539.685 542.072 538.542 539.617 536.058C536.567 532.97 534.375 530.26 532.774 528.281C531.978 527.297 531.162 526.289 530.618 525.744C530.737 526.154 530.924 526.684 531.098 527.175C531.781 529.108 532.815 532.028 532.993 535.544C533.315 541.903 531.78 545.627 530.003 549.938C528.582 553.383 526.972 557.287 526.085 563.316C525.494 567.334 525.439 570.656 525.396 573.326C525.321 577.909 525.272 580.936 522.575 582.809C520.938 583.947 519.039 584.312 517.229 584.312V584.311ZM498.362 580.043C502.136 580.043 505.359 580.355 511.769 582.036L511.965 582.088C514.303 582.703 518.655 583.849 521.77 581.685C523.886 580.215 523.929 577.613 523.999 573.303C524.043 570.594 524.098 567.224 524.703 563.118C525.614 556.924 527.258 552.938 528.708 549.42C530.424 545.26 531.905 541.668 531.598 535.612C531.43 532.294 530.436 529.486 529.779 527.628C529.133 525.802 528.706 524.596 529.669 524.096C530.726 523.546 531.647 524.68 533.866 527.424C535.448 529.381 537.615 532.06 540.618 535.099C543.013 537.523 544.43 538.647 547.003 540.689C549.09 542.345 551.948 544.613 556.679 548.651C559.791 551.308 561.421 552.774 562.612 553.844C563.492 554.636 564.128 555.208 564.954 555.895C574.563 563.885 588.585 566.763 619.388 572.51C623.244 573.228 626.885 573.908 630.444 572.12C637.155 568.747 642.376 559.49 639.318 552.151C637.495 547.774 633.219 545.531 631.813 544.793C625.973 541.73 620.847 539.051 616.313 536.681C595.654 525.884 587.103 521.415 579.296 516.211C576.554 514.383 568.692 507.716 553.029 494.434L553.005 494.414C546.556 488.945 542.67 485.561 539.833 483.091C535.623 479.425 534.205 478.19 530.964 475.872C523.668 470.652 519.172 468.602 509.322 464.111C505.291 462.273 500.274 459.986 493.801 456.905C477.965 449.367 471.068 445.475 466.503 442.9C461.87 440.285 459.317 438.846 451.985 436.085C444.616 433.312 439.351 431.817 434.706 430.498C427.916 428.571 422.052 426.907 412.346 422.009C409.953 420.802 408.295 419.888 406 418.623C403.084 417.015 399.09 414.813 391.171 410.677C384.891 407.397 379.308 404.712 368.186 399.36C354.137 392.601 351.659 391.68 347.797 391.728C339.319 391.846 333.163 394.77 330.464 399.962C328.198 404.319 329.805 408.839 333.655 418.648C338.462 430.893 345.36 440.14 352.03 449.082L352.076 449.143C355.171 453.293 356.725 455.376 357.968 456.732C367.51 467.14 378.733 470.566 388.635 473.589C397.625 476.333 405.39 478.704 408.253 485.941C410.5 491.621 408.821 497.974 407.818 501.769C406.848 505.441 405.655 507.413 403.85 510.396C402.489 512.646 400.795 515.446 398.57 520.017C395.064 527.215 393.305 530.828 392.65 535.669C391.478 544.345 393.464 550.336 395.337 553.835C398.059 558.92 402.95 563.431 417.968 568.916C436.077 575.53 451.323 577.219 457.834 577.939C480.107 580.406 489.184 580.216 495.191 580.089C496.332 580.065 497.367 580.043 498.362 580.043Z" fill="white"/>
<path d="M397.227 477.317C398.833 477.469 400.401 477.727 401.962 478.007C403.521 478.291 405.069 478.606 406.611 478.935L411.224 479.938C411.992 480.103 412.76 480.263 413.532 480.405C414.306 480.548 415.075 480.668 415.881 480.672C415.124 480.971 414.29 481.036 413.484 481.078C412.672 481.108 411.864 481.072 411.062 481.008C409.458 480.873 407.876 480.613 406.315 480.279C404.754 479.944 403.213 479.534 401.693 479.051C400.176 478.563 398.676 478.017 397.227 477.317Z" fill="white"/>
<path d="M313.963 377.029C324.599 367.177 330.934 366.433 334.765 367.606C339.484 369.052 342.846 374.156 345.166 372.932C347.217 371.851 345.532 367.364 348.494 365.148C350.062 363.975 352.603 363.685 353.903 364.738C355.561 366.082 354.63 369.152 353.903 374.161C352.614 383.043 354.073 383.934 353.071 387.271C350.602 395.486 337.438 405.328 325.612 400.381C317.317 396.911 312.178 387.209 313.963 377.029Z" fill="white"/>
<path d="M332.298 402.389C329.884 402.389 327.534 401.933 325.34 401.014C316.546 397.336 311.472 387.2 313.276 376.912L313.316 376.686L313.485 376.529C322.184 368.469 329.414 365.246 334.973 366.95C337.259 367.65 339.174 369.111 340.864 370.4C342.537 371.676 343.981 372.778 344.837 372.326C345.459 371.999 345.592 370.962 345.746 369.762C345.963 368.075 346.234 365.976 348.073 364.601C349.77 363.331 352.697 362.87 354.347 364.208C356.008 365.554 355.607 367.995 354.999 371.689C354.866 372.5 354.728 373.338 354.595 374.259C353.897 379.066 354.015 381.487 354.101 383.255C354.174 384.761 354.227 385.849 353.741 387.467C352.26 392.393 347.296 397.546 341.388 400.289C338.38 401.686 335.29 402.389 332.297 402.389H332.298ZM314.614 377.372C313.032 386.958 317.746 396.344 325.886 399.749C331.71 402.185 337.207 400.711 340.793 399.045C346.363 396.459 351.028 391.649 352.402 387.076C352.821 385.682 352.775 384.742 352.706 383.32C352.618 381.497 352.496 379.001 353.213 374.064C353.348 373.131 353.493 372.248 353.621 371.469C354.151 368.244 354.502 366.114 353.46 365.269C352.462 364.46 350.297 364.664 348.918 365.696C347.546 366.722 347.335 368.355 347.132 369.935C346.937 371.447 346.754 372.875 345.497 373.538C343.843 374.41 342.066 373.056 340.009 371.487C338.413 370.269 336.604 368.889 334.558 368.263C329.55 366.729 322.841 369.793 314.613 377.372H314.614Z" fill="#854CEA"/>
<path d="M636.061 543.753C636.709 543.225 643.876 537.458 646.452 539.355C647.904 540.424 647.96 543.969 646.452 545.501C645.681 546.283 644.578 546.401 644.603 546.502C644.637 546.64 647.811 545.102 650.982 545.41C653.848 545.687 656.883 547.486 658.471 550.144C661.682 555.517 657.524 561.96 656.807 563.072C652.978 569.005 646.414 570.273 645.435 570.446C638.105 571.742 628.294 568.484 626.205 561.433C623.905 553.672 632.535 546.63 636.061 543.753Z" fill="white"/>
<path d="M642.171 571.411C635.124 571.411 627.392 567.897 625.534 561.626C623.106 553.431 631.873 546.278 635.616 543.224C637.536 541.657 644.024 536.708 646.87 538.805C647.634 539.367 648.133 540.447 648.239 541.766C648.315 542.711 648.187 543.915 647.685 544.934C648.708 544.734 649.877 544.612 651.051 544.726C654.27 545.038 657.419 547.028 659.073 549.796C662.167 554.973 658.931 561.063 657.396 563.441C653.618 569.296 647.38 570.802 645.559 571.124C644.468 571.316 643.328 571.411 642.171 571.411ZM636.507 544.282C632.975 547.164 624.704 553.913 626.875 561.24C628.831 567.842 638.16 571.034 645.312 569.769C646.508 569.558 652.655 568.224 656.218 562.703C657.615 560.539 660.572 555.016 657.869 550.493C656.456 548.128 653.661 546.36 650.914 546.094C648.682 545.878 646.372 546.664 645.386 547C644.799 547.2 644.579 547.275 644.275 547.112L644.004 546.967L643.925 546.667C643.763 546.017 644.427 545.801 644.645 545.73C644.98 545.621 645.54 545.44 645.951 545.022C646.597 544.366 646.949 543.131 646.848 541.875C646.775 540.977 646.463 540.222 646.034 539.906C644.427 538.723 639.457 541.876 636.507 544.282Z" fill="#6E39CB"/>
<path d="M164.418 53.5804C162.102 53.5804 160.219 51.7255 160.219 49.4455C160.219 47.1654 162.102 45.3105 164.418 45.3105C166.733 45.3105 168.617 47.1654 168.617 49.4455C168.617 51.7255 166.733 53.5804 164.418 53.5804ZM164.418 46.4107C162.718 46.4107 161.336 47.7721 161.336 49.4455C161.336 51.1188 162.718 52.4802 164.418 52.4802C166.117 52.4802 167.499 51.1188 167.499 49.4455C167.499 47.7721 166.117 46.4107 164.418 46.4107Z" fill="#6E39CB"/>
<path d="M608.992 361.183C606.676 361.183 604.793 359.329 604.793 357.049C604.793 354.769 606.676 352.914 608.992 352.914C611.307 352.914 613.191 354.769 613.191 357.049C613.191 359.329 611.307 361.183 608.992 361.183ZM608.992 354.014C607.293 354.014 605.91 355.375 605.91 357.049C605.91 358.722 607.293 360.083 608.992 360.083C610.691 360.083 612.074 358.722 612.074 357.049C612.074 355.375 610.691 354.014 608.992 354.014Z" fill="#6E39CB"/>
<path d="M143.251 478.199C143.816 474.287 144.739 474.287 145.303 478.199C145.867 482.112 149.58 485.768 153.553 486.323C157.526 486.879 157.526 487.788 153.553 488.344C149.58 488.899 145.867 492.555 145.303 496.468C144.739 500.38 143.816 500.38 143.251 496.468C142.687 492.555 138.975 488.899 135.001 488.344C131.028 487.788 131.028 486.879 135.001 486.323C138.975 485.768 142.687 482.112 143.251 478.199Z" fill="#6E39CB"/>
<path d="M708.285 40.1137C708.849 36.201 709.772 36.201 710.336 40.1137C710.9 44.0264 714.613 47.6822 718.586 48.2378C722.559 48.7934 722.559 49.7024 718.586 50.2579C714.613 50.8135 710.9 54.4693 710.336 58.382C709.772 62.2947 708.849 62.2947 708.285 58.382C707.72 54.4693 704.008 50.8135 700.035 50.2579C696.061 49.7024 696.061 48.7934 700.035 48.2378C704.008 47.6822 707.72 44.0264 708.285 40.1137Z" fill="#6E39CB"/>
</g>
</g>
<defs>
<clipPath id="clip0_308_518">
<rect width="866" height="713" fill="white"/>
</clipPath>
</defs>
</svg>
